<?xml version="1.0" standalone="no"?><!DOCTYPE svg PUBLIC "-//W3C//DTD SVG 1.1//EN" "http://www.w3.org/Graphics/SVG/1.1/DTD/svg11.dtd"><svg t="1678293615356" class="icon" viewBox="0 0 24 24" version="1.1" xmlns="http://www.w3.org/2000/svg" p-id="1574" width="24" height="24" xmlns:xlink="http://www.w3.org/1999/xlink"><path d="M18,11 C21.0375661,11 23.5,13.4624339 23.5,16.5 C23.5,19.5375661 21.0375661,22 18,22 C14.9624339,22 12.5,19.5375661 12.5,16.5 C12.5,13.4624339 14.9624339,11 18,11 Z M18.4999474,16.9998772 L18.5002231,20.2384821 C19.2043571,19.87708 19.8126018,18.6065467 19.9012009,17.0004189 L18.4999474,16.9998772 Z M17.4999474,16.9998772 L16.2917816,17.0004189 C16.3721937,18.4581321 16.8806525,19.6394066 17.5003531,20.1154598 L17.4999474,16.9998772 Z M16.1349807,20.0395121 L16.0591094,19.91107 C15.621406,19.1417023 15.3444029,18.1215774 15.2904015,17.0009175 L14.0309168,16.9997591 C14.1956554,18.3215095 15.0052672,19.4430177 16.1349807,20.0395121 Z M17.2734524,2.50035059 C18.5262343,2.50786284 19.1604332,2.63715105 19.8189677,2.98933916 C20.4385579,3.32069965 20.9293004,3.81144206 21.2606608,4.4310323 C21.5755983,5.01991411 21.7122941,5.58933597 21.7430591,6.59903004 L21.7485853,6.86089194 L21.75,7.0958278 L21.7502175,11.243668 C21.2914151,10.9157419 20.7878791,10.6463902 20.2505349,10.4465383 L20.25,7.0958278 C20.25,5.98982639 20.16903,5.57052939 19.937941,5.13843059 C19.7463803,4.78024305 19.4697569,4.50361974 19.1115694,4.31205895 C18.6794706,4.08096999 18.2601736,4 17.1541722,4 L5.7471545,4.00022498 C4.7144027,4.00504512 4.30743549,4.08797268 3.88843059,4.31205895 C3.53024305,4.50361974 3.25361974,4.78024305 3.06205895,5.13843059 C2.84747634,5.53966519 2.76233305,5.92986151 2.75126454,6.86908336 L2.75,7.0958278 L2.75,15.4041722 C2.75,16.5101736 2.83096999,16.9294706 3.06205895,17.3615694 C3.25361974,17.7197569 3.53024305,17.9963803 3.88843059,18.187941 C4.28966519,18.4025237 4.67986151,18.4876669 5.61908336,18.4987355 L5.8458278,18.5 L11.8595024,18.500872 C12.0334258,19.034985 12.2750966,19.5385136 12.5743694,20.0013123 L5.8458278,20 C4.51337933,20 3.860146,19.8738548 3.1810323,19.5106608 C2.56144206,19.1793004 2.07069965,18.6885579 1.73933916,18.0689677 C1.42440172,17.4800859 1.28770588,16.910664 1.25694091,15.90097 L1.25141472,15.6391081 L1.25,15.4041722 L1.25035059,6.97654762 C1.25786284,5.72376567 1.38715105,5.0895668 1.73933916,4.4310323 C2.07069965,3.81144206 2.56144206,3.32069965 3.1810323,2.98933916 C3.76991411,2.67440172 4.33933597,2.53770588 5.34903004,2.50694091 L5.61089194,2.50141472 L5.8458278,2.5 L17.2734524,2.50035059 Z M21.9690832,16.9997591 L20.902581,17.0009175 C20.849561,18.1012104 20.5815714,19.1045893 20.1575781,19.8688747 C21.1326268,19.2434819 21.8188849,18.2048476 21.9690832,16.9997591 Z M19.9723625,13.0192881 L19.9975748,13.0584254 C20.4868807,13.8066921 20.8082559,14.8439439 20.8910734,15.9998844 L21.9689589,15.9992447 C21.809214,14.720174 21.0455543,13.6287275 19.9723625,13.0192881 Z M16.3320761,12.8628351 L16.3137009,12.8717701 C15.0914706,13.4407931 14.2046424,14.6092263 14.0310411,15.9992447 L15.3019091,15.9998844 C15.3922082,14.7395183 15.7661135,13.6202539 16.3320761,12.8628351 Z M17.5003531,13.0775226 C16.908223,13.5323962 16.4176565,14.6311365 16.3050281,15.9996818 L17.4999474,15.9998772 L17.5003531,13.0775226 Z M18.5002231,12.9545004 L18.4999474,15.9998772 L19.8879544,15.9996818 C19.7633249,14.4853126 19.1759249,13.3013094 18.5002231,12.9545004 Z M12.2811593,13.5002578 C12.0346801,13.9691899 11.8441871,14.4721486 11.7185662,15.0002483 L6.5,15 C6.08578644,15 5.75,14.6642136 5.75,14.25 C5.75,13.8357864 6.08578644,13.5 6.5,13.5 L12.2811593,13.5002578 Z M8.5,10.75 C8.91421356,10.75 9.25,11.0857864 9.25,11.5 C9.25,11.9142136 8.91421356,12.25 8.5,12.25 L8,12.25 C7.58578644,12.25 7.25,11.9142136 7.25,11.5 C7.25,11.0857864 7.58578644,10.75 8,10.75 L8.5,10.75 Z M11.75,10.75 C12.1642136,10.75 12.5,11.0857864 12.5,11.5 C12.5,11.9142136 12.1642136,12.25 11.75,12.25 L11.25,12.25 C10.8357864,12.25 10.5,11.9142136 10.5,11.5 C10.5,11.0857864 10.8357864,10.75 11.25,10.75 L11.75,10.75 Z M15.05,10.75 C14.5884924,10.9917325 14.1506183,11.2895821 13.7552176,11.6348506 C13.7517796,11.6078484 13.75,11.579132 13.75,11.55 L13.75,11.45 C13.75,11.0634007 14.0634007,10.75 14.45,10.75 L15.05,10.75 Z M7,8 C7.41421356,8 7.75,8.33578644 7.75,8.75 C7.75,9.16421356 7.41421356,9.5 7,9.5 L6.5,9.5 C6.08578644,9.5 5.75,9.16421356 5.75,8.75 C5.75,8.33578644 6.08578644,8 6.5,8 L7,8 Z M10.25,8 C10.6642136,8 11,8.33578644 11,8.75 C11,9.16421356 10.6642136,9.5 10.25,9.5 L9.75,9.5 C9.33578644,9.5 9,9.16421356 9,8.75 C9,8.33578644 9.33578644,8 9.75,8 L10.25,8 Z M13.5,8 C13.9142136,8 14.25,8.33578644 14.25,8.75 C14.25,9.16421356 13.9142136,9.5 13.5,9.5 L13,9.5 C12.5857864,9.5 12.25,9.16421356 12.25,8.75 C12.25,8.33578644 12.5857864,8 13,8 L13.5,8 Z M16.75,8 C17.1642136,8 17.5,8.33578644 17.5,8.75 C17.5,9.16421356 17.1642136,9.5 16.75,9.5 L16.25,9.5 C15.8357864,9.5 15.5,9.16421356 15.5,8.75 C15.5,8.33578644 15.8357864,8 16.25,8 L16.75,8 Z" fill="#000000" p-id="1575"></path></svg>