<?xml version="1.0" encoding="UTF-8"?>
<svg xmlns="http://www.w3.org/2000/svg" xmlns:xlink="http://www.w3.org/1999/xlink" width="24" height="24" viewBox="0 0 24 24" version="1.1">
    <title>ic_Delete</title>
    <defs>
        <path d="M19.25,5 C20.8476809,5 22.1536609,6.24891996 22.2449073,7.82372721 L22.250062,7.99968102 L22.250062,15.999681 C22.250062,17.6564799 20.9069334,18.9996427 19.2501003,18.9996427 L19.1993052,18.997 L19.2001036,18.9996427 L7.20100597,18.9996427 L7.19998916,18.995 L7.04072884,18.9904055 C6.34271778,18.9428431 5.65816535,18.6522772 5.12459595,18.1187078 L1.12766882,14.1217806 C-0.0439040572,12.9502078 -0.0439040572,11.0507128 1.12766882,9.87913994 L5.1268187,5.87999006 C5.65427728,5.35253148 6.32928034,5.06254217 7.01897468,5.01002212 L7.22600429,5 L19.25,5 Z M7.24998916,6.499 L7.25084167,6.50160985 C6.91394447,6.50094046 6.57686477,6.61306266 6.30110482,6.83797643 L6.18718241,6.9409467 L2.18855119,10.9395779 C1.63937641,11.4887527 1.60505298,12.3578151 2.08558092,12.9469758 L2.18855119,13.0608983 L6.18547227,17.0578193 C6.27781371,17.1501608 6.37919933,17.2279458 6.48677774,17.2911744 C6.54242175,17.3238789 6.59972257,17.352689 6.65828562,17.3776047 C6.81452969,17.4450568 6.98069157,17.4857748 7.15492595,17.4967555 L7.16451211,17.4949506 L7.25015919,17.4971538 L7.25074484,17.4997657 L19.2501194,17.4997657 C20.078536,17.4997657 20.7501003,16.8281306 20.7501003,15.9997312 L20.7501003,7.99968102 C20.7501003,7.22032936 20.1552321,6.57952152 19.3946056,6.50682908 L19.2260043,6.49996172 L7.24998916,6.499 Z M15.01,12.7 L16.5303301,14.2196699 C16.8232233,14.5125631 16.8232233,14.9874369 16.5303301,15.2803301 C16.2640635,15.5465966 15.8473998,15.5708027 15.5537883,15.3529482 L15.4696699,15.2803301 L13.95,13.761 L15.01,12.7 Z M16.5303301,8.71966991 C16.7942762,8.98361607 16.8203624,9.39534947 16.6085886,9.68850768 L11.1062216,15.1898975 L11.0483661,15.2591454 C11.0468119,15.261389 11.0452781,15.2636424 11.0437648,15.2659055 L11.0303301,15.2803301 C10.7374369,15.5732233 10.2625631,15.5732233 9.96966991,15.2803301 C9.70340335,15.0140635 9.6791973,14.5973998 9.89705176,14.3037883 L9.96966991,14.2196699 L12.189,12 L9.96966991,9.78033009 C9.6767767,9.48743687 9.6767767,9.01256313 9.96966991,8.71966991 C10.2063513,8.48298853 10.561865,8.43756482 10.8441588,8.58339881 L10.9462117,8.64705176 L11.0303301,8.71966991 L13.25,10.939 L15.4696699,8.71966991 C15.7625631,8.4267767 16.2374369,8.4267767 16.5303301,8.71966991 Z" id="_path-1"/>
    </defs>
    <g id="_ic_Delete" stroke="none" stroke-width="1" fill="none" fill-rule="evenodd">
        <mask id="_mask-2" fill="white">
            <use xlink:href="#_path-1"/>
        </mask>
        <use id="_形状结合" fill="#000000" xlink:href="#_path-1"/>
    </g>
</svg>