<?xml version="1.0" encoding="UTF-8"?>
<svg xmlns="http://www.w3.org/2000/svg" xmlns:xlink="http://www.w3.org/1999/xlink" width="24" height="24" viewBox="0 0 24 24" version="1.1">
    <title>ic_Encryption CT</title>
    <defs>
        <path d="M10.6911795,1.30107415 C11.5177131,0.900330583 12.4822869,0.900330583 13.3088205,1.30107415 L13.3088205,1.30107415 L19.7316154,4.41515652 C20.5073719,4.79128086 21,5.57760856 21,6.43973826 L21,6.43973826 L21,11.25 C21,16.5158971 17.6459225,21.1101108 12.7508862,22.7973636 C12.7379871,22.8018097 12.7161694,22.8089491 12.685433,22.8187818 C12.2393172,22.9614959 11.759784,22.9614277 11.3137088,22.8185866 L11.3137088,22.8185866 L11.2767569,22.806645 L11.2767569,22.806645 L11.2519921,22.7983767 C6.35549222,21.1121681 3,16.5172142 3,11.25 L3,11.25 L3,6.43973826 C3,5.57760856 3.49262814,4.79128086 4.26838461,4.41515652 L4.26838461,4.41515652 Z M12.5,12.0161352 L4.52712778,12.0164273 C4.83240674,16.3234858 7.68783379,20.0045418 11.7523646,21.4015869 C11.7538917,21.4021118 11.7554487,21.4026459 11.7570356,21.4031891 C11.9127947,21.4565073 12.0817698,21.4570962 12.2378967,21.4048651 L12.2378967,21.4048651 L12.2457293,21.4022016 C12.3350103,21.371494 12.4180157,21.3417847 12.5004986,21.3111255 L12.5,12.0161352 Z M12.5004344,2.56909594 L12.5,12 L19.4731283,12.0127739 C19.4876798,11.8064981 19.4963816,11.5987881 19.4990866,11.3898263 L19.4990866,11.3898263 L19.5,11.2486466 L19.5,6.4295033 C19.5,6.14159613 19.3357906,5.87900295 19.0772051,5.75339667 L19.0772051,5.75339667 L12.6544103,2.63356455 C12.6040274,2.6090914 12.5526187,2.58760187 12.5004344,2.56909594 Z" id="_path-1"/>
    </defs>
    <g id="_ic_Encryption-CT" stroke="none" stroke-width="1" fill="none" fill-rule="evenodd">
        <mask id="_mask-2" fill="white">
            <use xlink:href="#_path-1"/>
        </mask>
        <use id="_形状结合" fill="#000000" fill-rule="nonzero" xlink:href="#_path-1"/>
    </g>
</svg>