<?xml version="1.0" encoding="UTF-8"?>
<svg xmlns="http://www.w3.org/2000/svg" xmlns:xlink="http://www.w3.org/1999/xlink" width="24" height="24" viewBox="0 0 24 24" version="1.1">
    <!-- Generator: Sketch 63.1 (92452) - https://sketch.com -->
    <title>Linear/ic_device_matebook</title>
    <desc>Created with Sketch.</desc>
    <g id="_Linear/ic_device_matebook" stroke="none" stroke-width="1" fill="none" fill-rule="evenodd">
        <path d="M23.2497746,19.5 C23.6639882,19.5 23.9997746,19.8357864 23.9997746,20.25 C23.9997746,20.6494202 23.6875446,20.9759152 23.2938428,20.9987268 L23.2497746,21 L0.75,21 C0.335786438,21 -5.95079541e-13,20.6642136 -5.95079541e-13,20.25 C-5.95079541e-13,19.8505798 0.312229991,19.5240848 0.705931803,19.5012732 L23.2497746,19.5 Z M19.75,3 C21.4830315,3 22.8992459,4.35645477 22.9948552,6.06557609 L23,6.25 L23,15.75 C23,17.4830315 21.6435452,18.8992459 19.9344239,18.9948552 L19.75,19 L4.25,19 C2.51696854,19 1.10075407,17.6435452 1.00514479,15.9344239 L1,15.75 L1,6.25 C1,4.51696854 2.35645477,3.10075407 4.06557609,3.00514479 L4.25,3 L19.75,3 Z M19.75,4.5 L4.25,4.5 C3.3318266,4.5 2.57880766,5.20711027 2.5058012,6.10647279 L2.5,6.25 L2.5,15.75 C2.5,16.6681734 3.20711027,17.4211923 4.10647279,17.4941988 L4.25,17.5 L19.75,17.5 C20.6681734,17.5 21.4211923,16.7928897 21.4941988,15.8935272 L21.5,15.75 L21.5,6.25 C21.5,5.3318266 20.7928897,4.57880766 19.8935272,4.5058012 L19.75,4.5 Z" id="_形状" fill="#000000" fill-rule="nonzero"/>
    </g>
</svg>