<?xml version="1.0" encoding="UTF-8"?>
<svg xmlns="http://www.w3.org/2000/svg" width="24" height="24" version="1.1" viewBox="0 0 24 24">
  <g fill="#000" fill-rule="evenodd" stroke="none" stroke-width="1" opacity=".9" transform="translate(1.5 2.5)">
    <path fill-rule="nonzero" stroke="#000" stroke-width=".4" d="M2.49522226,3.98828571 C2.81016661,3.98828571 3.08574292,3.94168213 3.32195119,3.84847496 C3.55815945,3.75526779 3.74894305,3.61790986 3.89430199,3.43640116 C3.91247185,3.52960833 3.92761341,3.68658882 3.93972665,3.90734265 L4.74828571,3.90734265 L4.74828571,1.6482952 C4.74828571,1.13320295 4.57264367,0.729714022 4.22135958,0.437828413 C3.8700755,0.145942804 3.4067439,8.84847751e-13 2.83136479,8.84847751e-13 C2.40740124,8.84847751e-13 2.02734819,0.080943068 1.69120566,0.242829204 C1.35506313,0.40471534 1.11128409,0.623016342 0.959868532,0.897732209 L1.65032346,1.22150448 C1.89864497,0.843770163 2.27112724,0.654903005 2.76777026,0.654903005 C3.45822519,0.654903005 3.80950927,1.00075066 3.82162252,1.69244597 C3.47033843,1.61395572 3.12208266,1.5747106 2.77685519,1.5747106 C2.18936284,1.5747106 1.70634722,1.68508751 1.32780833,1.90584133 C0.949269444,2.12659515 0.76,2.42583922 0.76,2.80357354 C0.76,3.0537612 0.838736089,3.26715656 0.996208266,3.44375962 C1.15368044,3.62036268 1.36414806,3.75526779 1.62761113,3.84847496 C1.89107419,3.94168213 2.1802779,3.98828571 2.49522226,3.98828571 Z M2.61332639,3.37753347 C2.34683501,3.37753347 2.13182493,3.32479784 1.96829613,3.21932657 C1.80476733,3.1138553 1.72300293,2.97036531 1.72300293,2.78885662 C1.72300293,2.58772536 1.82293719,2.43074486 2.02280573,2.31791513 C2.22267426,2.2050854 2.50430719,2.14867053 2.86770452,2.14867053 C3.14025252,2.14867053 3.45822519,2.18546284 3.82162252,2.25904744 L3.82162252,2.25904744 L3.82162252,2.50187665 C3.82162252,2.77659251 3.70351839,2.99121429 3.46731012,3.14574196 C3.23110185,3.30026964 2.94644061,3.37753347 2.61332639,3.37753347 Z"/>
    <path fill-rule="nonzero" stroke="#000" stroke-width=".4" d="M3.43854297,11.9249743 C3.75888721,11.9249743 4.05920993,11.8514998 4.33951113,11.7045509 C4.61981234,11.557602 4.84538807,11.3429188 5.01623833,11.0605013 C5.18708859,10.7780838 5.27251371,10.4440046 5.27251371,10.0582637 C5.27251371,9.67711492 5.18708859,9.3453318 5.01623833,9.06291433 C4.84538807,8.78049686 4.61981234,8.56466563 4.33951113,8.41542062 C4.05920993,8.26617562 3.75888721,8.19155312 3.43854297,8.19155312 C3.17158945,8.19155312 2.9219879,8.24091877 2.68973833,8.33965008 C2.45748876,8.43838139 2.26394745,8.58877443 2.1091144,8.79082921 L2.1091144,8.79082921 L2.1091144,6.60726 L1.284228,6.60726 L1.284228,11.8492037 L2.01301113,11.8492037 C2.02368927,11.6287804 2.03970649,11.4313177 2.06106277,11.2568159 C2.21055674,11.4818314 2.40810235,11.649445 2.6536996,11.7596567 C2.89929685,11.8698684 3.1609113,11.9249743 3.43854297,11.9249743 Z M3.29438807,11.291257 C2.96870476,11.291257 2.68973833,11.1902297 2.45748876,10.9881749 C2.22523919,10.7861201 2.1091144,10.4761497 2.1091144,10.0582637 C2.1091144,9.64496984 2.22523919,9.33959161 2.45748876,9.14212899 C2.68973833,8.94466637 2.96870476,8.84593506 3.29438807,8.84593506 C3.63608859,8.84593506 3.90838118,8.95270264 4.11126587,9.16623779 C4.31415055,9.37977295 4.41559289,9.67711492 4.41559289,10.0582637 C4.41559289,10.4440046 4.31281578,10.7459388 4.10726156,10.9640661 C3.90170735,11.1821934 3.63074951,11.291257 3.29438807,11.291257 Z"/>
    <path fill-rule="nonzero" stroke="#000" stroke-width=".4" d="M3.39830687,18.8778857 C3.78156556,18.8778857 4.12140822,18.8092067 4.41783486,18.6718488 C4.71426151,18.5344909 4.94331846,18.328454 5.10500571,18.0537381 L5.10500571,18.0537381 L4.3953783,17.7152489 C4.14386479,18.0341156 3.80851344,18.1935489 3.38932425,18.1935489 C3.00007714,18.1935489 2.68568525,18.0770399 2.44614857,17.844022 C2.20661189,17.6110041 2.08684355,17.290911 2.08684355,16.8837429 C2.08684355,16.4814803 2.20661189,16.1638401 2.44614857,15.9308222 C2.68568525,15.6978043 3.00007714,15.5812953 3.38932425,15.5812953 C3.80851344,15.5812953 4.14386479,15.7382758 4.3953783,16.0522368 L4.3953783,16.0522368 L5.10500571,15.7137476 C4.94331846,15.4390317 4.71426151,15.2329948 4.41783486,15.0956369 C4.12140822,14.958279 3.78156556,14.8896 3.39830687,14.8896 C2.97911768,14.8896 2.595859,14.9705431 2.24853081,15.1324292 C1.90120263,15.2943153 1.62573544,15.5261069 1.42212927,15.8278037 C1.21852309,16.1295006 1.11672,16.4814803 1.11672,16.8837429 C1.11672,17.2860054 1.21852309,17.6379851 1.42212927,17.939682 C1.62573544,18.2413789 1.90120263,18.4731704 2.24853081,18.6350565 C2.595859,18.7969426 2.97911768,18.8778857 3.39830687,18.8778857 Z"/>
    <rect width="12.408" height="1.415" x="8.065" y="1.424" rx=".707"/>
    <rect width="10.237" height="1.415" x="8.189" y="8.841" rx=".707"/>
    <rect width="12.405" height="1.415" x="7.91" y="16.379" rx=".707"/>
  </g>
</svg>