<?xml version="1.0" encoding="UTF-8"?>
<svg width="24px" height="24px" viewBox="0 0 24 24" version="1.1" xmlns="http://www.w3.org/2000/svg" xmlns:xlink="http://www.w3.org/1999/xlink">
    <title>ic_gallery_rename</title>
    <defs>
        <path d="M10,21.75 C9.58578644,21.75 9.25,21.4142136 9.25,21 C9.25,20.6203042 9.53215388,20.306509 9.89822944,20.2568466 L10,20.25 L11.25,20.25 L11.25,3.75 L10,3.75 C9.58578644,3.75 9.25,3.41421356 9.25,3 C9.25,2.62030423 9.53215388,2.30650904 9.89822944,2.25684662 L10,2.25 L14,2.25 C14.4142136,2.25 14.75,2.58578644 14.75,3 C14.75,3.37969577 14.4678461,3.69349096 14.1017706,3.74315338 L14,3.75 L12.75,3.75 L12.75,20.25 L14,20.25 C14.4142136,20.25 14.75,20.5857864 14.75,21 C14.75,21.3796958 14.4678461,21.693491 14.1017706,21.7431534 L14,21.75 L10,21.75 Z M10.5,5 L10.5,6.5 L6,6.5 C4.6745166,6.5 3.58996133,7.53153594 3.50531768,8.83562431 L3.5,9 L3.5,15 C3.5,16.3254834 4.53153594,17.4100387 5.83562431,17.4946823 L6,17.5 L10.5,17.5 L10.5,19 L6,19 C3.790861,19 2,17.209139 2,15 L2,9 C2,6.790861 3.790861,5 6,5 L10.5,5 Z M18,5 C20.209139,5 22,6.790861 22,9 L22,15 C22,17.209139 20.209139,19 18,19 L13.5,19 L13.5,17.5 L18,17.5 C19.3254834,17.5 20.4100387,16.4684641 20.4946823,15.1643757 L20.5,15 L20.5,9 C20.5,7.6745166 19.4684641,6.58996133 18.1643757,6.50531768 L18,6.5 L13.5,6.5 L13.5,5 L18,5 Z" id="path-1"></path>
    </defs>
    <g id="ic_gallery_rename" stroke="none" stroke-width="1" fill="none" fill-rule="evenodd">
        <mask id="mask-2" fill="white">
            <use xlink:href="#path-1"></use>
        </mask>
        <use id="形状结合" fill="#000000" fill-rule="nonzero" xlink:href="#path-1"></use>
    </g>
</svg>