<?xml version="1.0" encoding="UTF-8"?>
<svg xmlns="http://www.w3.org/2000/svg" xmlns:xlink="http://www.w3.org/1999/xlink" width="24" height="24" viewBox="0 0 24 24" version="1.1">
    <title>ic_gallery_collage</title>
    <g id="_ic_gallery_collage" stroke="none" stroke-width="1" fill="none" fill-rule="evenodd">
        <path d="M8,12 C9.65685425,12 11,13.3431458 11,15 L11,19 C11,20.6568542 9.65685425,22 8,22 L5,22 C3.34314575,22 2,20.6568542 2,19 L2,15 C2,13.3431458 3.34314575,12 5,12 L8,12 Z M19,2 C20.6568542,2 22,3.34314575 22,5 L22,19 C22,20.6568542 20.6568542,22 19,22 L16,22 C14.3431458,22 13,20.6568542 13,19 L13,5 C13,3.34314575 14.3431458,2 16,2 L19,2 Z M8,13.5 L5,13.5 C4.22030388,13.5 3.57955132,14.0948881 3.50686658,14.85554 L3.5,15 L3.5,19 C3.5,19.7796961 4.09488808,20.4204487 4.85553999,20.4931334 L5,20.5 L8,20.5 C8.77969612,20.5 9.42044868,19.9051119 9.49313342,19.14446 L9.5,19 L9.5,15 C9.5,14.2203039 8.90511192,13.5795513 8.14446001,13.5068666 L8,13.5 Z M19,3.5 L16,3.5 C15.2203039,3.5 14.5795513,4.09488808 14.5068666,4.85553999 L14.5,5 L14.5,19 C14.5,19.7796961 15.0948881,20.4204487 15.85554,20.4931334 L16,20.5 L19,20.5 C19.7796961,20.5 20.4204487,19.9051119 20.4931334,19.14446 L20.5,19 L20.5,5 C20.5,4.22030388 19.9051119,3.57955132 19.14446,3.50686658 L19,3.5 Z M8,2 C9.65685425,2 11,3.34314575 11,5 L11,7 C11,8.65685425 9.65685425,10 8,10 L5,10 C3.34314575,10 2,8.65685425 2,7 L2,5 C2,3.34314575 3.34314575,2 5,2 L8,2 Z M8,3.5 L5,3.5 C4.22030388,3.5 3.57955132,4.09488808 3.50686658,4.85553999 L3.5,5 L3.5,7 C3.5,7.77969612 4.09488808,8.42044868 4.85553999,8.49313342 L5,8.5 L8,8.5 C8.77969612,8.5 9.42044868,7.90511192 9.49313342,7.14446001 L9.5,7 L9.5,5 C9.5,4.22030388 8.90511192,3.57955132 8.14446001,3.50686658 L8,3.5 Z" id="_形状结合" fill="#000000" fill-rule="nonzero"/>
    </g>
</svg>