<?xml version="1.0" encoding="UTF-8"?>
<svg width="24px" height="24px" viewBox="0 0 24 24" version="1.1" xmlns="http://www.w3.org/2000/svg" xmlns:xlink="http://www.w3.org/1999/xlink">
    <title>ic_gallery_set</title>
    <g id="ic_gallery_set" stroke="none" stroke-width="1" fill="none" fill-rule="evenodd">
        <path d="M10,2.25 C10.4142136,2.25 10.75,2.58578644 10.75,3 C10.75,3.37969577 10.4678461,3.69349096 10.1017706,3.74315338 L10,3.75 L6,3.75 C4.80913601,3.75 3.83435508,4.67516159 3.75519081,5.84595119 L3.75,6 L3.75,18 C3.75,19.190864 4.67516159,20.1656449 5.84595119,20.2448092 L6,20.25 L18,20.25 C19.190864,20.25 20.1656449,19.3248384 20.2448092,18.1540488 L20.25,18 L20.25,14 C20.25,13.5857864 20.5857864,13.25 21,13.25 C21.3796958,13.25 21.693491,13.5321539 21.7431534,13.8982294 L21.75,14 L21.75,18 C21.75,20.0042592 20.1776389,21.6412737 18.1991586,21.744802 L18,21.75 L6,21.75 C3.99574083,21.75 2.35872626,20.1776389 2.25519801,18.1991586 L2.25,18 L2.25,6 C2.25,3.99574083 3.82236105,2.35872626 5.80084143,2.25519801 L6,2.25 L10,2.25 Z M20,2.25 C20.9181734,2.25 21.6711923,2.95711027 21.7441988,3.85647279 L21.75,4 L21.75,9 C21.75,9.41421356 21.4142136,9.75 21,9.75 C20.6203042,9.75 20.306509,9.46784612 20.2568466,9.10177056 L20.25,9 L20.25,4.81 L11.5303301,13.5303301 C11.2374369,13.8232233 10.7625631,13.8232233 10.4696699,13.5303301 C10.2034034,13.2640635 10.1791973,12.8473998 10.3970518,12.5537883 L10.4696699,12.4696699 L19.188,3.75 L15,3.75 C14.5857864,3.75 14.25,3.41421356 14.25,3 C14.25,2.62030423 14.5321539,2.30650904 14.8982294,2.25684662 L15,2.25 L20,2.25 Z" id="形状结合" fill="#000000" fill-rule="nonzero"></path>
    </g>
</svg>