<?xml version="1.0" encoding="UTF-8"?>
<svg width="24px" height="24px" viewBox="0 0 24 24" version="1.1" xmlns="http://www.w3.org/2000/svg" xmlns:xlink="http://www.w3.org/1999/xlink">
    <title>ic_gallery_move_out</title>
    <g id="ic_gallery_move_out" stroke="none" stroke-width="1" fill="none" fill-rule="evenodd">
        <path d="M10.9984143,12 C11.4126279,12 11.7484143,12.3357864 11.7484143,12.75 L11.748,20.69 L13.7196699,18.7196699 C14.0125631,18.4267767 14.4874369,18.4267767 14.7803301,18.7196699 C15.0627628,19.0021027 15.0728497,19.4537494 14.8105907,19.7482689 L14.7803301,19.7803301 L12.2374369,22.3232233 C11.5682572,22.992403 10.4919646,23.0063442 9.80582194,22.365047 L9.76256313,22.3232233 L7.21966991,19.7803301 C6.9267767,19.4874369 6.9267767,19.0125631 7.21966991,18.7196699 C7.50210266,18.4372372 7.95374943,18.4271503 8.2482689,18.6894093 L8.28033009,18.7196699 L10.248,20.687 L10.2484143,12.75 C10.2484143,12.3357864 10.5842008,12 10.9984143,12 Z M16.0132009,5.06756757 L16.2245442,5.06864828 L16.4235832,5.07188219 L16.610921,5.07725701 L16.7871609,5.08476043 L16.952906,5.09438012 L17.1087593,5.10610379 C17.436161,5.13377548 17.6981555,5.17617598 17.9223487,5.23274189 L18.0232389,5.25985301 C18.0396401,5.26453848 18.0558427,5.26930726 18.0718594,5.27415909 L18.1658281,5.30426462 L18.2559364,5.33635102 L18.3427875,5.370406 L18.4269844,5.40641724 C18.4408295,5.41258145 18.4545892,5.41882666 18.468276,5.42515261 L18.5496226,5.46407517 L18.5898283,5.48425928 L18.6696816,5.52606546 C18.6829536,5.53319242 18.6962156,5.54039883 18.70948,5.54768445 C19.2798504,5.86096612 19.7274804,6.32069423 20.0325178,6.90648002 L20.0741537,6.98829002 C20.0809381,7.0019543 20.0876449,7.01564183 20.0942739,7.0293655 L20.133111,7.11224457 L20.1518251,7.15420301 L20.1878366,7.23954487 L20.205131,7.28308314 L20.2382898,7.37228151 L20.2695318,7.46482519 L20.2988451,7.56133361 L20.3127747,7.61126816 L20.3391724,7.71488512 C20.390013,7.92742588 20.4291013,8.17304656 20.4560058,8.47404676 L20.4684408,8.62926507 L20.4788331,8.79433272 C20.4803943,8.82269919 20.4818699,8.85150186 20.4832596,8.88075363 L20.4905655,9.06175676 L20.4957989,9.25415783 L20.4989477,9.45857626 L20.5,9.67563151 L20.5,16.8919361 L20.4989477,17.1089913 L20.4957989,17.3134097 L20.4905655,17.5058108 L20.4832596,17.6868139 L20.473893,17.8570386 L20.4624779,18.0171041 C20.4355344,18.3533545 20.3942497,18.62243 20.3391724,18.8526824 L20.3127747,18.9562994 L20.2988451,19.006234 L20.2695318,19.1027424 L20.2382898,19.1952861 L20.205131,19.2844844 L20.1700674,19.3709569 C20.1640654,19.3851763 20.1579846,19.3993078 20.1518251,19.4133646 L20.1139268,19.4969097 C20.1074539,19.5107186 20.1009028,19.5244784 20.0942739,19.5382021 L20.0535678,19.6202136 C20.0466284,19.6338443 20.0396117,19.6474646 20.0325178,19.6610875 C19.7274804,20.2468733 19.2798504,20.7066014 18.70948,21.0198831 L18.6298229,21.0626443 L18.6098473,21.0730362 L18.5091303,21.1231951 C18.4955767,21.1296823 18.4819628,21.136089 18.468276,21.142415 L18.38518,21.1793997 C18.3711514,21.1854017 18.3570247,21.1913224 18.3427875,21.1971616 L18.2559364,21.2312165 L18.1658281,21.263303 L18.0718594,21.2934085 L18.0232389,21.3077146 L17.9223487,21.3348257 C17.7154011,21.3870404 17.4762441,21.4271851 17.183165,21.4548168 L17.0320314,21.4675878 L16.8713076,21.4782611 L16.7871609,21.4828071 L16.610921,21.4903106 L16.4235832,21.4956854 L16.2245442,21.4989193 L16.0132009,21.5 L14.478,21.5 L16.019,19.959 L16.1110218,19.9592782 L16.2959116,19.9578034 L16.4671632,19.9547896 L16.6256139,19.9501701 L16.7721008,19.9438779 L16.9074611,19.9358462 L17.032532,19.9260081 L17.1481507,19.9142968 C17.1666793,19.9121851 17.184849,19.9099926 17.2026772,19.9077179 L17.3056874,19.8930714 L17.4013385,19.8763846 L17.4904676,19.8575906 C17.5766148,19.8377206 17.6542349,19.8145896 17.7270953,19.7878966 L17.7985086,19.7600051 L17.867586,19.7296721 L17.9351646,19.6968307 L18.0020817,19.6614141 C18.3110494,19.4917105 18.5445603,19.2518885 18.709798,18.9345704 L18.7442825,18.8658447 L18.7762597,18.7964396 L18.8057944,18.7254953 L18.8329519,18.6521519 C18.8589425,18.5773223 18.8814648,18.4976044 18.9008119,18.4091289 L18.9191113,18.3175909 L18.935359,18.2193546 L18.94962,18.1135603 C18.9518349,18.0952503 18.9539697,18.0765896 18.9560259,18.0575602 L18.9674289,17.9388166 L18.9770081,17.8103654 L18.9848284,17.6713467 L18.9909551,17.5209008 L18.995453,17.3581676 L18.9983875,17.1822876 L18.9998235,16.9924007 L18.9998235,9.57516684 L18.9983875,9.38527999 L18.995453,9.20939992 L18.9909551,9.04666682 L18.9848284,8.89622084 L18.9770081,8.75720216 L18.9674289,8.62875094 L18.9560259,8.51000736 C18.9539697,8.49097797 18.9518349,8.47231723 18.94962,8.45400724 L18.935359,8.34821293 L18.9191113,8.24997668 L18.9008119,8.15843866 C18.8814648,8.06996315 18.8589425,7.99024523 18.8329519,7.91541567 L18.8057944,7.84207227 L18.7762597,7.77112793 L18.7442825,7.70172285 L18.709798,7.63299718 C18.5445603,7.31567904 18.3110494,7.07585703 18.0020817,6.90615343 L17.9351646,6.87073684 L17.867586,6.83789547 L17.7985086,6.80756248 L17.7270953,6.77967099 C17.6542349,6.75297797 17.5766148,6.72984693 17.4904676,6.709977 L17.4013385,6.69118297 L17.3056874,6.67449616 L17.2026772,6.65984971 L17.1481507,6.65327073 L17.032532,6.64155946 L16.9074611,6.63172141 L16.7721008,6.62368971 L16.6256139,6.61739751 L16.4671632,6.61277796 L16.2959116,6.60976418 L16.1110218,6.60828933 L5.38897824,6.60828933 L5.19886103,6.60983053 L4.94044884,6.61522674 L4.78468461,6.62098685 L4.64106334,6.62856215 L4.50867177,6.63802558 C4.48749158,6.63976421 4.46674125,6.64158456 4.44640173,6.64348813 L4.32914234,6.65592051 C4.2915977,6.66040566 4.25554415,6.66523588 4.22082948,6.67042334 L4.12054988,6.68706956 L4.02739027,6.70593211 L3.94043739,6.72708392 L3.85877796,6.75059792 C3.80589988,6.76707753 3.75594193,6.78518055 3.70768641,6.80500423 L3.63642775,6.8360424 L3.56680947,6.86973449 L3.49791831,6.90615343 C3.18895065,7.07585703 2.95543974,7.31567904 2.79020203,7.63299718 L2.75571745,7.70172285 L2.72374033,7.77112793 L2.69420557,7.84207227 L2.66704807,7.91541567 C2.6410575,7.99024523 2.61853517,8.06996315 2.59918813,8.15843866 L2.58088868,8.24997668 L2.564641,8.34821293 L2.55037998,8.45400724 C2.54816509,8.47231723 2.54603025,8.49097797 2.54397413,8.51000736 L2.53257105,8.62875094 L2.5229919,8.75720216 L2.51517156,8.89622084 L2.50904495,9.04666682 L2.50454696,9.20939992 L2.50161249,9.38527999 L2.50017645,9.57516684 L2.50017645,16.9924007 L2.50161249,17.1822876 L2.50454696,17.3581676 L2.50904495,17.5209008 L2.51517156,17.6713467 L2.5229919,17.8103654 L2.53257105,17.9388166 L2.54397413,18.0575602 C2.54603025,18.0765896 2.54816509,18.0952503 2.55037998,18.1135603 L2.564641,18.2193546 L2.58088868,18.3175909 L2.59918813,18.4091289 C2.61853517,18.4976044 2.6410575,18.5773223 2.66704807,18.6521519 L2.69420557,18.7254953 L2.72374033,18.7964396 L2.75571745,18.8658447 L2.79020203,18.9345704 C2.95543974,19.2518885 3.18895065,19.4917105 3.49791831,19.6614141 L3.56483541,19.6968307 L3.63241404,19.7296721 L3.70149142,19.7600051 L3.77290473,19.7878966 C3.84576509,19.8145896 3.92338517,19.8377206 4.00953238,19.8575906 L4.09866151,19.8763846 L4.19431259,19.8930714 L4.29732284,19.9077179 C4.31515099,19.9099926 4.33332065,19.9121851 4.35184927,19.9142968 L4.46746802,19.9260081 L4.59253894,19.9358462 L4.72789924,19.9438779 L4.87438611,19.9501701 L5.03283677,19.9547896 L5.20408841,19.9578034 L5.38897824,19.9592782 L5.98,19.959 L7.521,21.5 L5.4867991,21.5 L5.27545584,21.4989193 L5.07641683,21.4956854 L4.88907895,21.4903106 L4.71283906,21.4828071 L4.54709404,21.4731874 L4.39124074,21.4614638 C4.06383903,21.4337921 3.80184451,21.3913916 3.5776513,21.3348257 L3.47676111,21.3077146 L3.42814062,21.2934085 L3.3341719,21.263303 L3.24406358,21.2312165 L3.15721253,21.1971616 L3.07301562,21.1611503 C3.05917047,21.1549861 3.04541078,21.1487409 3.03172398,21.142415 L2.9503774,21.1034924 L2.91017167,21.0833083 L2.83031837,21.0415021 L2.79052002,21.0198831 C2.22014965,20.7066014 1.77251964,20.2468733 1.46748223,19.6610875 L1.42584629,19.5792775 C1.41906187,19.5656133 1.41235507,19.5519257 1.40572614,19.5382021 L1.36688895,19.455323 L1.34817491,19.4133646 L1.31216344,19.3280227 L1.294869,19.2844844 L1.2617102,19.1952861 L1.23046818,19.1027424 L1.20115491,19.006234 L1.1872253,18.9562994 L1.16082763,18.8526824 C1.10998702,18.6401417 1.07089871,18.394521 1.04399417,18.0935208 L1.03155921,17.9383025 L1.02116686,17.7732348 C1.01960569,17.7448684 1.01813012,17.7160657 1.01674041,17.6868139 L1.00943446,17.5058108 L1.00420108,17.3134097 L1.00105227,17.1089913 L1,16.8919361 L1.00026332,9.56548557 L1.00236536,9.35482616 L1.00420108,9.25415783 L1.00943446,9.06175676 L1.01674041,8.88075363 L1.02610696,8.71052901 L1.03752211,8.55046346 C1.0644656,8.21421306 1.1057503,7.94513761 1.16082763,7.71488512 L1.1872253,7.61126816 L1.20115491,7.56133361 L1.23046818,7.46482519 L1.2617102,7.37228151 L1.294869,7.28308314 L1.32993257,7.19661063 C1.33593457,7.18239129 1.34201543,7.16825972 1.34817491,7.15420301 L1.38607319,7.07065787 L1.39584117,7.04997973 L1.44643216,6.947354 C1.45337156,6.9337233 1.46038834,6.92010294 1.46748223,6.90648002 C1.77251964,6.32069423 2.22014965,5.86096612 2.79052002,5.54768445 L2.87017712,5.50492322 L2.99086971,5.44437244 C3.00442328,5.43788526 3.01803719,5.43147856 3.03172398,5.42515261 L3.11482,5.38816785 C3.12884863,5.38216589 3.14297529,5.37624519 3.15721253,5.370406 L3.24406358,5.33635102 L3.3341719,5.30426462 L3.42814062,5.27415909 C3.44415728,5.26930726 3.46035992,5.26453848 3.47676111,5.25985301 L3.5776513,5.23274189 C3.78459888,5.18052721 4.02375586,5.14038246 4.31683501,5.11275077 L4.46796862,5.09997973 L4.62869239,5.08930651 C4.65631237,5.08770314 4.68435707,5.08618769 4.71283906,5.08476043 L4.88907895,5.07725701 L5.07641683,5.07188219 L5.27545584,5.06864828 L5.4867991,5.06756757 L16.0132009,5.06756757 Z M16.7126566,2.50024502 L16.9488443,2.50220182 L17.1739926,2.50610692 L17.3885365,2.51195144 L17.592911,2.51972649 L17.7875512,2.5294232 L17.9728921,2.54103269 L18.1493689,2.55454609 L18.3174165,2.5699545 L18.47747,2.58724907 L18.6299644,2.60642089 C18.6795844,2.61312339 18.728017,2.62013729 18.7753348,2.6274611 L18.9140163,2.65036082 L18.9809847,2.66250522 L19.1104484,2.68817755 C19.1315468,2.69260963 19.1524119,2.69711826 19.1730526,2.70170327 L19.2942775,2.73012824 C19.3140572,2.73501798 19.3336307,2.73998372 19.353007,2.74502527 L19.4669719,2.7761829 L19.5223161,2.79244127 L19.6299999,2.82631158 L19.7340401,2.86197925 L19.8348717,2.89943539 L19.9329298,2.93867113 C19.9490659,2.94535823 19.9651045,2.95211911 19.9810548,2.95895358 L20.0757683,3.00084207 L20.168796,3.04448796 L20.2605729,3.08988238 L20.4421143,3.18588127 C21.2569291,3.6334265 21.8964005,4.29018095 22.3321682,5.12701779 L22.3797471,5.22004624 L22.4256408,5.31346571 L22.4698407,5.40772301 L22.512338,5.50326496 L22.5531241,5.60053836 L22.5921905,5.69999001 C22.6112923,5.75033487 22.6297459,5.80166412 22.6475465,5.85422911 L22.6822756,5.96108118 L22.7152546,6.07167534 L22.7464748,6.18645839 C22.7565875,6.22546721 22.7664056,6.26524863 22.7759278,6.30587715 L22.8036047,6.4303784 C22.8080691,6.45157698 22.812459,6.47300594 22.8167745,6.4946746 L22.8417712,6.62763738 C22.8457878,6.65030206 22.8497295,6.67322505 22.853596,6.69641567 L22.8758931,6.83884529 C22.8794587,6.86314363 22.8829488,6.88772821 22.8863633,6.91260833 L22.9059413,7.06551012 C22.9090525,7.09160967 22.9120878,7.11802338 22.915047,7.14476057 L22.9318864,7.30913983 L22.9468893,7.48172925 L22.9600471,7.66297565 L22.9713511,7.85332582 L22.9807926,8.05322657 L22.9883631,8.26312472 L22.9940538,8.48346707 L22.9978561,8.71470042 L22.9997614,8.95727159 L23,13.6660736 L22.9989932,13.8935972 L22.9959799,14.108982 L22.9909705,14.3127699 L22.9839756,14.5055033 L22.9750056,14.6877241 L22.964071,14.8599746 L22.9511823,15.0227968 C22.9465615,15.0755597 22.9416169,15.1268416 22.93635,15.1767329 L22.9195846,15.3223249 L22.9008965,15.4601151 C22.8812506,15.5941851 22.8587365,15.7173654 22.8334014,15.8320956 L22.8071277,15.9440995 L22.7932889,15.9981583 L22.7642139,16.1027286 L22.7332844,16.2030207 L22.700511,16.299577 L22.6659041,16.3929394 L22.6479163,16.4385923 L22.6105789,16.5281804 L22.5714342,16.61593 L22.5304927,16.7023832 L22.487765,16.7880822 L22.4657346,16.8308182 C22.2201441,17.3024437 21.8936771,17.7025712 21.4942661,18.0230539 C21.4960887,17.9505884 21.497533,17.8756872 21.4985008,17.7985782 L21.5,17.5502309 L21.5,9.01733666 L21.4985008,8.76898935 L21.4984144,8.74192331 L21.4955434,8.52963215 L21.4911629,8.32874285 L21.4852228,8.13870228 L21.477673,7.95895731 L21.4732788,7.87277283 L21.4632206,7.70743416 C21.4614011,7.68063582 21.4595092,7.65420884 21.4575441,7.6281417 L21.4448649,7.47596481 L21.4303757,7.33187102 L21.4140266,7.19530722 L21.3957674,7.06572029 L21.375548,6.94255708 L21.3533185,6.8252645 L21.3290287,6.71328939 C21.324806,6.69503927 21.3204953,6.67698767 21.3160956,6.65912305 L21.2886216,6.55408707 C21.2838618,6.53692433 21.279011,6.51992554 21.2740681,6.50307916 L21.2432972,6.40373778 C21.2273508,6.35488943 21.2105567,6.30720545 21.1928867,6.26037471 L21.1563706,6.1677587 L21.1174688,6.07686487 C21.1107836,6.06182868 21.1039969,6.04684121 21.0971076,6.03189092 L21.0545335,5.94254325 L21.0094484,5.85353495 C20.7134804,5.28516576 20.2881281,4.84831742 19.734716,4.54435025 L19.64805,4.49804672 L19.5610536,4.4543219 L19.4731882,4.41312436 C19.4584416,4.40646585 19.4436364,4.3999105 19.4287613,4.39345725 L19.3385825,4.35595422 C19.2929842,4.33780668 19.246555,4.32055866 19.1989922,4.30418125 L19.102265,4.27257866 C19.085862,4.26750217 19.0693105,4.26252028 19.0525994,4.2576319 L18.9503276,4.22941532 C18.9329331,4.22489674 18.9153565,4.22046954 18.8975866,4.21613265 L18.7885583,4.19118638 L18.6743523,4.16835606 L18.5544302,4.14759026 L18.4282535,4.12883756 L18.2952835,4.11204655 L18.1549816,4.09716581 L18.0068094,4.08414391 L17.8502282,4.07292945 C17.8234007,4.07120813 17.7962003,4.06955999 17.7686159,4.06798394 L17.5984115,4.05938421 L17.4184516,4.05246338 L17.2281978,4.04717001 L17.0271115,4.04345269 L16.894733,4.04206378 C16.8560284,4.04155436 16.8167527,4.04117489 16.7768869,4.04092211 L4.8458278,4.04054054 C4.6827364,4.04054054 4.52925026,4.04248559 4.38417877,4.04657982 C4.67638696,3.66396601 5.03476921,3.34660895 5.4541436,3.10098908 L5.58791999,3.02607916 L5.67136368,2.98219664 L5.7555418,2.94014866 L5.84098221,2.899946 L5.92821276,2.86159943 L5.97266429,2.84312555 L6.06356978,2.80758332 L6.15758506,2.77392411 L6.25523798,2.7421587 L6.35705641,2.71229786 L6.40969263,2.69808502 L6.51874904,2.67110123 C6.63046004,2.6450814 6.75039875,2.62195882 6.88094054,2.60178197 L7.01510466,2.58258883 L7.15686536,2.56537028 L7.23075937,2.55750485 L7.38490466,2.54326839 L7.54796616,2.53103346 L7.63300545,2.52566993 L7.81043101,2.51645748 L7.99809242,2.50927349 L8.19651756,2.50412873 L8.40623426,2.50103398 L8.6277704,2.5 L16.7126566,2.50024502 Z" id="形状结合" fill="#000000" fill-rule="nonzero"></path>
    </g>
</svg>