<?xml version="1.0" encoding="UTF-8"?>
<svg xmlns="http://www.w3.org/2000/svg" xmlns:xlink="http://www.w3.org/1999/xlink" width="24" height="24" viewBox="0 0 24 24" version="1.1">
    <title>ic_gallery_rectify</title>
    <defs>
        <path d="M15,13.25 C15.4142136,13.25 15.75,13.5857864 15.75,14 C15.75,14.3796958 15.4678461,14.693491 15.1017706,14.7431534 L15,14.75 L9,14.75 C8.58578644,14.75 8.25,14.4142136 8.25,14 C8.25,13.6203042 8.53215388,13.306509 8.89822944,13.2568466 L9,13.25 L15,13.25 Z M22,16.25 C22.3796958,16.25 22.693491,16.5321539 22.7431534,16.8982294 L22.75,17 L22.75,18 C22.75,20.5504817 20.7398587,22.6314697 18.217428,22.7451121 L18,22.75 L17,22.75 C16.5857864,22.75 16.25,22.4142136 16.25,22 C16.25,21.6203042 16.5321539,21.306509 16.8982294,21.2568466 L17,21.25 L18,21.25 C19.7330315,21.25 21.1492459,19.8935452 21.2448552,18.1844239 L21.25,18 L21.25,17 C21.25,16.5857864 21.5857864,16.25 22,16.25 Z M17,4 C18.6568542,4 20,5.34314575 20,7 L20,17 C20,18.6568542 18.6568542,20 17,20 L7,20 C5.34314575,20 4,18.6568542 4,17 L4,7 C4,5.34314575 5.34314575,4 7,4 L17,4 Z M17,5.5 L7,5.5 C6.22030388,5.5 5.57955132,6.09488808 5.50686658,6.85553999 L5.5,7 L5.5,17 C5.5,17.7796961 6.09488808,18.4204487 6.85553999,18.4931334 L7,18.5 L17,18.5 C17.7796961,18.5 18.4204487,17.9051119 18.4931334,17.14446 L18.5,17 L18.5,7 C18.5,6.22030388 17.9051119,5.57955132 17.14446,5.50686658 L17,5.5 Z M15,9.25 C15.4142136,9.25 15.75,9.58578644 15.75,10 C15.75,10.3796958 15.4678461,10.693491 15.1017706,10.7431534 L15,10.75 L9,10.75 C8.58578644,10.75 8.25,10.4142136 8.25,10 C8.25,9.62030423 8.53215388,9.30650904 8.89822944,9.25684662 L9,9.25 L15,9.25 Z M7,1.25 C7.41421356,1.25 7.75,1.58578644 7.75,2 C7.75,2.37969577 7.46784612,2.69349096 7.10177056,2.74315338 L7,2.75 L6,2.75 C4.26696854,2.75 2.85075407,4.10645477 2.75514479,5.81557609 L2.75,6 L2.75,7 C2.75,7.41421356 2.41421356,7.75 2,7.75 C1.62030423,7.75 1.30650904,7.46784612 1.25684662,7.10177056 L1.25,7 L1.25,6 C1.25,3.44951834 3.26014129,1.36853034 5.782572,1.25488786 L6,1.25 L7,1.25 Z" id="_path-1"/>
    </defs>
    <g id="_ic_gallery_rectify" stroke="none" stroke-width="1" fill="none" fill-rule="evenodd">
        <mask id="_mask-2" fill="white">
            <use xlink:href="#_path-1"/>
        </mask>
        <use id="_形状结合" fill="#000000" fill-rule="nonzero" xlink:href="#_path-1"/>
    </g>
</svg>