<?xml version="1.0" encoding="UTF-8"?>
<svg xmlns="http://www.w3.org/2000/svg" xmlns:xlink="http://www.w3.org/1999/xlink" width="24" height="24" viewBox="0 0 24 24" version="1.1">
    <title>ic_gallery_sort_order</title>
    <defs>
        <path d="M5.56079777,13.7499686 L11.5303301,19.7196699 L11.5640714,19.7556673 C11.8227547,20.0502619 11.8115076,20.4991526 11.5303301,20.7803301 C11.2491526,21.0615076 10.8002619,21.0727547 10.5056673,20.8140714 L10.4696699,20.7803301 L3.43929777,13.7499686 L5.56079777,13.7499686 Z M11.5303301,3.21966991 C11.8115076,3.5008474 11.8227547,3.94973814 11.5640714,4.24433269 L11.5303301,4.28033009 L4.5605,11.25 L21.25,11.25 C21.6494202,11.25 21.9759152,11.56223 21.9987268,11.9559318 L22,12 C22,12.3994202 21.68777,12.7259152 21.2940682,12.7487268 L21.25,12.75 L2.75,12.75 C2.09603793,12.75 1.76158663,11.9761547 2.19060357,11.5002723 L2.21966991,11.4696699 L10.4696699,3.21966991 C10.7625631,2.9267767 11.2374369,2.9267767 11.5303301,3.21966991 Z" id="_path-1"/>
    </defs>
    <g id="_ic_gallery_sort_order" stroke="none" stroke-width="1" fill="none" fill-rule="evenodd">
        <mask id="_mask-2" fill="white">
            <use xlink:href="#_path-1"/>
        </mask>
        <use id="_形状结合" fill="#000000" fill-rule="nonzero" transform="translate(11.999248, 12.000000) scale(-1, -1) rotate(90.000000) translate(-11.999248, -12.000000) " xlink:href="#_path-1"/>
    </g>
</svg>