<?xml version="1.0" encoding="UTF-8"?>
<svg width="24px" height="24px" viewBox="0 0 24 24" version="1.1" xmlns="http://www.w3.org/2000/svg" xmlns:xlink="http://www.w3.org/1999/xlink">
    <title>ic_gallery_material_select_checkbo</title>
    <g id="ic_gallery_material_select_checkbo" stroke="none" stroke-width="1" fill="none" fill-rule="evenodd">
        <path d="M18,2 C20.209139,2 22,3.790861 22,6 L22,18 C22,20.209139 20.209139,22 18,22 L6,22 C3.790861,22 2,20.209139 2,18 L2,6 C2,3.790861 3.790861,2 6,2 L18,2 Z M18,3.5 L6,3.5 C4.6745166,3.5 3.58996133,4.53153594 3.50531768,5.83562431 L3.5,6 L3.5,18 C3.5,19.3254834 4.53153594,20.4100387 5.83562431,20.4946823 L6,20.5 L18,20.5 C19.3254834,20.5 20.4100387,19.4684641 20.4946823,18.1643757 L20.5,18 L20.5,6 C20.5,4.6745166 19.4684641,3.58996133 18.1643757,3.50531768 L18,3.5 Z M17.5303301,8.46966991 C17.7965966,8.73593648 17.8208027,9.15260016 17.6029482,9.44621165 L17.5303301,9.53033009 L11.7374369,15.3232233 C11.0942204,15.9664398 10.0748689,16.004276 9.3874012,15.4367321 L9.26256313,15.3232233 L6.96966991,13.0303301 C6.6767767,12.7374369 6.6767767,12.2625631 6.96966991,11.9696699 C7.23593648,11.7034034 7.65260016,11.6791973 7.94621165,11.8970518 L8.03033009,11.9696699 L10.3232233,14.2625631 C10.4045825,14.3439224 10.5280669,14.3574822 10.6234678,14.3032427 L10.6767767,14.2625631 L16.4696699,8.46966991 C16.7625631,8.1767767 17.2374369,8.1767767 17.5303301,8.46966991 Z" id="形状结合" fill="#000000" fill-rule="nonzero"></path>
    </g>
</svg>