<?xml version="1.0" encoding="UTF-8"?>
<svg width="24px" height="24px" viewBox="0 0 24 24" version="1.1" xmlns="http://www.w3.org/2000/svg" xmlns:xlink="http://www.w3.org/1999/xlink">
    <title>ic_gallery_create</title>
    <defs>
        <path d="M14.5,21.5 C14.9142136,21.5 15.25,21.8357864 15.25,22.25 C15.25,22.6296958 14.9678461,22.943491 14.6017706,22.9931534 L14.5,23 L9.5,23 C9.08578644,23 8.75,22.6642136 8.75,22.25 C8.75,21.8703042 9.03215388,21.556509 9.39822944,21.5068466 L9.5,21.5 L14.5,21.5 Z M15.5,19 C15.9142136,19 16.25,19.3357864 16.25,19.75 C16.25,20.1296958 15.9678461,20.443491 15.6017706,20.4931534 L15.5,20.5 L8.5,20.5 C8.08578644,20.5 7.75,20.1642136 7.75,19.75 C7.75,19.3703042 8.03215388,19.056509 8.39822944,19.0068466 L8.5,19 L15.5,19 Z M6.51992245,6.51992245 C9.54648571,3.49335918 14.4535143,3.49335918 17.4800776,6.51992245 C20.5066408,9.54648571 20.5066408,14.4535143 17.4800776,17.4800776 C17.3394253,17.6207298 17.1486598,17.6997475 16.9497475,17.6997475 L16.9497475,17.6997475 L7.05025253,17.6997475 C6.85134016,17.6997475 6.66057473,17.6207298 6.51992245,17.4800776 C3.49335918,14.4535143 3.49335918,9.54648571 6.51992245,6.51992245 Z M16.4194174,7.58058262 C13.9786406,5.13980579 10.0213594,5.13980579 7.58058262,7.58058262 C5.24828476,9.91288047 5.14462708,13.6298778 7.26960957,16.0852601 L7.26960957,16.0852601 L7.37198612,16.1995072 L16.6265997,16.1995072 L16.7303904,16.0852601 C18.8059547,13.6869797 18.7553312,10.0850817 16.5785199,7.74551446 L16.5785199,7.74551446 Z M23,11.25 C23.4142136,11.25 23.75,11.5857864 23.75,12 C23.75,12.3796958 23.4678461,12.693491 23.1017706,12.7431534 L23,12.75 L22,12.75 C21.5857864,12.75 21.25,12.4142136 21.25,12 C21.25,11.6203042 21.5321539,11.306509 21.8982294,11.2568466 L22,11.25 L23,11.25 Z M2,11.25 C2.41421356,11.25 2.75,11.5857864 2.75,12 C2.75,12.3796958 2.46784612,12.693491 2.10177056,12.7431534 L2,12.75 L1,12.75 C0.585786438,12.75 0.25,12.4142136 0.25,12 C0.25,11.6203042 0.532153882,11.306509 0.898229443,11.2568466 L1,11.25 L2,11.25 Z M20.3085047,3.69149532 C20.5769901,3.95998077 20.5993639,4.38138041 20.375626,4.67535155 L20.3085047,4.75215549 L19.6013979,5.45926227 C19.3085047,5.75215549 18.8336309,5.75215549 18.5407377,5.45926227 C18.2722523,5.19077682 18.2498785,4.76937719 18.4736164,4.47540604 L18.5407377,4.3986021 L19.2478445,3.69149532 C19.5407377,3.3986021 20.0156115,3.3986021 20.3085047,3.69149532 Z M4.67535155,3.62437396 L4.75215549,3.69149532 L5.45926227,4.3986021 C5.75215549,4.69149532 5.75215549,5.16636906 5.45926227,5.45926227 C5.19077682,5.72774772 4.76937719,5.75012151 4.47540604,5.52638364 L4.3986021,5.45926227 L3.69149532,4.75215549 C3.3986021,4.45926227 3.3986021,3.98438854 3.69149532,3.69149532 C3.95998077,3.42300987 4.38138041,3.40063608 4.67535155,3.62437396 Z M12,0.25 C12.3796958,0.25 12.693491,0.532153882 12.7431534,0.898229443 L12.75,1 L12.75,2 C12.75,2.41421356 12.4142136,2.75 12,2.75 C11.6203042,2.75 11.306509,2.46784612 11.2568466,2.10177056 L11.25,2 L11.25,1 C11.25,0.585786438 11.5857864,0.25 12,0.25 Z" id="path-1"></path>
    </defs>
    <g id="ic_gallery_create" stroke="none" stroke-width="1" fill="none" fill-rule="evenodd">
        <mask id="mask-2" fill="white">
            <use xlink:href="#path-1"></use>
        </mask>
        <use id="形状结合" fill="#000000" fill-rule="nonzero" xlink:href="#path-1"></use>
    </g>
</svg>