<?xml version="1.0" encoding="UTF-8"?>
<svg xmlns="http://www.w3.org/2000/svg" xmlns:xlink="http://www.w3.org/1999/xlink" width="24" height="24" viewBox="0 0 24 24" version="1.1">
    <title>ic_gallery_sort_reverse</title>
    <defs>
        <path d="M5.56230134,13.7499686 L11.5318337,19.7196699 L11.565575,19.7556673 C11.8242582,20.0502619 11.8130111,20.4991526 11.5318337,20.7803301 C11.2506562,21.0615076 10.8017654,21.0727547 10.5071709,20.8140714 L10.4711735,20.7803301 L3.44080134,13.7499686 L5.56230134,13.7499686 Z M11.5318337,3.21966991 C11.8130111,3.5008474 11.8242582,3.94973814 11.565575,4.24433269 L11.5318337,4.28033009 L4.56200357,11.25 L21.2515036,11.25 C21.6509238,11.25 21.9774188,11.56223 22.0002304,11.9559318 L22.0015036,12 C22.0015036,12.3994202 21.6892736,12.7259152 21.2955718,12.7487268 L21.2515036,12.75 L2.75150357,12.75 C2.09754149,12.75 1.7630902,11.9761547 2.19210713,11.5002723 L2.22117348,11.4696699 L10.4711735,3.21966991 C10.7640667,2.9267767 11.2389404,2.9267767 11.5318337,3.21966991 Z" id="_path-1"/>
    </defs>
    <g id="_ic_gallery_sort_reverse" stroke="none" stroke-width="1" fill="none" fill-rule="evenodd">
        <mask id="_mask-2" fill="white">
            <use xlink:href="#_path-1"/>
        </mask>
        <use id="_形状结合" fill="#000000" fill-rule="nonzero" transform="translate(12.000752, 12.000000) scale(-1, 1) rotate(90.000000) translate(-12.000752, -12.000000) " xlink:href="#_path-1"/>
    </g>
</svg>