<?xml version="1.0" encoding="UTF-8"?>
<svg width="24px" height="24px" viewBox="0 0 24 24" version="1.1" xmlns="http://www.w3.org/2000/svg" xmlns:xlink="http://www.w3.org/1999/xlink">
    <title>ic_gallery_photoedit_more</title>
    <defs>
        <path d="M19,13 C20.6568542,13 22,14.3431458 22,16 L22,19 C22,20.6568542 20.6568542,22 19,22 L16,22 C14.3431458,22 13,20.6568542 13,19 L13,16 C13,14.3431458 14.3431458,13 16,13 L19,13 Z M8,13 C9.65685425,13 11,14.3431458 11,16 L11,19 C11,20.6568542 9.65685425,22 8,22 L5,22 C3.34314575,22 2,20.6568542 2,19 L2,16 C2,14.3431458 3.34314575,13 5,13 L8,13 Z M19,14.5 L16,14.5 C15.2203039,14.5 14.5795513,15.0948881 14.5068666,15.85554 L14.5,16 L14.5,19 C14.5,19.7796961 15.0948881,20.4204487 15.85554,20.4931334 L16,20.5 L19,20.5 C19.7796961,20.5 20.4204487,19.9051119 20.4931334,19.14446 L20.5,19 L20.5,16 C20.5,15.2203039 19.9051119,14.5795513 19.14446,14.5068666 L19,14.5 Z M8,14.5 L5,14.5 C4.22030388,14.5 3.57955132,15.0948881 3.50686658,15.85554 L3.5,16 L3.5,19 C3.5,19.7796961 4.09488808,20.4204487 4.85553999,20.4931334 L5,20.5 L8,20.5 C8.77969612,20.5 9.42044868,19.9051119 9.49313342,19.14446 L9.5,19 L9.5,16 C9.5,15.2203039 8.90511192,14.5795513 8.14446001,14.5068666 L8,14.5 Z M19.6213203,2.25735931 L21.7426407,4.37867966 C22.9142136,5.55025253 22.9142136,7.44974747 21.7426407,8.62132034 L19.6213203,10.7426407 C18.4497475,11.9142136 16.5502525,11.9142136 15.3786797,10.7426407 L13.2573593,8.62132034 C12.0857864,7.44974747 12.0857864,5.55025253 13.2573593,4.37867966 L15.3786797,2.25735931 C16.5502525,1.08578644 18.4497475,1.08578644 19.6213203,2.25735931 Z M8,2 C9.65685425,2 11,3.34314575 11,5 L11,8 C11,9.65685425 9.65685425,11 8,11 L5,11 C3.34314575,11 2,9.65685425 2,8 L2,5 C2,3.34314575 3.34314575,2 5,2 L8,2 Z M16.5463439,3.22072624 L16.4393398,3.31801948 L14.3180195,5.43933983 C13.7666911,5.99066824 13.73426,6.86439812 14.2207262,7.45365611 L14.3180195,7.56066017 L16.4393398,9.68198052 C16.9906682,10.2333089 17.8643981,10.26574 18.4536561,9.77927376 L18.5606602,9.68198052 L20.6819805,7.56066017 C21.2333089,7.00933176 21.26574,6.13560188 20.7792738,5.54634389 L20.6819805,5.43933983 L18.5606602,3.31801948 C18.0093318,2.76669107 17.1356019,2.73425999 16.5463439,3.22072624 Z M8,3.5 L5,3.5 C4.22030388,3.5 3.57955132,4.09488808 3.50686658,4.85553999 L3.5,5 L3.5,8 C3.5,8.77969612 4.09488808,9.42044868 4.85553999,9.49313342 L5,9.5 L8,9.5 C8.77969612,9.5 9.42044868,8.90511192 9.49313342,8.14446001 L9.5,8 L9.5,5 C9.5,4.22030388 8.90511192,3.57955132 8.14446001,3.50686658 L8,3.5 Z" id="path-1"></path>
    </defs>
    <g id="ic_gallery_photoedit_more" stroke="none" stroke-width="1" fill="none" fill-rule="evenodd">
        <mask id="mask-2" fill="white">
            <use xlink:href="#path-1"></use>
        </mask>
        <use id="形状结合" fill="#000000" fill-rule="nonzero" xlink:href="#path-1"></use>
    </g>
</svg>