<?xml version="1.0" encoding="UTF-8"?>
<svg xmlns="http://www.w3.org/2000/svg" width="24" height="24" version="1.1" viewBox="0 0 24 24">
  <g fill="#000" fill-rule="evenodd" stroke="none" stroke-width="1">
    <rect width="1.5" height="10" x="11" y="2.25" rx=".75" transform="rotate(-90 11.75 7.25)"/>
    <path fill-rule="nonzero" d="M15.0543718,2.25 C19.2097549,2.25 22.5783586,5.61860363 22.5783586,9.7739868 C22.5783586,13.8478919 19.3405619,17.165569 15.2978791,17.2941077 L15.0543718,17.2979736 L13.879,17.297 L9.77261264,21.2879368 C9.50252691,21.5503286 9.08555699,21.5685123 8.79512366,21.3464385 L8.71206317,21.2726126 C8.44967136,21.0025269 8.4314877,20.585557 8.65356146,20.2951237 L8.72738736,20.2120632 L13.0526267,16.0100368 C13.1646094,15.9012441 13.3069894,15.8307993 13.4593841,15.806973 L13.5752393,15.7979736 L15.0543718,15.7979736 C18.3813278,15.7979736 21.0783586,13.1009428 21.0783586,9.7739868 C21.0783586,6.52264339 18.502527,3.87291768 15.2802093,3.75415502 L15.0543718,3.75 L8.7739868,3.75 C5.44703076,3.75 2.75,6.44703076 2.75,9.7739868 C2.75,13.0253302 5.32583154,15.6750559 8.54814928,15.7938186 L8.7739868,15.7979736 L9.25,15.7979736 C9.66421356,15.7979736 10,16.13376 10,16.5479736 C10,16.9276694 9.71784612,17.2414646 9.35177056,17.291127 L9.25,17.2979736 L8.7739868,17.2979736 C4.61860363,17.2979736 1.25,13.92937 1.25,9.7739868 C1.25,5.70008173 4.48779665,2.38240459 8.53047943,2.25386589 L8.7739868,2.25 L15.0543718,2.25 Z"/>
  </g>
</svg>