<?xml version="1.0" encoding="UTF-8"?>
<svg xmlns="http://www.w3.org/2000/svg" width="24" height="24" version="1.1" viewBox="0 0 24 24">
  <g fill="#000" fill-rule="evenodd" stroke="none" stroke-width="1">
    <path d="M13.25,4 C13.6642136,4 14,4.33578644 14,4.75 C14,5.16421356 13.6642136,5.5 13.25,5.5 L13.25,5.5 L5.06756757,5.5 C3.67357354,5.5 2.53904456,6.5816677 2.50098641,7.93002379 L2.5,18 C2.5,19.35731 3.61090196,20.4619829 4.99570011,20.4990396 L5.06756757,20.5 L18.9324324,20.5 C20.3264265,20.5 21.4609554,19.4183323 21.4990136,18.0699762 L21.5,18 L21.5,13 L21.5068466,12.8982294 C21.556509,12.5321539 21.8703042,12.25 22.25,12.25 C22.6642136,12.25 23,12.5857864 23,13 L23,13 L23,18 C23,20.209139 21.209139,22 19,22 L5,22 C2.790861,22 1,20.209139 1,18 L1,8 C1,5.790861 2.790861,4 5,4 Z"/>
    <path fill-rule="nonzero" d="M16.6730926,3 C16.7844618,3 16.8969377,3.03185975 16.9954682,3.10184197 L17.0665162,3.16157444 L22.836729,8.28359813 C23.040214,8.48528172 23.0546251,8.82066248 22.873045,9.04026718 L22.836729,9.08407434 L17.0665162,14.206098 C16.953533,14.3176071 16.8131687,14.3671035 16.6739573,14.3671035 C16.4070345,14.3671035 16.1454813,14.1839242 16.0958399,13.9030031 L16.0874247,13.8058599 L16.0874247,11.2365987 C14.1159834,11.3091365 12.1554945,11.5324392 10.4604585,12.5400038 C9.58714455,13.0588626 8.81124981,13.6971954 8.11836312,14.4333832 C7.79497757,14.7772978 7.51194316,15.1530722 7.24014942,15.537096 C7.08969732,15.7495891 6.95682679,15.9709006 6.82049759,16.1924965 C6.72307841,16.350373 6.59770166,16.5 6.40891598,16.5 C6.37375284,16.5 6.33657215,16.4948797 6.29679746,16.4837857 C5.75148065,16.3296072 6.1083,15.3442307 6.19217272,14.9835328 C6.31524369,14.4558557 6.47290135,13.9387037 6.67004549,13.4332146 C8.14490067,9.64889802 11.7156695,6.91050827 15.7815781,6.41676394 L16.0874247,6.38396055 L16.0874247,3.56181255 C16.0874247,3.22614733 16.3768,3 16.6730926,3 Z M17.587,5.628 L17.5874247,7.75079223 L16.2264788,7.8775013 C13.816237,8.10190367 11.5838436,9.24255088 9.97401484,10.9646032 L9.741,11.223 L9.97031645,11.0924915 C11.5434558,10.2269133 13.2525732,9.87241202 15.6095113,9.75578127 L16.0322705,9.73761301 L17.5874247,9.68039219 L17.587,11.738 L21.029,8.685 L17.587,5.628 Z"/>
  </g>
</svg>