<?xml version="1.0" encoding="UTF-8"?>
<svg width="18px" height="18px" viewBox="0 0 18 18" version="1.1" xmlns="http://www.w3.org/2000/svg" xmlns:xlink="http://www.w3.org/1999/xlink">
    <!-- Generator: Sketch 63.1 (92452) - https://sketch.com -->
    <title>Public/ic_public_input_search</title>
    <desc>Created with Sketch.</desc>
    <g id="Public/ic_public_input_search" stroke="none" stroke-width="1" fill="none" fill-rule="evenodd">
        <path d="M13.2129889,12.2463949 L15.6099466,14.6430364 C15.9028398,14.9359296 15.9028398,15.4108033 15.6099466,15.7036966 C15.3170533,15.9965898 14.8421796,15.9965898 14.5492864,15.7036966 L12.1424668,13.2968868 C12.5355197,12.9856781 12.8945263,12.6333482 13.2129889,12.2463949 Z M7.78125,1.5 C11.2502886,1.5 14.0625,4.31221142 14.0625,7.78125 C14.0625,9.23090694 13.571411,10.5658639 12.7465202,11.6288338 L12.5852288,11.8281795 C12.5065389,11.9214937 12.4251798,12.0124834 12.3412691,12.1010309 L12.2391385,12.2063305 L12.2391385,12.2063305 L12.1042686,12.3381988 L12.1042686,12.3381988 L12.0040285,12.4312816 L12.0040285,12.4312816 L11.7500714,12.6500283 L11.7500714,12.6500283 L11.6103411,12.7608162 L11.6103411,12.7608162 C10.5503999,13.5770819 9.22251268,14.0625 7.78125,14.0625 C4.31221142,14.0625 1.5,11.2502886 1.5,7.78125 C1.5,4.31221142 4.31221142,1.5 7.78125,1.5 Z M7.78125,3 C5.14063854,3 3,5.14063854 3,7.78125 C3,10.4218615 5.14063854,12.5625 7.78125,12.5625 C10.4218615,12.5625 12.5625,10.4218615 12.5625,7.78125 C12.5625,5.14063854 10.4218615,3 7.78125,3 Z" id="形状" fill="#000000" fill-rule="nonzero"></path>
    </g>
</svg>