<?xml version="1.0" encoding="UTF-8"?>
<svg xmlns="http://www.w3.org/2000/svg" xmlns:xlink="http://www.w3.org/1999/xlink" width="24" height="24" viewBox="0 0 24 24" version="1.1">
    <title>Public/ic_public_contacts</title>
    <defs>
        <path d="M12,2.5 C14.8994949,2.5 17.25,4.85050506 17.25,7.75 C17.25,10.5770076 15.0155511,12.8821316 12.2164046,12.995621 L12,13 L12,13 C11.1663626,13 10.3625066,13.1275088 9.6068709,13.3640872 L9.38164526,13.4383144 C9.21949559,13.4944527 9.05971244,13.5556595 8.90248528,13.6217452 C8.86460349,13.63767 8.82725237,13.6537104 8.79004922,13.6700257 L8.90248528,13.6217452 C8.83766808,13.6489892 8.77328528,13.6770624 8.70935015,13.7059514 L8.79004922,13.6700257 C8.71658796,13.7022418 8.64370362,13.7355299 8.57141597,13.7698702 L8.70935015,13.7059514 C8.61973055,13.7464461 8.53099054,13.7885438 8.44316672,13.8322081 L8.57141597,13.7698702 C8.50322079,13.8022663 8.43555665,13.8355989 8.36844019,13.8698512 L8.44316672,13.8322081 C8.35529243,13.8758976 8.26833536,13.9211554 8.18233215,13.9679449 L8.36844019,13.8698512 C8.30344992,13.9030185 8.23897316,13.9370482 8.17502501,13.9719252 C8.04616188,14.0420275 7.91238282,14.1199501 7.78114037,14.2015672 C7.73111937,14.2326772 7.6817579,14.264134 7.63276851,14.2961132 C7.51804952,14.3709892 7.40496975,14.4490222 7.2940475,14.5298381 C7.26673453,14.5497339 7.23894083,14.5702559 7.21128552,14.5909527 L7.2940475,14.5298381 C7.22317628,14.5814737 7.15318581,14.6342453 7.08410288,14.6881263 L7.21128552,14.5909527 C7.14959293,14.6371225 7.08858907,14.6841623 7.02829213,14.7320537 L7.08410288,14.6881263 C7.02212225,14.7364678 6.96087214,14.7857023 6.90037189,14.8358105 L7.02829213,14.7320537 C6.95482068,14.7904091 6.88239881,14.850029 6.81105945,14.9108806 L6.90037189,14.8358105 C6.83668958,14.8885541 6.77383808,14.9422656 6.71183994,14.9969226 L6.81105945,14.9108806 C6.74918309,14.9636603 6.68812109,15.0173666 6.62789493,15.071978 L6.71183994,14.9969226 C6.64785034,15.0533352 6.58476982,15.1107549 6.52262314,15.1691569 L6.62789493,15.071978 C6.57565734,15.1193456 6.52404855,15.1673941 6.47308258,15.2161095 L6.52262314,15.1691569 C6.38762982,15.2960161 6.25704273,15.4275103 6.13111601,15.5633851 C6.03105568,15.6713349 5.93357387,15.7824881 5.83918557,15.8962995 C5.82097002,15.918261 5.80259484,15.9406601 5.78433938,15.9631603 L5.83918557,15.8962995 C5.79433965,15.9503738 5.75019207,16.005048 5.70675664,16.0603085 L5.78433938,15.9631603 C5.73916968,16.0188328 5.69473288,16.0751241 5.65104365,16.1320194 L5.70675664,16.0603085 C5.65523495,16.1258567 5.60471527,16.1922297 5.55522067,16.2594044 L5.65104365,16.1320194 C5.59201169,16.2088952 5.53434458,16.2868738 5.47807855,16.365919 L5.55522067,16.2594044 C5.50462342,16.3280756 5.45509743,16.3975846 5.40666737,16.4679069 L5.47807855,16.365919 C5.43261396,16.4297898 5.38806414,16.494357 5.34444822,16.5596015 L5.40666737,16.4679069 C5.3587313,16.5375118 5.31186891,16.6079134 5.2661041,16.6790877 L5.34444822,16.5596015 C5.29455522,16.6342358 5.24588426,16.7097563 5.19846396,16.7861345 L5.2661041,16.6790877 C5.22426915,16.7441503 5.18335137,16.8098586 5.14336904,16.8761945 L5.19846396,16.7861345 C5.047825,17.0287633 4.90980681,17.2800467 4.78532668,17.5390675 C4.76837244,17.5743533 4.75193349,17.6092119 4.73573998,17.6442073 L4.78532668,17.5390675 C4.74922387,17.6141909 4.71425983,17.6899652 4.68045695,17.766368 L4.73573998,17.6442073 C4.70484808,17.710967 4.6748494,17.7782246 4.64575926,17.8459646 L4.68045695,17.766368 C4.64247367,17.8522194 4.6059565,17.9388644 4.57093719,18.0262712 L4.64575926,17.8459646 C4.61266361,17.9230319 4.58074393,18.0007237 4.55002281,18.0790174 L4.57093719,18.0262712 C4.54234068,18.0976469 4.51474298,18.1695306 4.48816138,18.2419049 L4.55002281,18.0790174 C4.51431152,18.1700287 4.48021977,18.2618532 4.44778306,18.3544556 L4.48816138,18.2419049 C4.46998833,18.2913851 4.45229021,18.3410947 4.43507254,18.391028 L4.44778306,18.3544556 C4.3283501,18.6954204 4.23135483,19.0469304 4.15856787,19.4072151 C4.14762666,19.4613862 4.13730276,19.5153678 4.12752426,19.569539 L4.15856787,19.4072151 C4.14116807,19.4933415 4.12515167,19.5799694 4.11054284,19.6670745 L4.12752426,19.569539 C4.11191516,19.6560108 4.0976958,19.7429659 4.08489016,19.8303802 L4.11054284,19.6670745 C4.09454527,19.76246 4.08023562,19.8584178 4.06764565,19.9549161 L4.08489016,19.8303802 C4.07328426,19.9096048 4.06283957,19.9892066 4.05357395,20.0691678 L4.06764565,19.9549161 C4.0572943,20.034256 4.04810545,20.1139613 4.04009675,20.1940143 L4.05357395,20.0691678 C4.0419835,20.1691921 4.03223801,20.2697787 4.02437238,20.3708928 L4.04009675,20.1940143 C4.02239586,20.3709481 4.01046001,20.5495807 4.00447981,20.7297213 C4.00156148,20.8174828 4.00005629,20.9060552 4.00000155,20.9949669 L4.00447981,20.7297213 C4.00150112,20.8194479 4,20.9095487 4,21 C4,21.4142136 3.66421356,21.75 3.25,21.75 C2.83578644,21.75 2.5,21.4142136 2.5,21 C2.5,20.8017352 2.50607356,20.604889 2.51804478,20.4096372 C2.52118346,20.3585039 2.52467436,20.3081552 2.52855605,20.2579161 C2.53178145,20.2161521 2.53530682,20.1741335 2.53910476,20.1321936 C2.54330382,20.0858234 2.54783789,20.0395322 2.55270299,19.9933397 C2.5582937,19.9402537 2.56433112,19.8872204 2.57080335,19.8343214 C2.57522945,19.7981399 2.57988476,19.7618288 2.58474445,19.7255825 C2.62248988,19.4441375 2.67247922,19.1669444 2.73420205,18.8942028 L2.73986134,18.8693514 C2.76905594,18.741945 2.80081231,18.6155157 2.83507336,18.4901205 C2.85217045,18.427544 2.86990543,18.3651772 2.88825801,18.3030754 C2.8939179,18.2839215 2.89970667,18.264561 2.90555541,18.2452266 C2.92516226,18.1804172 2.94536937,18.1161259 2.96623752,18.0521332 C2.97851892,18.0144652 2.99118942,17.9764302 3.00409304,17.9385029 C3.01968619,17.8926692 3.03564408,17.8469249 3.05194039,17.8013416 C3.06645689,17.7607383 3.08119852,17.720379 3.09620501,17.6801488 C3.15856089,17.5129683 3.22558959,17.3477908 3.29705187,17.1850009 L3.30104812,17.1759105 C3.39334643,16.9662555 3.49300182,16.7605698 3.5996873,16.5591803 C3.62542103,16.5106015 3.65161487,16.4621803 3.67821472,16.4140147 C3.69237064,16.3883807 3.70672905,16.3626642 3.72120314,16.3370216 C3.7445197,16.2957145 3.76808538,16.2546868 3.79194704,16.2138532 C3.81803335,16.1692106 3.84457099,16.1246392 3.8714611,16.0803053 C3.88941242,16.0507094 3.90747215,16.0212978 3.92568697,15.9919926 C3.97263788,15.9164503 4.02076167,15.8414001 4.0699022,15.767081 C4.14677058,15.6508325 4.22600667,15.5365383 4.30764761,15.4241035 C4.32815439,15.3958621 4.3487845,15.3677763 4.36956474,15.3398086 C4.46075243,15.2170872 4.55468861,15.0968146 4.65140658,14.9789114 C4.67271322,14.9529364 4.6943064,14.9268956 4.7160354,14.9009726 C4.75430972,14.8553102 4.79303497,14.8099791 4.83217627,14.7650198 C4.85541135,14.738333 4.87856416,14.7120342 4.9018595,14.6858651 C4.95265611,14.6287987 5.00432824,14.5721372 5.05667053,14.5161098 C5.06272456,14.5096285 5.06927485,14.5026371 5.07583558,14.4956556 C5.26112772,14.2985021 5.45435526,14.1096143 5.65531798,13.9291697 C5.70423282,13.885246 5.75385685,13.8416064 5.80393565,13.7984802 C5.82257194,13.7824328 5.84093031,13.7667455 5.85934898,13.7511272 C5.90936731,13.7087125 5.95991526,13.6667373 6.01090142,13.6252802 C6.03652437,13.604447 6.06208408,13.5838832 6.08775197,13.5634494 C6.11476629,13.5419445 6.14176953,13.5206857 6.16889029,13.4995707 C6.22779387,13.4537087 6.28744558,13.4083817 6.34764346,13.3637496 C6.36259334,13.3526663 6.37727588,13.3418464 6.39199059,13.3310678 C6.44144225,13.2948426 6.49141105,13.2589762 6.54173894,13.2235859 C6.56804553,13.2050884 6.59421847,13.1868805 6.62048689,13.1688013 C6.6957753,13.1169795 6.77219612,13.0659903 6.84938676,13.01609 C6.88867366,12.990693 6.92812923,12.9655974 6.96778104,12.9407862 C7.00617864,12.9167609 7.04460062,12.8930991 7.08320254,12.8697045 C7.10413392,12.8570193 7.1250553,12.8444501 7.14602886,12.8319594 C7.20875689,12.7946003 7.27211687,12.7578501 7.33593515,12.7218165 C7.35022757,12.7137473 7.36419452,12.7059086 7.37818323,12.6981041 C7.44289146,12.662 7.50833071,12.6264905 7.57422811,12.5917331 C7.60196974,12.5771 7.62997821,12.5625046 7.65806809,12.5480452 C7.70399595,12.5244049 7.74994456,12.5012253 7.79610521,12.4784097 C7.82142247,12.4658969 7.84663843,12.4535733 7.87191674,12.4413584 C8.21328547,12.2764038 8.56602471,12.1312711 8.92864014,12.0074546 C7.60862078,11.0543327 6.75,9.50243717 6.75,7.75 C6.75,4.85050506 9.10050506,2.5 12,2.5 Z M16.1281996,12.4427018 C19.3070834,13.9775006 21.5,17.2326587 21.5,21 C21.5,21.4142136 21.1642136,21.75 20.75,21.75 C20.3357864,21.75 20,21.4142136 20,21 C20,17.493536 17.7440755,14.5139714 14.6044272,13.433507 C15.1612585,13.1775629 15.6739904,12.8425851 16.1281996,12.4427018 Z M12,4 C9.92893219,4 8.25,5.67893219 8.25,7.75 C8.25,9.82106781 9.92893219,11.5 12,11.5 C14.0710678,11.5 15.75,9.82106781 15.75,7.75 C15.75,5.67893219 14.0710678,4 12,4 Z" id="_path-1"/>
    </defs>
    <g id="_Public/ic_public_contacts" stroke="none" stroke-width="1" fill="none" fill-rule="evenodd">
        <mask id="_mask-2" fill="white">
            <use xlink:href="#_path-1"/>
        </mask>
        <use id="_形状结合" fill="#000000" fill-rule="nonzero" xlink:href="#_path-1"/>
    </g>
</svg>