<?xml version="1.0" encoding="UTF-8"?>
<svg width="24px" height="24px" viewBox="0 0 24 24" version="1.1" xmlns="http://www.w3.org/2000/svg" xmlns:xlink="http://www.w3.org/1999/xlink">
    <title>Public/ic_public_cloud_upload</title>
    <defs>
        <path d="M13.1152825,11.1511481 L13.2374369,11.2624369 L16.5303301,14.5553301 L16.5605907,14.5873913 C16.8228497,14.8819107 16.8127628,15.3335575 16.5303301,15.6159903 C16.2640635,15.8822568 15.8473998,15.9064629 15.5537883,15.6886084 L15.4696699,15.6159903 L12.75,12.8968737 L12.75,20.7706955 C12.75,21.1732716 12.414,21.5 12,21.5 C11.586,21.5 11.25,21.1732716 11.25,20.7706955 L11.25,12.8958737 L8.53033009,15.6159903 L8.4982689,15.6462509 C8.20374943,15.9085099 7.75210266,15.898423 7.46966991,15.6159903 C7.20340335,15.3497237 7.1791973,14.93306 7.39705176,14.6394485 L7.46966991,14.5553301 L10.7625631,11.2624369 L10.8058219,11.2206131 C11.4516033,10.6170393 12.4429846,10.5938843 13.1152825,11.1511481 Z M11.75,2.75 C14.3110274,2.75 16.6045627,4.18963065 17.7474745,6.39958542 L17.80175,6.50725 L17.8945017,6.51276243 C20.9917115,6.7137911 23.4483522,9.26487247 23.4991962,12.400779 L23.5,12.5 C23.5,15.8137085 20.8137085,18.5 17.5,18.5 L17.3573563,18.4983336 L17.31525,18.49675 L17.2930288,18.4987845 L17.25,18.5 L15,18.5 C14.5857864,18.5 14.25,18.1642136 14.25,17.75 C14.25,17.3505798 14.56223,17.0240848 14.9559318,17.0012732 L15,17 L17.156,17 L17.1969104,16.9959821 L17.2408167,16.9941967 L17.2852923,16.9949832 C17.3566101,16.998324 17.4281907,17 17.5,17 C19.9852814,17 22,14.9852814 22,12.5 C22,10.0147186 19.9852814,8 17.5,8 C17.4466555,8 17.3939544,8.00092489 17.3418727,8.00277976 C17.0266017,8.014008 16.7380067,7.82674806 16.6198096,7.53425654 C15.8243357,5.56576957 13.9094675,4.25 11.75,4.25 C8.92960252,4.25 6.61583848,6.4788429 6.50433581,9.28727318 C6.48827226,9.69186759 6.15493718,10.0077333 5.7552979,10.0075437 L5.71063343,10.0062104 C5.64075201,10.0020762 5.57052342,10 5.5,10 C3.56700338,10 2,11.5670034 2,13.5 C2,15.4329966 3.56700338,17 5.5,17 L5.60358763,16.9985027 L5.7067125,16.9940193 C5.75048839,16.9914782 5.79354766,16.9927306 5.83558526,16.9974815 L5.85475,17 L9,17 C9.39942022,17 9.72591522,17.31223 9.74872683,17.7059318 L9.75,17.75 C9.75,18.1494202 9.43777001,18.4759152 9.0440682,18.4987268 L9,18.5 L5.75,18.5 L5.70672088,18.4987735 L5.6805,18.4965 L5.59810117,18.499054 L5.5,18.5 C2.73857625,18.5 0.5,16.2614237 0.5,13.5 C0.5,10.9111652 2.46749866,8.7818644 4.98877905,8.52581444 L5.071,8.518 L5.07650591,8.48088548 C5.56328657,5.26330332 8.31727779,2.80338693 11.6414047,2.75085752 L11.75,2.75 Z" id="path-1"></path>
    </defs>
    <g id="Public/ic_public_cloud_upload" stroke="none" stroke-width="1" fill="none" fill-rule="evenodd">
        <mask id="mask-2" fill="white">
            <use xlink:href="#path-1"></use>
        </mask>
        <use id="蒙版" fill="#000000" fill-rule="nonzero" xlink:href="#path-1"></use>
    </g>
</svg>