<?xml version="1.0" encoding="UTF-8"?>
<svg width="24px" height="24px" viewBox="0 0 24 24" version="1.1" xmlns="http://www.w3.org/2000/svg" xmlns:xlink="http://www.w3.org/1999/xlink">
    <title>Public/ic_public_mobile_data</title>
    <defs>
        <path d="M12,1 C18.0751322,1 23,5.92486775 23,12 C23,18.0751322 18.0751322,23 12,23 C5.92486775,23 1,18.0751322 1,12 C1,5.92486775 5.92486775,1 12,1 Z M12,2.5 C6.75329488,2.5 2.5,6.75329488 2.5,12 C2.5,17.2467051 6.75329488,21.5 12,21.5 C17.2467051,21.5 21.5,17.2467051 21.5,12 C21.5,6.75329488 17.2467051,2.5 12,2.5 Z M14.25,5.95710678 C14.3826082,5.95710678 14.5097852,6.0097852 14.6035534,6.10355339 L16.8964466,8.39644661 C17.0917088,8.59170876 17.0917088,8.90829124 16.8964466,9.10355339 C16.8026784,9.19732158 16.6755015,9.25 16.5428932,9.25 L15.236,9.25 L15.2362022,17.2164884 C15.2362022,17.5961842 14.9540483,17.9099794 14.5879728,17.9596418 L14.4862022,17.9664884 C14.0719886,17.9664884 13.7362022,17.630702 13.7362022,17.2164884 L13.7362022,17.2164884 L13.7362022,7.53294574 C13.7362022,7.48574793 13.7405619,7.43956839 13.7489006,7.39478787 L13.75,6.45710678 C13.75,6.18096441 13.9738576,5.95710678 14.25,5.95710678 Z M9.48620219,6.03445629 C9.90041576,6.03445629 10.2362022,6.37024273 10.2362022,6.78445629 L10.2382445,14.8917224 C10.2459419,14.9265879 10.25,14.96282 10.25,15 L10.25,17.2928932 C10.25,17.5690356 10.0261424,17.7928932 9.75,17.7928932 C9.61739176,17.7928932 9.4902148,17.7402148 9.39644661,17.6464466 L7.10355339,15.3535534 C6.90829124,15.1582912 6.90829124,14.8417088 7.10355339,14.6464466 C7.19732158,14.5526784 7.32449854,14.5 7.45710678,14.5 L8.736,14.5 L8.73620219,6.78445629 C8.73620219,6.37024273 9.07198863,6.03445629 9.48620219,6.03445629 Z" id="path-1"></path>
    </defs>
    <g id="Public/ic_public_mobile_data" stroke="none" stroke-width="1" fill="none" fill-rule="evenodd">
        <mask id="mask-2" fill="white">
            <use xlink:href="#path-1"></use>
        </mask>
        <use id="合并形状" fill="#000000" xlink:href="#path-1"></use>
    </g>
</svg>