<?xml version="1.0" encoding="UTF-8"?>
<svg width="24px" height="12px" viewBox="0 0 24 12" version="1.1" xmlns="http://www.w3.org/2000/svg" xmlns:xlink="http://www.w3.org/1999/xlink">
    <title>Public/ic_public_arrow_up_0</title>
    <defs>
        <path d="M9.75191291,-0.58872969 L9.7839741,-0.558469039 L14.7337216,4.39127843 C15.4029012,5.06045808 15.4168425,6.13675067 14.7755453,6.82289336 L14.7337216,6.86615216 L9.7839741,11.8158996 C9.65510109,11.9447726 9.49099664,12.0169415 9.32266443,12.0324063 L9.27667411,12.0352181 L9.23061392,12.0352181 C9.04641973,12.0295945 8.86390268,11.9564884 8.72331393,11.8158996 C8.44088118,11.5334669 8.4307943,11.0818201 8.69305328,10.7873007 L8.72331393,10.7552395 L13.319508,6.15904538 C13.6019408,5.87661264 13.6120276,5.42496586 13.3497687,5.1304464 L13.319508,5.09838521 L8.72331393,0.502191133 C8.43042071,0.209297914 8.43042071,-0.26557582 8.72331393,-0.558469039 C8.8645303,-0.699685412 9.04805018,-0.77281532 9.2330809,-0.777858762 L9.27934645,-0.777701154 C9.44892909,-0.77192221 9.61692482,-0.708931722 9.75191291,-0.58872969 Z" id="path-1"></path>
    </defs>
    <g id="Public/ic_public_arrow_up_0" stroke="none" stroke-width="1" fill="none" fill-rule="evenodd">
        <mask id="mask-2" fill="white">
            <use xlink:href="#path-1"></use>
        </mask>
        <use id="路径" fill="#000000" fill-rule="nonzero" transform="translate(11.874964, 5.628680) rotate(-90.000000) translate(-11.874964, -5.628680) " xlink:href="#path-1"></use>
    </g>
</svg>