<?xml version="1.0" encoding="UTF-8"?>
<svg width="24px" height="24px" viewBox="0 0 24 24" version="1.1" xmlns="http://www.w3.org/2000/svg" xmlns:xlink="http://www.w3.org/1999/xlink">
    <title>Public/ic_public_help</title>
    <defs>
        <path d="M12,1 C18.0751322,1 23,5.92486775 23,12 C23,18.0751322 18.0751322,23 12,23 C5.92486775,23 1,18.0751322 1,12 C1,5.92486775 5.92486775,1 12,1 Z M12,2.5 C6.75329488,2.5 2.5,6.75329488 2.5,12 C2.5,17.2467051 6.75329488,21.5 12,21.5 C17.2467051,21.5 21.5,17.2467051 21.5,12 C21.5,6.75329488 17.2467051,2.5 12,2.5 Z M12,16 C12.55225,16 13,16.44775 13,17 C13,17.55225 12.55225,18 12,18 C11.44775,18 11,17.55225 11,17 C11,16.44775 11.44775,16 12,16 Z M12.6929199,6.06634025 C14.0644076,6.32950759 15.1648814,7.41591203 15.4322233,8.77544644 C15.7561549,10.4219179 14.8855687,12.0041625 13.390581,12.6453727 C13.0054203,12.8105368 12.7501432,13.2176189 12.7501432,13.6716862 L12.7501432,14.25 C12.7501432,14.6642136 12.4143567,15 12.0001432,15 C11.5859296,15 11.2501432,14.6642136 11.2501432,14.25 L11.2501432,13.6716862 C11.2501432,12.6306191 11.8501216,11.673853 12.7993629,11.2668006 C13.6538963,10.9002855 14.1456712,10.0065105 13.9604236,9.06493852 C13.8115486,8.30785305 13.1835078,7.68784166 12.4104462,7.53950302 C11.1380704,7.29570522 10,8.23197222 10,9.46493686 C10,9.87915043 9.66421356,10.2149369 9.25,10.2149369 C8.83578644,10.2149369 8.5,9.87915043 8.5,9.46493686 C8.5,7.28866322 10.4971863,5.64561935 12.6929199,6.06634025 Z" id="path-1"></path>
    </defs>
    <g id="Public/ic_public_help" stroke="none" stroke-width="1" fill="none" fill-rule="evenodd">
        <mask id="mask-2" fill="white">
            <use xlink:href="#path-1"></use>
        </mask>
        <use id="合并形状" fill="#000000" fill-rule="nonzero" xlink:href="#path-1"></use>
    </g>
</svg>