<?xml version="1.0" encoding="UTF-8"?>
<svg xmlns="http://www.w3.org/2000/svg" xmlns:xlink="http://www.w3.org/1999/xlink" width="24" height="24" viewBox="0 0 24 24" version="1.1">
    <title>Public/ic_public_scan</title>
    <defs>
        <path d="M21.25,14 C21.6296958,14 21.943491,14.2821539 21.9931534,14.6482294 L22,14.75 L22,18 C22,20.1421954 20.3160315,21.8910789 18.1996403,21.9951047 L18,22 L14.75,22 C14.3357864,22 14,21.6642136 14,21.25 C14,20.8703042 14.2821539,20.556509 14.6482294,20.5068466 L14.75,20.5 L18,20.5 C19.3254834,20.5 20.4100387,19.4684641 20.4946823,18.1643757 L20.5,18 L20.5,14.75 C20.5,14.3357864 20.8357864,14 21.25,14 Z M2.75,14 C3.12969577,14 3.44349096,14.2821539 3.49315338,14.6482294 L3.5,14.75 L3.5,18 C3.5,19.3254834 4.53153594,20.4100387 5.83562431,20.4946823 L6,20.5 L9.25,20.5 C9.66421356,20.5 10,20.8357864 10,21.25 C10,21.6296958 9.71784612,21.943491 9.35177056,21.9931534 L9.25,22 L6,22 C3.85780461,22 2.10892112,20.3160315 2.00489531,18.1996403 L2,18 L2,14.75 C2,14.3357864 2.33578644,14 2.75,14 Z M18.25,11.25 C18.6642136,11.25 19,11.5857864 19,12 C19,12.4142136 18.6642136,12.75 18.25,12.75 L5.75,12.75 C5.33578644,12.75 5,12.4142136 5,12 C5,11.5857864 5.33578644,11.25 5.75,11.25 L18.25,11.25 Z M18,2 C20.1421954,2 21.8910789,3.68396847 21.9951047,5.80035966 L22,6 L22,9.25 C22,9.66421356 21.6642136,10 21.25,10 C20.8703042,10 20.556509,9.71784612 20.5068466,9.35177056 L20.5,9.25 L20.5,6 C20.5,4.6745166 19.4684641,3.58996133 18.1643757,3.50531768 L18,3.5 L14.75,3.5 C14.3357864,3.5 14,3.16421356 14,2.75 C14,2.37030423 14.2821539,2.05650904 14.6482294,2.00684662 L14.75,2 L18,2 Z M9.25,2 C9.66421356,2 10,2.33578644 10,2.75 C10,3.12969577 9.71784612,3.44349096 9.35177056,3.49315338 L9.25,3.5 L6,3.5 C4.6745166,3.5 3.58996133,4.53153594 3.50531768,5.83562431 L3.5,6 L3.5,9.25 C3.5,9.66421356 3.16421356,10 2.75,10 C2.37030423,10 2.05650904,9.71784612 2.00684662,9.35177056 L2,9.25 L2,6 C2,3.85780461 3.68396847,2.10892112 5.80035966,2.00489531 L6,2 L9.25,2 Z" id="_path-1"/>
    </defs>
    <g id="_Public/ic_public_scan" stroke="none" stroke-width="1" fill="none" fill-rule="evenodd">
        <mask id="_mask-2" fill="white">
            <use xlink:href="#_path-1"/>
        </mask>
        <use id="_形状结合" fill="#000000" fill-rule="nonzero" xlink:href="#_path-1"/>
    </g>
</svg>