<?xml version="1.0" encoding="UTF-8"?>
<svg width="24px" height="24px" viewBox="0 0 24 24" version="1.1" xmlns="http://www.w3.org/2000/svg" xmlns:xlink="http://www.w3.org/1999/xlink">
    <title>Public/ic_public_backtotop</title>
    <defs>
        <path d="M10.8058219,6.22061314 C11.4919646,5.57931598 12.5682572,5.59325722 13.2374369,6.26243687 L13.2374369,6.26243687 L20.2803301,13.3053301 L20.3105907,13.3373913 C20.5728497,13.6319107 20.5627628,14.0835575 20.2803301,14.3659903 C19.9874369,14.6588835 19.5125631,14.6588835 19.2196699,14.3659903 L19.2196699,14.3659903 L12.75,7.89808673 L12.75,20.2570867 C12.75,20.6713003 12.4142136,21.0070867 12,21.0070867 C11.5857864,21.0070867 11.25,20.6713003 11.25,20.2570867 L11.25,20.2570867 L11.25,7.89708673 L4.78033009,14.3659903 L4.7482689,14.3962509 C4.45374943,14.6585099 4.00210266,14.648423 3.71966991,14.3659903 C3.4267767,14.073097 3.4267767,13.5982233 3.71966991,13.3053301 L3.71966991,13.3053301 L10.7625631,6.26243687 Z M20,3 C20.4142136,3 20.75,3.33578644 20.75,3.75 C20.75,4.16421356 20.4142136,4.5 20,4.5 L4,4.5 C3.58578644,4.5 3.25,4.16421356 3.25,3.75 C3.25,3.33578644 3.58578644,3 4,3 L20,3 Z" id="path-1"></path>
    </defs>
    <g id="Public/ic_public_backtotop" stroke="none" stroke-width="1" fill="none" fill-rule="evenodd">
        <mask id="mask-2" fill="white">
            <use xlink:href="#path-1"></use>
        </mask>
        <use id="蒙版" fill="#000000" fill-rule="nonzero" xlink:href="#path-1"></use>
    </g>
</svg>