<?xml version="1.0" encoding="UTF-8"?>
<svg width="24px" height="24px" viewBox="0 0 24 24" version="1.1" xmlns="http://www.w3.org/2000/svg" xmlns:xlink="http://www.w3.org/1999/xlink">
    <title>Public/ic_public_topping</title>
    <defs>
        <path d="M9.91809407,5.95816548 L3.7213874,13.2079073 C3.44932,13.5262083 3.30040189,13.9315122 3.30165894,14.350242 L3.30790172,14.493751 C3.38362495,15.3928889 4.13877673,16.097721 5.05694593,16.094947 L7.499,16.086 L7.5,19.5000614 C7.5,20.4664983 8.28350169,21.25 9.25,21.25 L14.75,21.25 L14.8935272,21.2441988 C15.7928897,21.1711923 16.5,20.4181734 16.5,19.5 L16.499,16.059 L19.0041193,16.0528105 C19.4227218,16.0515459 19.826855,15.9003926 20.1434177,15.6267536 C20.8746071,14.9947085 20.9549795,13.8895886 20.3229344,13.1583992 L14.088991,5.94658227 C13.998578,5.8419869 13.9004061,5.74435868 13.7953101,5.65452808 C12.6407993,4.66771158 10.9049106,4.80365468 9.91809407,5.95816548 Z M12.7123979,6.71184082 L12.8206978,6.79476084 C12.8684686,6.83559293 12.9130923,6.8799694 12.9541891,6.92751275 L19.1881325,14.1393296 C19.2784246,14.2437853 19.2669429,14.4016595 19.1624872,14.4919517 C19.117264,14.531043 19.0595307,14.5526363 18.9997541,14.5528169 L15.7475596,14.5619202 C15.3341434,14.5630774 14.9996253,14.8985605 14.9996589,15.3119783 L15,19.5000611 C15,19.6380712 14.8880712,19.75 14.75,19.75 L9.25,19.75 C9.11192881,19.75 9,19.6380712 9,19.5 L8.99965894,15.3348558 C8.99962495,14.9197462 8.66241132,14.5836174 8.24730373,14.584921 L5.05232487,14.5949542 C4.91434368,14.595371 4.80207722,14.4837809 4.80165895,14.3457103 C4.80147937,14.2858918 4.82275339,14.2279912 4.86162016,14.1825196 L11.0583268,6.93277784 C11.4769763,6.44298538 12.192228,6.35650458 12.7123979,6.71184082 Z M18.25,2.75 C18.6642136,2.75 19,3.08578644 19,3.5 C19,3.91421356 18.6642136,4.25 18.25,4.25 L5.75,4.25 C5.33578644,4.25 5,3.91421356 5,3.5 C5,3.08578644 5.33578644,2.75 5.75,2.75 L18.25,2.75 Z" id="path-1"></path>
    </defs>
    <g id="Public/ic_public_topping" stroke="none" stroke-width="1" fill="none" fill-rule="evenodd">
        <mask id="mask-2" fill="white">
            <use xlink:href="#path-1"></use>
        </mask>
        <use id="蒙版" fill="#000000" fill-rule="nonzero" xlink:href="#path-1"></use>
    </g>
</svg>