<?xml version="1.0" encoding="UTF-8"?>
<svg width="24px" height="24px" viewBox="0 0 24 24" version="1.1" xmlns="http://www.w3.org/2000/svg" xmlns:xlink="http://www.w3.org/1999/xlink">
    <!-- Generator: Sketch 63.1 (92452) - https://sketch.com -->
    <title>Public/ic_upload</title>
    <desc>Created with Sketch.</desc>
    <defs>
        <path d="M21.25,15.5 C21.6494202,15.5 21.9759152,15.81223 21.9987268,16.2059318 L22,16.25 L22,18 C22,20.1828397 20.2515247,21.9573012 18.0787177,21.9992409 L18,22 L6,22 C3.81716027,22 2.04269883,20.2515247 2.0007591,18.0787177 L2,16.25 C2,15.8357864 2.33578644,15.5 2.75,15.5 C3.14942022,15.5 3.47591522,15.81223 3.49872683,16.2059318 L3.5,16.25 L3.5,18 C3.5,19.35731 4.5816677,20.4619829 5.93002379,20.4990396 L6,20.5 L18,20.5 C19.35731,20.5 20.4619829,19.4183323 20.4990396,18.0699762 L20.5,18 L20.5,16.25 C20.5,15.8357864 20.8357864,15.5 21.25,15.5 Z M11.9984143,2.5 L12.0224989,2.50001747 C12.4628339,2.50564381 12.9014503,2.67645027 13.2374369,3.01243687 L13.2374369,3.01243687 L17.7803301,7.55533009 L17.8105907,7.58739128 C18.0728497,7.88191074 18.0627628,8.33355751 17.7803301,8.61599026 C17.4874369,8.90888348 17.0125631,8.90888348 16.7196699,8.61599026 L16.7196699,8.61599026 L12.748,4.64492509 L12.7484143,17.2429133 C12.7484143,17.6571268 12.4126279,17.9929133 11.9984143,17.9929133 C11.5842008,17.9929133 11.2484143,17.6571268 11.2484143,17.2429133 L11.248,4.64792509 L7.28033009,8.61599026 L7.2482689,8.64625091 C6.95374943,8.90850989 6.50210266,8.898423 6.21966991,8.61599026 C5.9267767,8.32309704 5.9267767,7.8482233 6.21966991,7.55533009 L6.21966991,7.55533009 L10.7625631,3.01243687 L10.8058219,2.97061314 C11.1380869,2.66006469 11.5618414,2.50316867 11.9865514,2.49992509 L11.9984143,2.5 L11.9984143,2.5 Z" id="path-1"></path>
    </defs>
    <g id="Public/ic_upload" stroke="none" stroke-width="1" fill="none" fill-rule="evenodd">
        <mask id="mask-2" fill="white">
            <use xlink:href="#path-1"></use>
        </mask>
        <use id="合并形状" fill="#000000" fill-rule="nonzero" xlink:href="#path-1"></use>
    </g>
</svg>