<?xml version="1.0" encoding="UTF-8"?>
<svg width="24px" height="24px" viewBox="0 0 24 24" version="1.1" xmlns="http://www.w3.org/2000/svg" xmlns:xlink="http://www.w3.org/1999/xlink">
    <title>Public/ic_public_worldclock</title>
    <defs>
        <path d="M22.8606978,13.7553883 L22.8150774,14.0218052 C22.8041431,14.0805923 22.7927415,14.1392155 22.7808765,14.197671 L22.814645,14.0215394 C22.797325,14.1147814 22.7788288,14.2076103 22.7591725,14.3000101 L22.7808765,14.197671 C22.7592646,14.3041463 22.7361154,14.410065 22.711453,14.5154027 L22.7591725,14.3000101 C22.7324166,14.4257836 22.7035111,14.5507621 22.6724962,14.6749051 L22.6728407,14.6749178 C22.6359678,14.8211176 22.5965134,14.9661713 22.5541989,15.1100003 L22.5853699,15.0030135 C22.5596669,15.0937337 22.5328296,15.1839781 22.5048741,15.2737304 L22.5046885,15.2735485 C22.4260204,15.5268933 22.3382704,15.7761405 22.2419891,16.0211043 L22.3020192,15.8644526 C22.2612375,15.9731198 22.2187856,16.0809703 22.1746949,16.1879728 L22.2419891,16.0211043 C22.2027915,16.1208328 22.1621799,16.2198513 22.120179,16.3181351 L22.1746949,16.1879728 C22.1160115,16.33039 22.0544249,16.4713051 21.990009,16.6106444 L22.120179,16.3181351 C22.0626119,16.4528439 22.0024349,16.5861724 21.9397111,16.7180567 L21.990009,16.6106444 C21.9527887,16.6911563 21.9146237,16.771142 21.8755283,16.8505874 L21.9397111,16.7180567 C21.8907833,16.8209334 21.8403058,16.9229314 21.7883088,17.0240203 L21.8755283,16.8505874 C21.8176785,16.9681434 21.7577915,17.0845162 21.6959134,17.1996599 L21.7883088,17.0240203 C21.741583,17.1148614 21.6936301,17.2049684 21.644472,17.2943192 L21.6443771,17.2944391 C21.5846156,17.4031156 21.5229723,17.5107909 21.4595815,17.6173054 L21.4589878,17.6182772 C21.3914767,17.7317407 21.321355,17.8448361 21.2492652,17.9565423 L21.2491964,17.9566392 C21.1079652,18.1754925 20.9591041,18.3891058 20.8030501,18.597011 L20.8761601,18.4984729 C20.8094265,18.5894691 20.7413274,18.6794012 20.6718929,18.768239 L20.672095,18.7679804 C20.367082,19.1582285 20.0365369,19.52713 19.6828116,19.8723896 L19.5999169,19.9517188 L19.5999169,19.9517188 L19.488687,20.0573304 L19.2405212,20.2811947 C19.1684602,20.3442515 19.095569,20.4063829 19.0218659,20.4675703 L19.1954631,20.3204084 C19.1023127,20.4010356 19.0077943,20.4801247 18.9119476,20.5576363 L19.0218659,20.4675703 C18.945532,20.5309419 18.8683273,20.5933009 18.7902724,20.6546268 L18.7904468,20.6544898 C18.6578005,20.7587069 18.5228798,20.8598111 18.3856111,20.9578388 L18.6089679,20.7940625 C18.5174414,20.8629562 18.4248049,20.9304543 18.33109,20.9965251 L18.3856111,20.9578388 C18.2946872,21.0227703 18.202733,21.086352 18.1097779,21.1485546 L18.33109,20.9965251 C18.2368093,21.0629947 18.1414371,21.1280198 18.0450056,21.1915681 L18.1097779,21.1485546 C17.9969754,21.2240384 17.8826989,21.2974914 17.7670007,21.3688611 L18.0450056,21.1915681 C17.9347579,21.2642212 17.8231255,21.3349441 17.7101567,21.4036886 L17.7670007,21.3688611 C17.6808074,21.4220304 17.5938252,21.4740435 17.5060755,21.5248788 L17.7101567,21.4036886 C17.5993016,21.4711469 17.4871594,21.5367002 17.3737758,21.6003031 L17.3737735,21.6003044 C17.2184532,21.6874316 17.0608008,21.7709 16.9009354,21.8505912 C16.7702236,21.9157467 16.6382217,21.9782919 16.5048082,22.0382556 L16.7026938,21.9469352 C16.6096883,21.9909837 16.5159663,22.0337663 16.4215501,22.0752606 L16.5048082,22.0382556 C16.3928452,22.0885783 16.279888,22.1370827 16.1659744,22.1837314 L16.4215501,22.0752606 C16.3196767,22.1200322 16.2169951,22.1633041 16.1135332,22.2050481 L16.1659744,22.1837314 C16.0530299,22.2299833 15.9391451,22.2744108 15.8243566,22.3169774 L16.1135332,22.2050481 C15.9798041,22.2590042 15.8447714,22.310408 15.7084954,22.359199 L15.8243566,22.3169774 C15.702845,22.362037 15.5803208,22.4050114 15.4568275,22.4458569 L15.7084954,22.359199 C15.6103884,22.3943243 15.511637,22.4280956 15.4122638,22.4604902 L15.4568275,22.4458569 C15.352237,22.4804503 15.2469514,22.5135167 15.140997,22.5450298 L15.140426,22.5451996 C15.015565,22.5823359 14.8891958,22.617465 14.7619331,22.6503734 L15.0234498,22.5792743 C14.8982844,22.6149777 14.7722079,22.6485198 14.645263,22.6798577 L14.7619331,22.6503734 C14.6439897,22.6808719 14.5252789,22.709463 14.4058355,22.7361117 L14.645263,22.6798577 C14.5335476,22.7074361 14.4211597,22.7333073 14.3081286,22.7574422 L14.4058355,22.7361117 C14.295103,22.760817 14.183741,22.783853 14.0717771,22.8051918 L14.0720005,22.8051493 C13.9280035,22.8325932 13.7832376,22.8571961 13.6375382,22.8789418 L13.9098264,22.8347979 C13.7859029,22.8564914 13.6612658,22.8761107 13.5359523,22.8936187 L13.6375382,22.8789418 C13.5337886,22.8944264 13.4295657,22.9084622 13.3248907,22.921028 L13.3250512,22.9210087 C12.8905388,22.9731701 12.4484026,23 12,23 C11.5846593,23 11.1746951,22.9769807 10.7713135,22.9321483 L10.7720852,22.9309476 L10.416262,22.8868354 C10.4096148,22.8858769 10.4029695,22.8849125 10.3963262,22.8839421 C10.0245743,22.8286948 9.65839279,22.7558375 9.29925133,22.6653023 L9.29905764,22.6659573 C8.94612303,22.576283 8.59980105,22.4701726 8.26121194,22.3479046 L8.26122119,22.3483062 C8.0158963,22.2593185 7.7746399,22.1622508 7.53779514,22.0570562 L7.64868333,22.105834 C7.53990392,22.0589336 7.43203215,22.0103283 7.32510171,21.9600517 L7.53779514,22.0570562 C7.44454472,22.015639 7.35197816,21.9729621 7.26011699,21.929047 L7.32510171,21.9600517 C7.23040136,21.9155255 7.13643931,21.8696884 7.04323895,21.8225638 L7.26011699,21.929047 C7.15720555,21.8798493 7.0551794,21.8290977 6.95406877,21.7768226 L6.95459866,21.7772384 L6.68269897,21.6317645 C6.6621571,21.6204 6.64165544,21.6089716 6.62119426,21.5974798 C6.41877753,21.483705 6.22078859,21.3641072 6.02700154,21.238575 L6.02749339,21.2389371 C5.82473482,21.1075498 5.62704576,20.9700595 5.43422581,20.8263975 L5.49548189,20.8717236 C5.40586318,20.8059065 5.3172783,20.7387642 5.22975613,20.6703255 L5.43422581,20.8263975 C5.34477012,20.7597479 5.25636244,20.6917699 5.16903185,20.6224929 L5.22975613,20.6703255 C5.15334722,20.6105769 5.07774828,20.5498402 5.00297853,20.4881348 L5.0030352,20.4881788 C4.94255136,20.4382658 4.88266578,20.3877641 4.82333193,20.3366397 C4.68975753,20.2215309 4.55952605,20.1037846 4.43218176,19.9830235 C4.03492073,19.6062559 3.66615846,19.2006553 3.32889076,18.7692415 L3.38279989,18.837203 C3.30275494,18.736499 3.22443862,18.6343552 3.14789594,18.5308166 L3.14754768,18.5306778 C2.92526467,18.2296652 2.71763822,17.916714 2.52612399,17.5930732 L2.54160948,17.6192804 C2.47802578,17.5124864 2.41619938,17.4045242 2.35617016,17.2954338 L2.52612399,17.5930732 C2.44947348,17.4635412 2.37540395,17.3322968 2.3039864,17.1994112 L2.35617016,17.2954338 C2.30743229,17.206863 2.2598791,17.1175485 2.21353193,17.0275116 L2.3039864,17.1994112 C2.24220916,17.0844632 2.18241626,16.9682872 2.12465365,16.8509292 L2.21353193,17.0275116 C2.1608886,16.9252433 2.10980122,16.8220431 2.06030108,16.7179422 L2.12465365,16.8509292 C2.08544035,16.7712584 2.04716273,16.6910429 2.00983519,16.6102971 L2.06030108,16.7179422 C1.99750584,16.5858811 1.93726496,16.4523705 1.8796423,16.3174742 L2.00983519,16.6102971 C1.94550081,16.4711308 1.88398859,16.3303894 1.82537214,16.1881464 L1.8796423,16.3174742 C1.83773244,16.219362 1.79720758,16.1205169 1.75809231,16.0209633 L1.82537214,16.1881464 C1.78278496,16.0848012 1.74172634,15.9806635 1.70222452,15.8757615 L1.70214339,15.8755262 C1.5709286,15.5270888 1.45683147,15.1699727 1.36096971,14.8054522 L1.39485866,14.9312359 C1.35601185,14.7903767 1.31989619,14.6483848 1.28657225,14.5053207 L1.36096971,14.8054522 C1.32743047,14.6779171 1.29612342,14.5494756 1.26709294,14.4201723 L1.28657225,14.5053207 C1.26199205,14.3997947 1.23893074,14.2936854 1.21741263,14.187017 L1.26709294,14.4201723 C1.23749506,14.2883417 1.21026362,14.1556152 1.18544567,14.02204 L1.21741263,14.187017 C1.18858705,14.0441245 1.16253075,13.9002288 1.13930215,13.7553883 L1.1392853,13.7552917 C1.11807069,13.6230008 1.09920159,13.489824 1.08273944,13.3559026 C1.08073082,13.3395566 1.07884633,13.3239412 1.07699459,13.3083157 L1.08273944,13.3559026 C1.06902602,13.2443422 1.05698287,13.1322651 1.04663577,13.019697 L1.07699459,13.3083157 C1.06120191,13.1750525 1.04779141,13.0410587 1.03680698,12.9063783 L1.03683543,12.9067266 L1.0145132,12.5699916 L1.0145132,12.5699916 L1.0037074,12.2884075 L1.0037074,12.2884075 L1,12 C1,11.5698503 1.02469007,11.1454673 1.07273033,10.7281909 L1.07211792,10.7278123 C1.08977612,10.5801316 1.10976169,10.432967 1.13262718,10.286757 L1.12555266,10.3289445 C1.13458273,10.2697848 1.14408393,10.2107795 1.1540523,10.1519326 L1.13262718,10.286757 C1.14893275,10.1824934 1.16670284,10.0787152 1.18591573,9.97544408 L1.1540523,10.1519326 C1.17430185,10.0323923 1.19647921,9.91350576 1.22055135,9.79530621 L1.18591573,9.97544408 C1.21146011,9.83814067 1.2395549,9.7017337 1.27014911,9.56627418 L1.26971211,9.56646001 C1.32207418,9.33636969 1.38119894,9.10919438 1.44727399,8.88499764 L1.41548202,8.99398139 C1.44227012,8.89953408 1.47028785,8.80560272 1.49951685,8.71220584 L1.44727399,8.88499764 C1.49086659,8.73708526 1.53748438,8.59046933 1.58705575,8.44522148 L1.58674425,8.44555104 C1.62438554,8.3358424 1.66339025,8.22723914 1.70403932,8.11944228 L1.64186492,8.28804136 C1.6805376,8.18018245 1.72084651,8.07310169 1.7627618,7.96682919 L1.70403932,8.11944228 C1.74806166,8.00269987 1.79401258,7.88690326 1.84185325,7.77209129 L1.7627618,7.96682919 C1.8004875,7.87117904 1.8395145,7.77618364 1.87982105,7.68186492 L1.84185325,7.77209129 C1.89553785,7.64325455 1.95160208,7.5156577 2.00999102,7.38935563 L1.87982105,7.68186492 C1.94967269,7.51840965 2.0233672,7.35698668 2.10079132,7.19771019 L2.00999102,7.38935563 C2.05395813,7.29424968 2.09924339,7.19987789 2.14582336,7.10626369 L2.10079132,7.19771019 C2.13694839,7.12332803 2.17391886,7.049414 2.21169116,6.97597971 L2.14582336,7.10626369 C2.2095313,6.97822653 2.27566119,6.85160655 2.34415305,6.72646372 L2.21169116,6.97597971 C2.26105562,6.8800088 2.3117896,6.78485729 2.36386737,6.69055113 L2.34415305,6.72646372 C2.40588002,6.61368115 2.46952543,6.50209834 2.53504538,6.39175918 L2.36386737,6.69055113 C2.42528075,6.57933938 2.48856288,6.46930324 2.55367152,6.36048527 L2.53504538,6.39175918 C2.59961972,6.28301251 2.66601488,6.17547385 2.73418884,6.06918523 L2.55367152,6.36048527 C2.62028844,6.24914648 2.68881747,6.13908295 2.75921339,6.03034028 L2.75913726,6.0304671 C2.9027896,5.8085538 3.05413163,5.5922618 3.21285568,5.38185108 L3.13345739,5.48843311 C3.197113,5.40190136 3.26200494,5.31633532 3.32810713,5.23176104 L3.32790503,5.23201961 C3.63291805,4.8417715 3.96346312,4.47286997 4.31718839,4.12761041 L4.40008308,4.04828119 L4.40008308,4.04828119 C4.67240897,3.7878096 4.95810237,3.54120291 5.25603005,3.30959121 L5.17177599,3.3753254 C5.25820632,3.30680541 5.34569059,3.23955708 5.43420053,3.17360869 L5.25603005,3.30959121 C5.3350687,3.24814583 5.41496842,3.18775583 5.49570805,3.12844229 L5.49548189,3.12827637 C5.6900681,2.98566007 5.88929525,2.84911581 6.09309434,2.71910383 L6.09306692,2.71891438 C6.2657588,2.60895395 6.44170498,2.50349292 6.62075339,2.40289975 C6.73117344,2.34075119 6.84232208,2.2808178 6.95459866,2.22276161 L6.68301316,2.3681864 C6.80163837,2.30255021 6.92160544,2.2390428 7.04286278,2.17771562 L6.95459866,2.22276161 C7.05552277,2.17057557 7.15735825,2.1199063 7.26007494,2.07078397 L7.04286278,2.17771562 C7.13620977,2.13050439 7.23032141,2.08458524 7.32517418,2.03998161 L7.26007494,2.07078397 C7.35964886,2.0231646 7.46005089,1.97699895 7.56125355,1.9323145 L7.56080949,1.93256315 C7.68110532,1.87939583 7.80207999,1.82855454 7.9241319,1.77983628 C7.96769007,1.76248331 8.01122361,1.74542831 8.05489135,1.72864383 L7.9241319,1.77983628 C8.03397211,1.73599245 8.14468478,1.69386806 8.25623666,1.65349638 L8.05489135,1.72864383 C8.14143119,1.6953807 8.22849811,1.66318004 8.31607612,1.63205781 L8.25623666,1.65349638 C8.37337009,1.6111047 8.4914288,1.5706455 8.6103743,1.5321573 L8.31607612,1.63205781 C8.42293064,1.59408536 8.53054599,1.55771831 8.63889313,1.52298563 L8.63851478,1.52309374 L8.9430819,1.43033031 C9.05402562,1.39830051 9.16569015,1.36797017 9.27804549,1.3393693 L9.08423968,1.39060911 C9.17988354,1.36438215 9.27604815,1.33941408 9.37271457,1.3157238 L9.27804549,1.3393693 C9.38643926,1.31177688 9.49547599,1.28579412 9.60512871,1.26144797 L9.37271457,1.3157238 C9.48963007,1.28707104 9.60727963,1.26028747 9.72562973,1.23540652 L9.60512871,1.26144797 C9.70330775,1.23964932 9.80198062,1.21916271 9.90112797,1.20000747 L9.90143127,1.19994963 C10.0502055,1.17120574 10.2003557,1.145414 10.3515128,1.122698 L10.1543112,1.15417085 C10.2705512,1.13453274 10.387411,1.11671805 10.5048602,1.10075718 L10.3515128,1.122698 C10.4539199,1.10730818 10.5567892,1.0933301 10.6601003,1.0807842 L10.6598853,1.08081031 C11.0992746,1.02745168 11.5464315,1 12,1 C12.4153407,1 12.8253049,1.0230193 13.2286865,1.06785169 L13.2279148,1.06905237 L13.583738,1.11316461 C13.5903852,1.1141231 13.5970305,1.11508752 13.6036738,1.11605789 C13.9754257,1.17130523 14.3416072,1.24416246 14.7007487,1.33469767 L14.7009424,1.33404271 C15.053877,1.42371703 15.4001989,1.52982737 15.7387881,1.65209543 L15.7387788,1.65169381 C15.9761338,1.73780347 16.2096798,1.83145108 16.4391069,1.93271681 L16.3513167,1.89416599 C16.4600961,1.94106636 16.5679678,1.98967168 16.6748983,2.03994829 L16.4391069,1.93271681 C16.540174,1.97732633 16.6404418,2.02341421 16.739883,2.07095296 L16.6748983,2.03994829 C16.7695986,2.08447454 16.8635607,2.13031163 16.956761,2.17743618 L16.739883,2.07095296 C16.8427945,2.12015069 16.9448206,2.17090232 17.0459312,2.2231774 L16.956761,2.17743618 C17.0779142,2.23869437 17.1977802,2.3021281 17.3163077,2.36768601 L17.3170202,2.3681863 C17.337182,2.37923163 17.3580148,2.39084313 17.3788057,2.40252023 C17.5742102,2.512357 17.7654562,2.6275941 17.9527953,2.74836901 L17.9526694,2.74824293 C18.1621057,2.88330852 18.3665392,3.02516096 18.5657742,3.17360249 L18.5045181,3.12827637 C18.5852416,3.18756072 18.6651263,3.2479203 18.7441512,3.30933399 L18.5657742,3.17360249 C18.6552299,3.24025212 18.7436376,3.3082301 18.8309681,3.37750711 L18.7441512,3.30933399 C18.829452,3.37562506 18.913751,3.44314432 18.9970215,3.51186524 L18.9969648,3.51182124 C19.0370585,3.54490669 19.0768577,3.57822594 19.1164162,3.61182002 C19.2617498,3.73524737 19.4036328,3.86219424 19.5421304,3.99269448 C20.0193736,4.44238403 20.4563882,4.93422409 20.847251,5.46228933 C21.0715517,5.7655382 21.2808939,6.08080539 21.473876,6.40692678 L21.4356184,6.34264681 C21.4974164,6.44549539 21.5575805,6.54943751 21.6160747,6.65443725 L21.6155889,6.65364563 C21.6745534,6.75940921 21.7313632,6.86543823 21.7864681,6.97248844 L21.6825761,6.77566311 C21.7415686,6.88475316 21.7987713,6.99495568 21.8541448,7.10623114 L21.7864681,6.97248844 C21.8249543,7.04725424 21.862609,7.12251817 21.8994198,7.19826799 L21.8541448,7.10623114 C21.9007907,7.19996825 21.9461386,7.29446674 21.9901648,7.38970295 L21.8994198,7.19826799 C21.9768359,7.35757605 22.0505198,7.51903322 22.1203577,7.68252581 L21.9901648,7.38970295 C22.0484827,7.51585454 22.1044817,7.64330056 22.1581068,7.77198603 L22.1203577,7.68252581 C22.1605844,7.77669754 22.199535,7.87154458 22.237188,7.96704519 L22.1581068,7.77198603 C22.2059414,7.88677592 22.2518872,8.00255205 22.2959052,8.11927541 L22.2959607,8.11944228 C22.3801629,8.34270309 22.4573573,8.56960143 22.5272153,8.79969685 L22.5142364,8.75728361 C22.5421694,8.84795988 22.5689617,8.93913622 22.5945965,9.0307959 L22.5272153,8.79969685 C22.5653825,8.92541024 22.6013598,9.05207796 22.6351027,9.1796554 L22.5945965,9.0307959 C22.637471,9.1840978 22.6771075,9.33875173 22.7134278,9.49467928 L22.6351027,9.1796554 C22.6689162,9.30750012 22.700486,9.43625837 22.7297672,9.56588525 L22.7134278,9.49467928 C22.736625,9.59426829 22.7584695,9.69437684 22.7789408,9.79498451 L22.7297672,9.56588525 C22.7597655,9.6986868 22.7873618,9.83240004 22.8125079,9.9669767 L22.7789408,9.79498451 C22.8030495,9.91346855 22.8252537,10.0326448 22.8455199,10.15248 L22.8125079,9.9669767 C22.8322033,10.0723825 22.8503955,10.178318 22.8670615,10.2847599 L22.8455199,10.15248 C22.8704212,10.2997226 22.8923967,10.44796 22.9113847,10.5971302 L22.8670615,10.2847599 C22.88653,10.4091004 22.9039157,10.534132 22.9191819,10.6598177 L22.9113847,10.5971302 C22.9273067,10.7222143 22.941128,10.8479543 22.9528121,10.9743137 L22.9191819,10.6598177 C22.9366439,10.8035816 22.9513327,10.9482014 22.963193,11.0936217 L22.9528121,10.9743137 C22.9636012,11.0909942 22.972568,11.2082029 22.9796838,11.325911 L22.9796834,11.3259045 C22.9931628,11.5488803 23,11.7736417 23,12 C23,12.4146519 22.977057,12.8239451 22.9323712,13.2266796 L22.95075,13.0552293 C22.9391504,13.1767853 22.9255731,13.2977669 22.9100505,13.4181413 L22.9323712,13.2266796 C22.9151517,13.3818718 22.8947035,13.5360901 22.8710954,13.6892658 L22.9100505,13.4181413 C22.895465,13.5312495 22.8791619,13.6438216 22.8611683,13.7558304 L22.8606978,13.7553883 Z M12,17.5 C11.1899644,17.5 10.3972327,17.5740868 9.62821133,17.7158539 C10.1953023,19.09222 10.961323,20.3647673 11.8902125,21.4987533 L12,21.5 L12,21.5 L12.109,21.498 L12.1785252,21.4142172 C13.0765105,20.3016509 13.8187554,19.0581456 14.372125,17.7168361 C13.6027673,17.5740868 12.8100356,17.5 12,17.5 Z M8.15519518,18.0771997 L7.89099453,18.1627486 C7.13085399,18.4157971 6.40191285,18.7371328 5.71144739,19.1194794 C6.86871063,20.1437459 8.277895,20.8890964 9.83403853,21.2519755 C9.1660436,20.2643623 8.60067073,19.2010707 8.15519518,18.0771997 Z M15.8449099,18.0779755 L15.7326617,18.3527915 C15.3057877,19.3751587 14.7789881,20.3453941 14.1644668,21.2512937 C15.722105,20.8890964 17.1312894,20.1437459 18.289022,19.1204167 C17.5184975,18.6930599 16.7005854,18.3425273 15.8449099,18.0779755 Z M7.01676176,12.7504414 L2.52922998,12.750755 C2.68447441,14.7365152 3.4502877,16.5508035 4.63907697,18.006027 C5.58503835,17.4462172 6.59977401,16.9921794 7.66759555,16.6582993 C7.30025492,15.4106367 7.07724681,14.1016849 7.01676176,12.7504414 Z M21.47077,12.750755 L16.9832382,12.7504414 C16.9227532,14.1016849 16.6997451,15.4106367 16.3332919,16.6582188 C17.400226,16.9921794 18.4149617,17.4462172 19.3607795,18.0045807 C20.5497123,16.5508035 21.3155256,14.7365152 21.47077,12.750755 Z M15.4815499,12.7505349 L8.5184501,12.7505349 C8.5786996,13.9732041 8.78534369,15.157376 9.1212205,16.2858887 C10.0522872,16.0982822 11.0146661,16 12,16 C12.9853339,16 13.9477128,16.0982822 14.8778683,16.2855781 C15.2146563,15.157376 15.4213004,13.9732041 15.4815499,12.7505349 Z M4.63922055,5.99541928 L4.60960946,6.03022551 C3.43743852,7.47952387 2.68293246,9.2805506 2.52915184,11.2502451 L7.01671701,11.250559 C7.07713675,9.89896113 7.30016449,8.58967115 7.66670805,7.34178123 C6.59977401,7.0078206 5.58503835,6.55378278 4.63922055,5.99541928 Z M14.8787795,7.71411134 L14.7729403,7.73514576 C13.8753988,7.90896095 12.9483311,8 12,8 C11.0146661,8 10.0522872,7.90171785 9.12213166,7.71442192 C8.78525189,8.84293242 8.57858664,10.0274432 8.51840073,11.2504677 L15.4815993,11.2504677 C15.4214134,10.0274432 15.2147481,8.84293242 14.8787795,7.71411134 Z M19.360923,5.99397299 L19.2334495,6.06971753 C18.3240783,6.59416009 17.3524629,7.02275487 16.3324044,7.34170075 C16.6998355,8.58967115 16.9228633,9.89896113 16.983283,11.250559 L21.4708482,11.2502451 C21.3157827,9.26409397 20.5499119,7.4494408 19.360923,5.99397299 Z M12,2.5 L11.89,2.501 L11.8214748,2.58578282 C10.9234895,3.69834908 10.1812446,4.94185436 9.62787505,6.28316393 C10.3972327,6.42591324 11.1899644,6.5 12,6.5 C12.8100356,6.5 13.6027673,6.42591324 14.3717887,6.28414612 C13.8046977,4.90778002 13.038677,3.63523271 12.1097875,2.50124667 C12.0729903,2.50020606 12.0365192,2.5 12,2.5 Z M9.83553317,2.74870625 L9.64150768,2.79505864 C8.1616329,3.17310191 6.82077528,3.89862453 5.71097804,4.87958327 C6.48150247,5.30694012 7.2994146,5.65747267 8.15509012,5.92202453 C8.60067073,4.79892927 9.1660436,3.73563773 9.83553317,2.74870625 Z M14.1659615,2.74802452 L14.3268937,2.99278006 C14.9257813,3.91025173 15.4358222,4.89099561 15.8448048,5.92280025 C16.7005854,5.65747267 17.5184975,5.30694012 18.2885526,4.88052055 C17.1312894,3.85625409 15.722105,3.11090363 14.1659615,2.74802452 Z" id="path-1"></path>
    </defs>
    <g id="Public/ic_public_worldclock" stroke="none" stroke-width="1" fill="none" fill-rule="evenodd">
        <mask id="mask-2" fill="white">
            <use xlink:href="#path-1"></use>
        </mask>
        <use id="Combined-Shape" fill="#000000" xlink:href="#path-1"></use>
    </g>
</svg>