<?xml version="1.0" encoding="UTF-8"?>
<svg xmlns="http://www.w3.org/2000/svg" xmlns:xlink="http://www.w3.org/1999/xlink" width="24" height="24" viewBox="0 0 24 24" version="1.1">
    <title>Public/ic_public_sound</title>
    <defs>
        <path d="M19.6297132,3.97021633 C21.767174,6.11208412 22.9900393,9.00753275 22.9900393,12.0946605 C22.9900393,15.1739324 21.7734214,18.0626391 19.6455849,20.2031692 C19.3535641,20.4969322 18.8786924,20.4983444 18.5849295,20.2063235 C18.2911665,19.9143026 18.2897543,19.4394309 18.5817752,19.145668 C20.4329978,17.2834019 21.4900393,14.7735894 21.4900393,12.0946605 C21.4900393,9.4089026 20.4275654,6.89322181 18.5679613,5.02978367 C18.2753698,4.73658898 18.2758589,4.2617155 18.5690535,3.96912406 C18.8622482,3.67653262 19.3371217,3.67702165 19.6297132,3.97021633 Z M7.67146054,5.77188408 C8.4325828,5.17622318 9.53247286,5.31035612 10.1281338,6.07147837 C10.3690847,6.37936011 10.5,6.75905937 10.5,7.15001783 L10.5,7.15001783 L10.5,17.045134 C10.5,18.0116323 9.71649831,18.795134 8.75,18.795134 C8.35904154,18.795134 7.97934229,18.6642187 7.67138834,18.4232113 L7.67138834,18.4232113 L4.38,15.8465759 L2.25,15.8475759 C1.05913601,15.8475759 0.084355084,14.9224143 0.00519081254,13.7516247 L0.00519081254,13.7516247 L0,13.5975759 L0,10.5975759 C0,9.35493524 1.00735931,8.34757593 2.24981101,8.34757595 L2.24981101,8.34757595 L4.379,8.34657593 Z M16.4901783,6.49794378 C17.9618152,7.97261488 18.8039928,9.96668727 18.8039928,12.0921781 C18.8039928,14.2122592 17.966117,16.2016903 16.5011051,17.6754418 C16.2090842,17.9692047 15.7342125,17.9706169 15.4404496,17.678596 C15.1466866,17.3865751 15.1452744,16.9117035 15.4372953,16.6179406 C16.6256934,15.4224531 17.3039928,13.8119162 17.3039928,12.0921781 C17.3039928,10.3680571 16.6222066,8.75375258 15.4284264,7.55751111 C15.1358349,7.26431643 15.136324,6.78944294 15.4295187,6.4968515 C15.7227133,6.20426006 16.1975868,6.20474909 16.4901783,6.49794378 Z M8.94687625,6.99594076 C8.86178184,6.88720901 8.70465469,6.86804716 8.59586895,6.95318383 L8.59586895,6.95318383 L4.89763507,9.84690879 L2.25,9.84757593 C1.83578644,9.84757593 1.5,10.1833624 1.5,10.5975759 L1.5,10.5975759 L1.5,13.5975759 C1.5,14.0117895 1.83578644,14.3475759 2.24981101,14.347576 L2.24981101,14.347576 L4.89755819,14.3469088 L8.59592293,17.2420103 C8.63990604,17.2764318 8.69414879,17.295134 8.75,17.295134 C8.88807119,17.295134 9,17.1832052 9,17.045134 L9,17.045134 L9,7.15001783 C9,7.09416662 8.98129781,7.03992387 8.94687625,6.99594076 Z M13.6408603,9.2089851 C14.3913218,9.97869506 14.819589,11.0098911 14.819589,12.1067087 C14.819589,13.2171715 14.3805594,14.2600877 13.613475,15.0322585 C13.3215512,15.326118 12.8466801,15.3276871 12.5528206,15.0357634 C12.2589611,14.7438396 12.2573919,14.2689685 12.5493157,13.975109 C13.0399975,13.4811736 13.319589,12.817003 13.319589,12.1067087 C13.319589,11.4051196 13.0468694,10.7484563 12.5668561,10.2561312 C12.2776947,9.9595531 12.2837071,9.48471743 12.5802852,9.19555603 C12.8768633,8.90639462 13.3516989,8.91240702 13.6408603,9.2089851 Z" id="_path-1"/>
    </defs>
    <g id="_Public/ic_public_sound" stroke="none" stroke-width="1" fill="none" fill-rule="evenodd">
        <mask id="_mask-2" fill="white">
            <use xlink:href="#_path-1"/>
        </mask>
        <use id="_合并形状" fill="#000000" fill-rule="nonzero" xlink:href="#_path-1"/>
    </g>
</svg>