<?xml version="1.0" encoding="UTF-8"?>
<svg width="24px" height="24px" viewBox="0 0 24 24" version="1.1" xmlns="http://www.w3.org/2000/svg" xmlns:xlink="http://www.w3.org/1999/xlink">
    <title>Public/ic_public_email_send</title>
    <defs>
        <path d="M2.99429676,3.11382132 C3.45567902,2.89057184 3.99174069,2.88081655 4.46094019,3.08713122 L4.46094019,3.08713122 L20.9442032,10.3350909 C21.8289462,10.7241268 22.2307961,11.7567285 21.8417602,12.6414715 C21.6654467,13.0424425 21.3451743,13.362715 20.9442032,13.5390284 L20.9442032,13.5390284 L4.46094019,20.7869881 C3.57619726,21.176024 2.54359549,20.774174 2.15455959,19.8894311 C1.94824492,19.4202316 1.95800021,18.8841699 2.18124969,18.4227877 L2.18124969,18.4227877 L5.31950519,11.9370597 L2.18124969,5.45133164 C1.76028079,4.58132924 2.12429436,3.53479023 2.99429676,3.11382132 Z M3.85715864,4.46024733 C3.79013014,4.43077381 3.7135499,4.43216742 3.64763815,4.4640602 C3.5233521,4.52419862 3.47135016,4.67370419 3.53148857,4.79799025 L3.53148857,4.79799025 L6.501128,10.9350999 L18.1858912,11.6224023 C18.3260333,11.630646 18.4354598,11.7466985 18.4354598,11.8870828 C18.4354598,12.0274671 18.3260333,12.1435197 18.1858912,12.1517633 L6.550128,12.8350999 L3.53148857,19.0761291 C3.51022672,19.1200702 3.50252005,19.1687529 3.50847759,19.216186 L3.5276757,19.2856496 C3.58325226,19.4120414 3.7307668,19.4694485 3.85715864,19.413872 L3.85715864,19.413872 L20.3404217,12.1659123 C20.3977033,12.1407247 20.4434565,12.0949715 20.4686441,12.0376899 C20.5242207,11.9112981 20.4668135,11.7637835 20.3404217,11.708207 L20.3404217,11.708207 Z" id="path-1"></path>
    </defs>
    <g id="Public/ic_public_email_send" stroke="none" stroke-width="1" fill="none" fill-rule="evenodd">
        <mask id="mask-2" fill="white">
            <use xlink:href="#path-1"></use>
        </mask>
        <use id="形状结合" fill="#000000" fill-rule="nonzero" transform="translate(11.998180, 11.937280) rotate(-90.000000) translate(-11.998180, -11.937280) " xlink:href="#path-1"></use>
    </g>
</svg>