<?xml version="1.0" encoding="UTF-8"?>
<svg width="24px" height="24px" viewBox="0 0 24 24" version="1.1" xmlns="http://www.w3.org/2000/svg" xmlns:xlink="http://www.w3.org/1999/xlink">
    <title>Public/ic_public_quit</title>
    <defs>
        <path d="M18,2.25 L18.1991586,2.25519801 C20.1776389,2.35872626 21.75,3.99574083 21.75,6 C21.75,6.41421356 21.4142136,6.75 21,6.75 C20.5857864,6.75 20.25,6.41421356 20.25,6 C20.25,4.75735931 19.2426407,3.75 18,3.75 L18,3.75 L6,3.75 L5.84595119,3.75519081 C4.67516159,3.83435508 3.75,4.80913601 3.75,6 L3.75,6 L3.75,18 L3.75519081,18.1540488 C3.83435508,19.3248384 4.80913601,20.25 6,20.25 L6,20.25 L18,20.25 L18.1540488,20.2448092 C19.3248384,20.1656449 20.25,19.190864 20.25,18 C20.25,17.5857864 20.5857864,17.25 21,17.25 C21.4142136,17.25 21.75,17.5857864 21.75,18 C21.75,20.0710678 20.0710678,21.75 18,21.75 L18,21.75 L6,21.75 L5.80084143,21.744802 C3.82236105,21.6412737 2.25,20.0042592 2.25,18 L2.25,18 L2.25,6 L2.25519801,5.80084143 C2.35872626,3.82236105 3.99574083,2.25 6,2.25 L6,2.25 L18,2.25 Z M17.6338835,7.46966991 C17.9163162,7.18723717 18.367963,7.17715028 18.6624825,7.43940926 L18.6624825,7.43940926 L18.6945436,7.46966991 L21.9874369,10.7625631 L22.0987256,10.8847175 C22.6559894,11.5570154 22.6328344,12.5483967 22.0292606,13.1941781 L22.0292606,13.1941781 L21.9874369,13.2374369 L18.6945436,16.5303301 L18.6104252,16.6029482 C18.3168137,16.8208027 17.90015,16.7965966 17.6338835,16.5303301 C17.3514507,16.2478973 17.3413638,15.7962506 17.6036228,15.5017311 L17.6036228,15.5017311 L17.6338835,15.4696699 L20.354,12.75 L11.9623439,12.75 C11.5691301,12.75 11.25,12.414 11.25,12 C11.25,11.586 11.5691301,11.25 11.9623439,11.25 L11.9623439,11.25 L20.353,11.25 L17.6338835,8.53033009 L17.5612653,8.44621165 C17.3434109,8.15260016 17.3676169,7.73593648 17.6338835,7.46966991 Z" id="path-1"></path>
    </defs>
    <g id="Public/ic_public_quit" stroke="none" stroke-width="1" fill="none" fill-rule="evenodd">
        <mask id="mask-2" fill="white">
            <use xlink:href="#path-1"></use>
        </mask>
        <use id="形状结合" fill="#000000" fill-rule="nonzero" xlink:href="#path-1"></use>
    </g>
</svg>