<?xml version="1.0" encoding="UTF-8"?>
<svg width="24px" height="24px" viewBox="0 0 24 24" version="1.1" xmlns="http://www.w3.org/2000/svg" xmlns:xlink="http://www.w3.org/1999/xlink">
    <title>Public/ic_public_connection</title>
    <defs>
        <path d="M16.447592,14.0940386 C16.8470122,14.0940386 17.1735072,14.4062686 17.1963188,14.7999704 L17.197592,14.8440386 L17.197592,18.5940386 C17.197592,21.3554623 14.9590157,23.5940386 12.197592,23.5940386 C9.46493306,23.5940386 7.24428571,21.4018564 7.19831874,18.6801609 L7.19759198,14.8440386 C7.19759198,14.429825 7.53337841,14.0940386 7.94759198,14.0940386 C8.3470122,14.0940386 8.6735072,14.4062686 8.6963188,14.7999704 L8.69759198,14.8440386 L8.69759198,18.5940386 C8.69759198,20.5270352 10.2645954,22.0940386 12.197592,22.0940386 C14.104467,22.0940386 15.6551737,20.5691005 15.6967365,18.6721998 L15.697592,14.8440386 C15.697592,14.429825 16.0333784,14.0940386 16.447592,14.0940386 Z M12.197592,6.84403858 C12.6118055,6.84403858 12.947592,7.17982502 12.947592,7.59403858 L12.947592,16.0940386 C12.947592,16.5082521 12.6118055,16.8440386 12.197592,16.8440386 C11.7833784,16.8440386 11.447592,16.5082521 11.447592,16.0940386 L11.447592,7.59403858 C11.447592,7.17982502 11.7833784,6.84403858 12.197592,6.84403858 Z M12.197592,0.0940385849 C14.9302509,0.0940385849 17.1508982,2.28622073 17.1968652,5.00791623 L17.197592,8.84403858 C17.197592,9.25825215 16.8618055,9.59403858 16.447592,9.59403858 C16.0481718,9.59403858 15.7216768,9.28180859 15.6988651,8.88810678 L15.697592,8.84403858 L15.697592,5.09403858 C15.697592,3.16104196 14.1305886,1.59403858 12.197592,1.59403858 C10.2907169,1.59403858 8.74001025,3.11897668 8.69844749,5.01587733 L8.69759198,5.09403858 L8.69759198,8.84403858 C8.69759198,9.25825215 8.36180554,9.59403858 7.94759198,9.59403858 C7.54817175,9.59403858 7.22167676,9.28180859 7.19886515,8.88810678 L7.19759198,8.84403858 L7.19759198,5.09403858 C7.19759198,2.33261484 9.43616823,0.0940385849 12.197592,0.0940385849 Z" id="path-1"></path>
    </defs>
    <g id="Public/ic_public_connection" stroke="none" stroke-width="1" fill="none" fill-rule="evenodd">
        <mask id="mask-2" fill="white">
            <use xlink:href="#path-1"></use>
        </mask>
        <use id="蒙版" fill="#000000" fill-rule="nonzero" transform="translate(12.197592, 11.844039) rotate(-315.000000) translate(-12.197592, -11.844039) " xlink:href="#path-1"></use>
    </g>
</svg>