<?xml version="1.0" encoding="UTF-8"?>
<svg xmlns="http://www.w3.org/2000/svg" xmlns:xlink="http://www.w3.org/1999/xlink" width="24" height="24" viewBox="0 0 24 24" version="1.1">
    <title>Public/ic_public_ok_filled</title>
    <defs>
        <path d="M12.0857864,21.2352814 C11.6952621,21.6258057 11.0620972,21.6258057 10.6715729,21.2352814 C10.2928827,20.8565912 10.2814072,20.2497429 10.6371465,19.8572249 L10.6715729,19.8210678 L15.7716797,14.7194661 L15.8293222,14.6502093 C15.9534917,14.4658252 15.9414454,14.2170042 15.7931833,14.0451228 L15.767767,14.017767 L14.3536797,12.6034661 L11.1715729,9.42157288 L5.42157288,3.67157288 C5.03104858,3.28104858 5.03104858,2.6478836 5.42157288,2.25735931 C5.8002631,1.87866909 6.40711132,1.86719363 6.7996293,2.22293293 L6.83578644,2.25735931 L12.5786797,8.00046609 L12.5857864,8.00735931 L17.5355339,12.9571068 C18.3018457,13.7234186 18.3163044,14.956872 17.57891,15.7408118 L17.5355339,15.7855339 L12.0857864,21.2352814 Z" id="_path-1"/>
    </defs>
    <g id="_Public/ic_public_ok_filled" stroke="none" stroke-width="1" fill="none" fill-rule="evenodd">
        <mask id="_mask-2" fill="white">
            <use xlink:href="#_path-1"/>
        </mask>
        <use id="_形状结合" fill="#000000" fill-rule="nonzero" transform="translate(11.625000, 11.746320) rotate(-270.000000) translate(-11.625000, -11.746320) " xlink:href="#_path-1"/>
    </g>
</svg>