<?xml version="1.0" encoding="UTF-8"?>
<svg width="24px" height="24px" viewBox="0 0 24 24" version="1.1" xmlns="http://www.w3.org/2000/svg" xmlns:xlink="http://www.w3.org/1999/xlink">
    <title>Public/ic_public_app</title>
    <defs>
        <path d="M6.01980637,12.7504596 L7.36710401,12.75 C8.55605717,12.75 9.10734318,12.8974289 9.62499024,13.1742696 C10.1426373,13.4511103 10.5488897,13.8573627 10.8257304,14.3750098 L10.8776917,14.4757818 C11.1209805,14.9664447 11.25,15.5206495 11.25,16.632896 L11.25,17.867104 C11.25,19.0560572 11.1025711,19.6073432 10.8257304,20.1249902 C10.5488897,20.6426373 10.1426373,21.0488897 9.62499024,21.3257304 L9.52421823,21.3776917 C9.03355532,21.6209805 8.47935051,21.75 7.36710401,21.75 L6.13289599,21.75 C4.94394283,21.75 4.39265682,21.6025711 3.87500976,21.3257304 C3.35736271,21.0488897 2.95111026,20.6426373 2.67426959,20.1249902 L2.62230832,20.0242182 C2.38740875,19.5504747 2.25903377,19.017496 2.25045963,17.9801936 L2.25,16.632896 C2.25,15.4439428 2.39742891,14.8926568 2.67426959,14.3750098 C2.95111026,13.8573627 3.35736271,13.4511103 3.87500976,13.1742696 L3.97578177,13.1223083 C4.44952527,12.8874087 4.98250402,12.7590338 6.01980637,12.7504596 Z M16.5198064,12.7504596 L17.867104,12.75 C19.0560572,12.75 19.6073432,12.8974289 20.1249902,13.1742696 C20.6426373,13.4511103 21.0488897,13.8573627 21.3257304,14.3750098 L21.3776917,14.4757818 C21.6209805,14.9664447 21.75,15.5206495 21.75,16.632896 L21.75,17.867104 C21.75,19.0560572 21.6025711,19.6073432 21.3257304,20.1249902 C21.0488897,20.6426373 20.6426373,21.0488897 20.1249902,21.3257304 L20.0242182,21.3776917 C19.5335553,21.6209805 18.9793505,21.75 17.867104,21.75 L16.632896,21.75 C15.4439428,21.75 14.8926568,21.6025711 14.3750098,21.3257304 C13.8573627,21.0488897 13.4511103,20.6426373 13.1742696,20.1249902 L13.1223083,20.0242182 C12.8874087,19.5504747 12.7590338,19.017496 12.7504596,17.9801936 L12.75,16.632896 C12.75,15.4439428 12.8974289,14.8926568 13.1742696,14.3750098 C13.4511103,13.8573627 13.8573627,13.4511103 14.3750098,13.1742696 L14.4757818,13.1223083 C14.9495253,12.8874087 15.482504,12.7590338 16.5198064,12.7504596 Z M7.36761573,14.2499999 L6.03220465,14.2504084 L5.86406875,14.2529244 C5.24687011,14.2666673 4.93692836,14.3276696 4.69448301,14.4404982 L4.66322277,14.4555093 L4.58240805,14.4969894 C4.3261637,14.6340304 4.13403036,14.8261637 3.99698939,15.0824081 C3.83932927,15.3772068 3.76616296,15.6858557 3.75242281,16.3718463 L3.74999991,16.6323843 L3.75040839,17.9677953 L3.75292443,18.1359312 C3.76666726,18.7531299 3.82766959,19.0630716 3.94049824,19.305517 L3.95550931,19.3367772 L3.99698939,19.4175919 C4.13403036,19.6738363 4.3261637,19.8659696 4.58240805,20.0030106 C4.87720684,20.1606707 5.1858557,20.233837 5.87221194,20.2475771 L6.13289599,20.2499999 L7.36710401,20.2499999 L7.53743597,20.2489724 C8.21866339,20.2404021 8.55102876,20.1781418 8.80647543,20.0590542 L8.83677723,20.0444907 L8.91759195,20.0030106 C9.1738363,19.8659696 9.36596964,19.6738363 9.50301061,19.4175919 C9.66067073,19.1227932 9.73383704,18.8141443 9.74757712,18.1277881 L9.74999991,17.867104 L9.74999991,16.632896 L9.74897237,16.462564 C9.74040205,15.7813366 9.67814179,15.4489712 9.55905417,15.1935246 L9.54449069,15.1632228 L9.50301061,15.0824081 C9.36596964,14.8261637 9.1738363,14.6340304 8.91759195,14.4969894 C8.62279316,14.3393293 8.3141443,14.266163 7.62778806,14.2524229 L7.36761573,14.2499999 Z M17.8676157,14.2499999 L16.5322047,14.2504084 L16.3640688,14.2529244 C15.7468701,14.2666673 15.4369284,14.3276696 15.194483,14.4404982 L15.1632228,14.4555093 L15.0824081,14.4969894 C14.8261637,14.6340304 14.6340304,14.8261637 14.4969894,15.0824081 C14.3393293,15.3772068 14.266163,15.6858557 14.2524228,16.3718463 L14.2499999,16.6323843 L14.2504084,17.9677953 L14.2529244,18.1359312 C14.2666673,18.7531299 14.3276696,19.0630716 14.4404982,19.305517 L14.4555093,19.3367772 L14.4969894,19.4175919 C14.6340304,19.6738363 14.8261637,19.8659696 15.0824081,20.0030106 C15.3772068,20.1606707 15.6858557,20.233837 16.3722119,20.2475771 L16.632896,20.2499999 L17.867104,20.2499999 L18.037436,20.2489724 C18.7186634,20.2404021 19.0510288,20.1781418 19.3064754,20.0590542 L19.3367772,20.0444907 L19.4175919,20.0030106 C19.6738363,19.8659696 19.8659696,19.6738363 20.0030106,19.4175919 C20.1606707,19.1227932 20.233837,18.8141443 20.2475771,18.1277881 L20.2499999,17.867104 L20.2499999,16.632896 L20.2489724,16.462564 C20.2404021,15.7813366 20.1781418,15.4489712 20.0590542,15.1935246 L20.0444907,15.1632228 L20.0030106,15.0824081 C19.8659696,14.8261637 19.6738363,14.6340304 19.4175919,14.4969894 C19.1227932,14.3393293 18.8141443,14.266163 18.1277881,14.2524229 L17.8676157,14.2499999 Z M6.01980637,2.25045963 L7.36710401,2.25 C8.55605717,2.25 9.10734318,2.39742891 9.62499024,2.67426959 C10.1426373,2.95111026 10.5488897,3.35736271 10.8257304,3.87500976 L10.8776917,3.97578177 C11.1209805,4.46644468 11.25,5.02064949 11.25,6.13289599 L11.25,7.36710401 C11.25,8.55605717 11.1025711,9.10734318 10.8257304,9.62499024 C10.5488897,10.1426373 10.1426373,10.5488897 9.62499024,10.8257304 L9.52421823,10.8776917 C9.03355532,11.1209805 8.47935051,11.25 7.36710401,11.25 L6.13289599,11.25 C4.94394283,11.25 4.39265682,11.1025711 3.87500976,10.8257304 C3.35736271,10.5488897 2.95111026,10.1426373 2.67426959,9.62499024 L2.62230832,9.52421823 C2.38740875,9.05047473 2.25903377,8.51749598 2.25045963,7.48019363 L2.25,6.13289599 C2.25,4.94394283 2.39742891,4.39265682 2.67426959,3.87500976 C2.95111026,3.35736271 3.35736271,2.95111026 3.87500976,2.67426959 L3.97578177,2.62230832 C4.44952527,2.38740875 4.98250402,2.25903377 6.01980637,2.25045963 Z M16.5198064,2.25045963 L17.867104,2.25 C19.0560572,2.25 19.6073432,2.39742891 20.1249902,2.67426959 C20.6426373,2.95111026 21.0488897,3.35736271 21.3257304,3.87500976 L21.3776917,3.97578177 C21.6209805,4.46644468 21.75,5.02064949 21.75,6.13289599 L21.75,7.36710401 C21.75,8.55605717 21.6025711,9.10734318 21.3257304,9.62499024 C21.0488897,10.1426373 20.6426373,10.5488897 20.1249902,10.8257304 L20.0242182,10.8776917 C19.5335553,11.1209805 18.9793505,11.25 17.867104,11.25 L16.632896,11.25 C15.4439428,11.25 14.8926568,11.1025711 14.3750098,10.8257304 C13.8573627,10.5488897 13.4511103,10.1426373 13.1742696,9.62499024 L13.1223083,9.52421823 C12.8874087,9.05047473 12.7590338,8.51749598 12.7504596,7.48019363 L12.75,6.13289599 C12.75,4.94394283 12.8974289,4.39265682 13.1742696,3.87500976 C13.4511103,3.35736271 13.8573627,2.95111026 14.3750098,2.67426959 L14.4757818,2.62230832 C14.9495253,2.38740875 15.482504,2.25903377 16.5198064,2.25045963 Z M7.36761573,3.74999991 L6.03220465,3.75040839 L5.86406875,3.75292443 C5.24687011,3.76666726 4.93692836,3.82766959 4.69448301,3.94049824 L4.66322277,3.95550931 L4.58240805,3.99698939 C4.3261637,4.13403036 4.13403036,4.3261637 3.99698939,4.58240805 C3.83932927,4.87720684 3.76616296,5.1858557 3.75242281,5.87184631 L3.74999991,6.13238427 L3.75040839,7.46779535 L3.75292443,7.63593125 C3.76666726,8.25312989 3.82766959,8.56307164 3.94049824,8.80551699 L3.95550931,8.83677723 L3.99698939,8.91759195 C4.13403036,9.1738363 4.3261637,9.36596964 4.58240805,9.50301061 C4.87720684,9.66067073 5.1858557,9.73383704 5.87221194,9.74757712 L6.13289599,9.74999991 L7.36710401,9.74999991 L7.53743597,9.74897237 C8.21866339,9.74040205 8.55102876,9.67814179 8.80647543,9.55905417 L8.83677723,9.54449069 L8.91759195,9.50301061 C9.1738363,9.36596964 9.36596964,9.1738363 9.50301061,8.91759195 C9.66067073,8.62279316 9.73383704,8.3141443 9.74757712,7.62778806 L9.74999991,7.36710401 L9.74999991,6.13289599 L9.74897237,5.96256403 C9.74040205,5.28133661 9.67814179,4.94897124 9.55905417,4.69352457 L9.54449069,4.66322277 L9.50301061,4.58240805 C9.36596964,4.3261637 9.1738363,4.13403036 8.91759195,3.99698939 C8.62279316,3.83932927 8.3141443,3.76616296 7.62778806,3.75242288 L7.36761573,3.74999991 Z M17.8676157,3.74999991 L16.5322047,3.75040839 L16.3640688,3.75292443 C15.7468701,3.76666726 15.4369284,3.82766959 15.194483,3.94049824 L15.1632228,3.95550931 L15.0824081,3.99698939 C14.8261637,4.13403036 14.6340304,4.3261637 14.4969894,4.58240805 C14.3393293,4.87720684 14.266163,5.1858557 14.2524228,5.87184631 L14.2499999,6.13238427 L14.2504084,7.46779535 L14.2529244,7.63593125 C14.2666673,8.25312989 14.3276696,8.56307164 14.4404982,8.80551699 L14.4555093,8.83677723 L14.4969894,8.91759195 C14.6340304,9.1738363 14.8261637,9.36596964 15.0824081,9.50301061 C15.3772068,9.66067073 15.6858557,9.73383704 16.3722119,9.74757712 L16.632896,9.74999991 L17.867104,9.74999991 L18.037436,9.74897237 C18.7186634,9.74040205 19.0510288,9.67814179 19.3064754,9.55905417 L19.3367772,9.54449069 L19.4175919,9.50301061 C19.6738363,9.36596964 19.8659696,9.1738363 20.0030106,8.91759195 C20.1606707,8.62279316 20.233837,8.3141443 20.2475771,7.62778806 L20.2499999,7.36710401 L20.2499999,6.13289599 L20.2489724,5.96256403 C20.2404021,5.28133661 20.1781418,4.94897124 20.0590542,4.69352457 L20.0444907,4.66322277 L20.0030106,4.58240805 C19.8659696,4.3261637 19.6738363,4.13403036 19.4175919,3.99698939 C19.1227932,3.83932927 18.8141443,3.76616296 18.1277881,3.75242288 L17.8676157,3.74999991 Z" id="path-1"></path>
    </defs>
    <g id="Public/ic_public_app" stroke="none" stroke-width="1" fill="none" fill-rule="evenodd">
        <mask id="mask-2" fill="white">
            <use xlink:href="#path-1"></use>
        </mask>
        <use id="形状结合" fill="#000000" fill-rule="nonzero" xlink:href="#path-1"></use>
    </g>
</svg>