<?xml version="1.0" encoding="UTF-8"?>
<svg xmlns="http://www.w3.org/2000/svg" xmlns:xlink="http://www.w3.org/1999/xlink" width="24" height="24" viewBox="0 0 24 24" version="1.1">
    <title>Public/ic_public_share</title>
    <defs>
        <path d="M12.25,2 C13.9068542,2 15.25,3.34314575 15.25,5 C15.25,6.65685425 13.9068542,8 12.25,8 C11.9804725,8 11.7192467,7.96445647 11.4707541,7.89780096 L5.93230241,16.2050908 C6.40150564,16.6005646 6.74773454,17.1373071 6.90542312,17.7497523 L17.0945769,17.7497523 C17.4276951,16.4559576 18.6022096,15.5 20,15.5 C21.6568542,15.5 23,16.8431458 23,18.5 C23,20.1568542 21.6568542,21.5 20,21.5 C18.6025704,21.5 17.4283015,20.5445359 17.094835,19.2512495 L6.90516499,19.2512495 C6.57169851,20.5445359 5.39742955,21.5 4,21.5 C2.34314575,21.5 1,20.1568542 1,18.5 C1,16.8431458 2.34314575,15.5 4,15.5 C4.19240202,15.5 4.38057369,15.5181123 4.56290296,15.5527249 L10.1618944,7.15402617 C9.59951533,6.60875215 9.25,5.84519291 9.25,5 C9.25,3.34314575 10.5931458,2 12.25,2 Z M4,17 C3.17157288,17 2.5,17.6715729 2.5,18.5 C2.5,19.3284271 3.17157288,20 4,20 C4.82842712,20 5.5,19.3284271 5.5,18.5 C5.5,17.6715729 4.82842712,17 4,17 Z M20,17 C19.1715729,17 18.5,17.6715729 18.5,18.5 C18.5,19.3284271 19.1715729,20 20,20 C20.8284271,20 21.5,19.3284271 21.5,18.5 C21.5,17.6715729 20.8284271,17 20,17 Z M12.25,3.5 C11.4215729,3.5 10.75,4.17157288 10.75,5 C10.75,5.82842712 11.4215729,6.5 12.25,6.5 C13.0784271,6.5 13.75,5.82842712 13.75,5 C13.75,4.17157288 13.0784271,3.5 12.25,3.5 Z" id="_path-1"/>
    </defs>
    <g id="_Public/ic_public_share" stroke="none" stroke-width="1" fill="none" fill-rule="evenodd">
        <mask id="_mask-2" fill="white">
            <use xlink:href="#_path-1"/>
        </mask>
        <use id="_合并形状" fill="#000000" fill-rule="nonzero" xlink:href="#_path-1"/>
    </g>
</svg>