<?xml version="1.0" encoding="UTF-8"?>
<svg width="24px" height="24px" viewBox="0 0 24 24" version="1.1" xmlns="http://www.w3.org/2000/svg" xmlns:xlink="http://www.w3.org/1999/xlink">
    <title>Public/ic_public_email</title>
    <defs>
        <path d="M1.15822247,5.88238866 L2.5,7.224 L2.5,17 C2.5,18.35731 3.5816677,19.4619829 4.93002379,19.4990396 L5,19.5 L19,19.5 C20.35731,19.5 21.4619829,18.4183323 21.4990396,17.0699762 L21.5,17 L21.5,7.224 L22.8420657,5.88338131 C22.944885,6.23777439 23,6.6124508 23,7 L23,17 C23,19.209139 21.209139,21 19,21 L5,21 C2.790861,21 1,19.209139 1,17 L1,7 C1,6.61208894 1.05521793,6.23707472 1.15822247,5.88238866 Z M14.6516504,12.6590097 C13.2376832,14.072977 10.9754833,14.1217345 9.50301724,12.8052822 L9.34834957,12.6590097 L1.59252486,4.90390867 C2.29677166,3.76149679 3.55945728,3 5,3 L19,3 C20.4405427,3 21.7032283,3.76149679 22.4074751,4.90390867 L14.6516504,12.6590097 Z M19.0699762,4.50096045 L5,4.5 C4.51717065,4.5 4.06631009,4.63687468 3.68410349,4.87393886 L10.4090097,11.5983496 C11.2458475,12.4351873 12.5778704,12.4750368 13.4618686,11.7178978 L13.5909903,11.5983496 L20.3152865,4.87356061 C19.9517386,4.64821401 19.5261178,4.5134965 19.0699762,4.50096045 Z" id="path-1"></path>
    </defs>
    <g id="Public/ic_public_email" stroke="none" stroke-width="1" fill="none" fill-rule="evenodd">
        <mask id="mask-2" fill="white">
            <use xlink:href="#path-1"></use>
        </mask>
        <use id="形状结合" fill="#000000" fill-rule="nonzero" xlink:href="#path-1"></use>
    </g>
</svg>