<?xml version="1.0" encoding="UTF-8"?>
<svg xmlns="http://www.w3.org/2000/svg" xmlns:xlink="http://www.w3.org/1999/xlink" width="24" height="24" viewBox="0 0 24 24" version="1.1">
    <title>Public/ic_public_add</title>
    <defs>
        <path d="M12.75,21.25 C12.75,21.6642136 12.4142136,22 12,22 C11.5857864,22 11.25,21.6642136 11.25,21.25 L11.25,12.75 L2.75,12.75 C2.33578644,12.75 2,12.4142136 2,12 C2,11.5857864 2.33578644,11.25 2.75,11.25 L11.25,11.25 L11.25,2.75 C11.25,2.33578644 11.5857864,2 12,2 C12.4142136,2 12.75,2.33578644 12.75,2.75 L12.75,21.25 Z M21.25,11.25 C21.6642136,11.25 22,11.5857864 22,12 C22,12.4142136 21.6642136,12.75 21.25,12.75 L13.75,12.75 L13.75,11.25 L21.25,11.25 Z" id="_path-1"/>
    </defs>
    <g id="_Public/ic_public_add" stroke="none" stroke-width="1" fill="none" fill-rule="evenodd">
        <mask id="_mask-2" fill="white">
            <use xlink:href="#_path-1"/>
        </mask>
        <use id="_形状结合" fill="#000000" xlink:href="#_path-1"/>
    </g>
</svg>