<?xml version="1.0" encoding="UTF-8"?>
<svg xmlns="http://www.w3.org/2000/svg" xmlns:xlink="http://www.w3.org/1999/xlink" width="24" height="24" viewBox="0 0 24 24" version="1.1">
    <title>Public/ic_public_donotdisturb</title>
    <defs>
        <path d="M12.6591066,1.75136624 C13.5823848,1.71025849 14.1107611,2.78348556 13.511678,3.48309172 C12.3510916,4.8384185 11.6793701,6.53867969 11.620704,8.33996911 L11.6175072,8.47194753 L11.616397,8.60784572 L11.616397,9.0885577 C11.616397,13.4575882 15.1791309,16.9993873 19.5739858,16.9993873 L19.740827,16.9976876 L19.9071834,16.9925949 C20.828735,16.9549464 21.3537288,18.0262485 20.7558862,18.7244575 C18.8546225,20.944907 16.074454,22.2502194 13.0831077,22.2502194 C7.57577824,22.2502194 3.10077807,17.8562642 3.0118288,12.4023689 L3.01047935,12.2367784 L3.01047935,11.7560664 C3.01047935,6.46339239 7.15088233,2.1015083 12.4300006,1.7634386 L12.5903193,1.75442891 L12.6591066,1.75136624 Z M11.7007606,3.39159236 L11.73025,3.34825 L11.7197758,3.34988172 C7.65593303,3.99490381 4.5726675,7.46446132 4.51140857,11.6296382 L4.51047935,11.7560664 L4.51047935,12.2367784 C4.51047935,16.9366367 8.34660333,20.7502194 13.0831077,20.7502194 C15.2198461,20.7502194 17.2436122,19.9684755 18.8038338,18.5779714 L18.91525,18.4765 L18.7985835,18.4682048 C13.9907858,18.0799093 10.1970011,14.1128393 10.1176646,9.24424134 L10.116397,9.0885577 L10.1164471,8.59559182 L10.1176964,8.44812505 C10.146554,6.63131722 10.7000951,4.88345996 11.7007606,3.39159236 Z" id="_path-1"/>
    </defs>
    <g id="_Public/ic_public_donotdisturb" stroke="none" stroke-width="1" fill="none" fill-rule="evenodd">
        <mask id="_mask-2" fill="white">
            <use xlink:href="#_path-1"/>
        </mask>
        <use id="_路径" fill="#000000" fill-rule="nonzero" transform="translate(12.010479, 12.000219) rotate(-11.000000) translate(-12.010479, -12.000219) " xlink:href="#_path-1"/>
    </g>
</svg>