<?xml version="1.0" encoding="UTF-8"?>
<svg xmlns="http://www.w3.org/2000/svg" xmlns:xlink="http://www.w3.org/1999/xlink" width="24" height="24" viewBox="0 0 24 24" version="1.1">
    <title>Public/ic_public_keyboard</title>
    <defs>
        <path d="M19,3 C21.209139,3 23,4.790861 23,7 L23,17 C23,19.209139 21.209139,21 19,21 L5,21 C2.790861,21 1,19.209139 1,17 L1,7 C1,4.790861 2.790861,3 5,3 L19,3 Z M19,4.5 L5,4.5 C3.6745166,4.5 2.58996133,5.53153594 2.50531768,6.83562431 L2.5,7 L2.5,17 C2.5,18.3254834 3.53153594,19.4100387 4.83562431,19.4946823 L5,19.5 L19,19.5 C20.3254834,19.5 21.4100387,18.4684641 21.4946823,17.1643757 L21.5,17 L21.5,7 C21.5,5.61928813 20.3807119,4.5 19,4.5 Z M17.75,14.5 C18.1642136,14.5 18.5,14.8357864 18.5,15.25 C18.5,15.6642136 18.1642136,16 17.75,16 L6.25,16 C5.83578644,16 5.5,15.6642136 5.5,15.25 C5.5,14.8357864 5.83578644,14.5 6.25,14.5 L17.75,14.5 Z M12.25,11.25 C12.6642136,11.25 13,11.5857864 13,12 C13,12.4142136 12.6642136,12.75 12.25,12.75 L11.75,12.75 C11.3357864,12.75 11,12.4142136 11,12 C11,11.5857864 11.3357864,11.25 11.75,11.25 L12.25,11.25 Z M8.25,11.25 C8.66421356,11.25 9,11.5857864 9,12 C9,12.4142136 8.66421356,12.75 8.25,12.75 L7.75,12.75 C7.33578644,12.75 7,12.4142136 7,12 C7,11.5857864 7.33578644,11.25 7.75,11.25 L8.25,11.25 Z M16.25,11.25 C16.6642136,11.25 17,11.5857864 17,12 C17,12.4142136 16.6642136,12.75 16.25,12.75 L15.75,12.75 C15.3357864,12.75 15,12.4142136 15,12 C15,11.5857864 15.3357864,11.25 15.75,11.25 L16.25,11.25 Z M10.5,8 C10.9142136,8 11.25,8.33578644 11.25,8.75 C11.25,9.16421356 10.9142136,9.5 10.5,9.5 L10,9.5 C9.58578644,9.5 9.25,9.16421356 9.25,8.75 C9.25,8.33578644 9.58578644,8 10,8 L10.5,8 Z M14.25,8 C14.6642136,8 15,8.33578644 15,8.75 C15,9.16421356 14.6642136,9.5 14.25,9.5 L13.75,9.5 C13.3357864,9.5 13,9.16421356 13,8.75 C13,8.33578644 13.3357864,8 13.75,8 L14.25,8 Z M18,8 C18.4142136,8 18.75,8.33578644 18.75,8.75 C18.75,9.16421356 18.4142136,9.5 18,9.5 L17.5,9.5 C17.0857864,9.5 16.75,9.16421356 16.75,8.75 C16.75,8.33578644 17.0857864,8 17.5,8 L18,8 Z M6.5,8 C6.91421356,8 7.25,8.33578644 7.25,8.75 C7.25,9.16421356 6.91421356,9.5 6.5,9.5 L6,9.5 C5.58578644,9.5 5.25,9.16421356 5.25,8.75 C5.25,8.33578644 5.58578644,8 6,8 L6.5,8 Z" id="_path-1"/>
    </defs>
    <g id="_Public/ic_public_keyboard" stroke="none" stroke-width="1" fill="none" fill-rule="evenodd">
        <mask id="_mask-2" fill="white">
            <use xlink:href="#_path-1"/>
        </mask>
        <use id="_Mask" fill="#000000" xlink:href="#_path-1"/>
    </g>
</svg>