<?xml version="1.0" encoding="UTF-8"?>
<svg width="24px" height="24px" viewBox="0 0 24 24" version="1.1" xmlns="http://www.w3.org/2000/svg" xmlns:xlink="http://www.w3.org/1999/xlink">
    <title>Public/ic_public_refresh</title>
    <defs>
        <path d="M22.3414769,15.7576235 C22.3414769,15.7576235 22.3414769,15.7576235 22.3414769,15.7576235 C22.7675941,14.58516 23,13.3197207 23,12 L20.148111,12 C19.8719687,12 19.648111,12.2238576 19.648111,12.5 C19.648111,12.5930667 19.6740858,12.6842863 19.7231119,12.7633928 L21.6247463,15.831787 C21.7412468,16.0197728 21.9880826,16.0777198 22.1760669,15.9612167 C22.2524981,15.9138485 22.3107624,15.8421345 22.3414769,15.7576235 Z M22.823695,13.9714637 C22.9406935,13.3251822 23,12.6661847 23,12 C23,5.92486775 18.0751322,1 12,1 C11.2174632,1 10.44502,1.08183322 9.69172269,1.24274766 C4.65590569,2.31846601 1,6.78563595 1,12 C1,18.0751322 5.92486775,23 12,23 C13.0917435,23 14.1629676,22.8407032 15.1884731,22.530585 C16.7020101,22.0728837 18.0947944,21.2926603 19.2766337,20.2494437 C19.5871723,19.9753294 19.6167001,19.5013746 19.3425858,19.190836 C19.0684716,18.8802974 18.5945167,18.8507696 18.2839781,19.1248839 C17.2629258,20.0261728 16.0603686,20.6998329 14.7542841,21.0947995 C13.8691955,21.3624549 12.9442454,21.5 12,21.5 C6.75329488,21.5 2.5,17.2467051 2.5,12 C2.5,7.496884 5.65786226,3.63827588 10.0050734,2.70965302 C10.6555297,2.57070679 11.322948,2.5 12,2.5 C17.2467051,2.5 21.5,6.75329488 21.5,12 C21.5,12.5764741 21.4487412,13.1460473 21.3476867,13.7042571 C21.2738996,14.1118455 21.544499,14.5020775 21.9520875,14.5758645 C22.3596759,14.6496516 22.7499079,14.3790522 22.823695,13.9714637 Z" id="path-1"></path>
    </defs>
    <g id="Public/ic_public_refresh" stroke="none" stroke-width="1" fill="none" fill-rule="evenodd">
        <mask id="mask-2" fill="white">
            <use xlink:href="#path-1"></use>
        </mask>
        <use id="形状结合" fill="#000000" fill-rule="nonzero" xlink:href="#path-1"></use>
    </g>
</svg>