<?xml version="1.0" encoding="UTF-8"?>
<svg xmlns="http://www.w3.org/2000/svg" xmlns:xlink="http://www.w3.org/1999/xlink" width="24" height="24" viewBox="0 0 24 24" version="1.1">
    <title>Public/ic_public_volume_down</title>
    <defs>
        <path d="M15.1668552,3.18667572 L10.009,7.249 L6.49983114,7.25000002 C5.25735931,7.25 4.25,8.25735931 4.25,9.5 L4.25,14.5 L4.25519081,14.6540488 C4.33435508,15.8248384 5.30913601,16.75 6.5,16.75 L10.009,16.749 L15.1668226,20.8132986 C15.4755053,21.0565463 15.8570346,21.1888072 16.25,21.1888072 C17.2164983,21.1888072 18,20.4053055 18,19.4388072 L18,4.56119283 C18,4.16822738 17.8677391,3.78669814 17.6245171,3.47804801 C17.0263127,2.71892317 15.92598,2.58847135 15.1668552,3.18667572 Z M16.4463596,4.40645786 C16.4811056,4.45055073 16.5,4.50505491 16.5,4.56119283 L16.5,19.4388072 C16.5,19.5768784 16.3880712,19.6888072 16.25,19.6888072 C16.1938621,19.6888072 16.1393579,19.6699128 16.095265,19.6351668 L10.5299439,15.2490927 L6.49983114,15.25 C6.08578644,15.25 5.75,14.9142136 5.75,14.5 L5.75,9.5 C5.75,9.08578644 6.08578644,8.75 6.5,8.75 L10.5300104,8.74909269 L16.0951825,4.36489828 C16.1856233,4.29362928 16.3098567,4.29469276 16.3982104,4.35978529 L16.4463596,4.40645786 Z" id="_path-1"/>
    </defs>
    <g id="_Public/ic_public_volume_down" stroke="none" stroke-width="1" fill="none" fill-rule="evenodd">
        <mask id="_mask-2" fill="white">
            <use xlink:href="#_path-1"/>
        </mask>
        <use id="_形状结合" fill="#000000" fill-rule="nonzero" xlink:href="#_path-1"/>
    </g>
</svg>