<?xml version="1.0" encoding="UTF-8"?>
<svg width="24px" height="24px" viewBox="0 0 24 24" version="1.1" xmlns="http://www.w3.org/2000/svg" xmlns:xlink="http://www.w3.org/1999/xlink">
    <title>Public/ic_public_wireless projection</title>
    <defs>
        <path d="M12,16 C14.3472102,16 16.25,17.9027898 16.25,20.25 C16.25,20.6642136 15.9142136,21 15.5,21 L8.5,21 C8.12030423,21 7.80650904,20.7178461 7.75684662,20.3517706 L7.75,20.25 C7.75,17.9027898 9.65278981,16 12,16 Z M19.25,3 C21.2542592,3 22.8912737,4.57236105 22.994802,6.55084143 L23,6.75 L23,16.5 C23,18.5042592 21.4276389,20.1412737 19.4491586,20.244802 L19.25,20.25 L18,20.25 C17.5857864,20.25 17.25,19.9142136 17.25,19.5 C17.25,19.1203042 17.5321539,18.806509 17.8982294,18.7568466 L18,18.75 L19.25,18.75 C20.440864,18.75 21.4156449,17.8248384 21.4948092,16.6540488 L21.5,16.5 L21.5,6.75 C21.5,5.55913601 20.5748384,4.58435508 19.4040488,4.50519081 L19.25,4.5 L4.75,4.5 C3.55913601,4.5 2.58435508,5.42516159 2.50519081,6.59595119 L2.5,6.75 L2.5,16.5 C2.5,17.690864 3.42516159,18.6656449 4.59595119,18.7448092 L4.75,18.75 L6,18.75 C6.41421356,18.75 6.75,19.0857864 6.75,19.5 C6.75,19.8796958 6.46784612,20.193491 6.10177056,20.2431534 L6,20.25 L4.75,20.25 C2.74574083,20.25 1.10872626,18.6776389 1.00519801,16.6991586 L1,16.5 L1,6.75 C1,4.74574083 2.57236105,3.10872626 4.55084143,3.00519801 L4.75,3 L19.25,3 Z M16.2803301,14.7196699 C16.5732233,15.0125631 16.5732233,15.4874369 16.2803301,15.7803301 C15.9874369,16.0732233 15.5125631,16.0732233 15.2196699,15.7803301 C13.4414953,14.0021555 10.5585047,14.0021555 8.78033009,15.7803301 C8.48743687,16.0732233 8.01256313,16.0732233 7.71966991,15.7803301 C7.4267767,15.4874369 7.4267767,15.0125631 7.71966991,14.7196699 C10.0836309,12.3557089 13.9163691,12.3557089 16.2803301,14.7196699 Z" id="path-1"></path>
    </defs>
    <g id="Public/ic_public_wireless-projection" stroke="none" stroke-width="1" fill="none" fill-rule="evenodd">
        <mask id="mask-2" fill="white">
            <use xlink:href="#path-1"></use>
        </mask>
        <use id="形状结合" fill="#000000" xlink:href="#path-1"></use>
    </g>
</svg>