<?xml version="1.0" encoding="UTF-8"?>
<svg width="24px" height="24px" viewBox="0 0 24 24" version="1.1" xmlns="http://www.w3.org/2000/svg" xmlns:xlink="http://www.w3.org/1999/xlink">
    <title>Public/ic_public_upgrade</title>
    <defs>
        <path d="M9.91809407,2.70816548 L3.7213874,9.95790727 C3.44932,10.2762083 3.30040189,10.6815122 3.30165894,11.100242 L3.30790172,11.243751 C3.38362495,12.1428889 4.13877673,12.847721 5.05694593,12.844947 L7.499,12.836 L7.5,16.2500614 C7.5,17.2164983 8.28350169,18 9.25,18 L14.75,18 L14.8935272,17.9941988 C15.7928897,17.9211923 16.5,17.1681734 16.5,16.25 L16.499,12.809 L19.0041193,12.8028105 C19.4227218,12.8015459 19.826855,12.6503926 20.1434177,12.3767536 C20.8746071,11.7447085 20.9549795,10.6395886 20.3229344,9.90839916 L14.088991,2.69658227 C13.998578,2.5919869 13.9004061,2.49435868 13.7953101,2.40452808 C12.6407993,1.41771158 10.9049106,1.55365468 9.91809407,2.70816548 Z M15.5,19.5 C15.9142136,19.5 16.25,19.8357864 16.25,20.25 C16.25,20.6642136 15.9142136,21 15.5,21 L8.5,21 C8.08578644,21 7.75,20.6642136 7.75,20.25 C7.75,19.8357864 8.08578644,19.5 8.5,19.5 L15.5,19.5 Z M12.7123979,3.46184082 L12.8206978,3.54476084 C12.8684686,3.58559293 12.9130923,3.6299694 12.9541891,3.67751275 L19.1881325,10.8893296 C19.2784246,10.9937853 19.2669429,11.1516595 19.1624872,11.2419517 C19.117264,11.281043 19.0595307,11.3026363 18.9997541,11.3028169 L15.7475596,11.3119202 C15.3341434,11.3130774 14.9996253,11.6485605 14.9996589,12.0619783 L15,16.2500611 C15,16.3880712 14.8880712,16.5 14.75,16.5 L9.25,16.5 C9.11192881,16.5 9,16.3880712 9,16.25 L8.99965894,12.0848558 C8.99962495,11.6697462 8.66241132,11.3336174 8.24730373,11.334921 L5.05232487,11.3449542 C4.91434368,11.345371 4.80207722,11.2337809 4.80165895,11.0957103 C4.80147937,11.0358918 4.82275339,10.9779912 4.86162016,10.9325196 L11.0583268,3.68277784 C11.4769763,3.19298538 12.192228,3.10650458 12.7123979,3.46184082 Z" id="path-1"></path>
    </defs>
    <g id="Public/ic_public_upgrade" stroke="none" stroke-width="1" fill="none" fill-rule="evenodd">
        <mask id="mask-2" fill="white">
            <use xlink:href="#path-1"></use>
        </mask>
        <use id="蒙版" fill="#000000" fill-rule="nonzero" xlink:href="#path-1"></use>
    </g>
</svg>