<?xml version="1.0" encoding="UTF-8"?>
<svg xmlns="http://www.w3.org/2000/svg" xmlns:xlink="http://www.w3.org/1999/xlink" width="24" height="24" viewBox="0 0 24 24" version="1.1">
    <title>Public/ic_public_cancel_filled</title>
    <defs>
        <path d="M5.63603897,19.7781746 C5.24551468,20.1686989 4.6123497,20.1686989 4.2218254,19.7781746 C3.83130111,19.3876503 3.83130111,18.7544853 4.2218254,18.363961 L10.5857864,12 L4.2218254,5.63603897 C3.83130111,5.24551468 3.83130111,4.6123497 4.2218254,4.22182541 C4.61234969,3.83130112 5.24551467,3.83130112 5.63603896,4.22182541 L12,10.5857864 L18.363961,4.22182541 C18.7544853,3.83130112 19.3876503,3.83130112 19.7781746,4.22182541 C20.1686989,4.6123497 20.1686989,5.24551468 19.7781746,5.63603897 L5.63603897,19.7781746 Z M19.7781746,18.363961 C20.1686989,18.7544853 20.1686989,19.3876503 19.7781746,19.7781746 C19.3876503,20.1686989 18.7544853,20.1686989 18.363961,19.7781746 L12.7071068,14.1213203 L14.1213203,12.7071068 L19.7781746,18.363961 Z" id="_path-1"/>
    </defs>
    <g id="_Public/ic_public_cancel_filled" stroke="none" stroke-width="1" fill="none" fill-rule="evenodd">
        <mask id="_mask-2" fill="white">
            <use xlink:href="#_path-1"/>
        </mask>
        <use id="_形状" fill="#000000" fill-rule="nonzero" xlink:href="#_path-1"/>
    </g>
</svg>