<?xml version="1.0" encoding="UTF-8"?>
<svg width="24px" height="24px" viewBox="0 0 24 24" version="1.1" xmlns="http://www.w3.org/2000/svg" xmlns:xlink="http://www.w3.org/1999/xlink">
    <title>Public/ic_public_save</title>
    <defs>
        <path d="M17.75,2 L17.7520126,2.01890136 C18.8647483,2.07278856 19.3944045,2.24101598 19.91208,2.51223497 L19.9536914,2.53426541 C20.5745027,2.86627892 21.0680807,3.34610464 21.4148264,3.9541436 L21.4657346,4.04630859 C21.8143488,4.69816044 22,5.34473292 22,7.1277704 L22,16.8722296 L21.9989932,17.0937657 C21.9842401,18.674381 21.8076257,19.3015622 21.487765,19.91208 L21.4657346,19.9536914 C21.1337211,20.5745027 20.6538954,21.0680807 20.0458564,21.4148264 L19.9536914,21.4657346 C19.3018396,21.8143488 18.6552671,22 16.8722296,22 L7.1277704,22 L6.90623426,21.9989932 C5.32561899,21.9842401 4.69843783,21.8076257 4.08791999,21.487765 L4.04630859,21.4657346 C3.42549731,21.1337211 2.93191931,20.6538954 2.58517358,20.0458564 L2.53426541,19.9536914 C2.18565122,19.3018396 2,18.6552671 2,16.8722296 L2,7.1277704 C2,5.38266989 2.17783521,4.72618864 2.51223497,4.08791999 L2.53426541,4.04630859 C2.86627892,3.42549731 3.34610464,2.93191931 3.9541436,2.58517358 L4.04630859,2.53426541 C4.57769437,2.25007718 5.10557179,2.0741846 6.24845829,2.01887856 L6.25,2 L17.75,2 Z M17.7514636,3.5180042 L17.75,7.25 C17.75,8.76878306 16.5187831,10 15,10 L15,10 L9,10 C7.48121694,10 6.25,8.76878306 6.25,7.25 L6.25,7.25 L6.24877877,3.51799203 C5.49137422,3.55599646 5.12615584,3.65779732 4.75370688,3.8569852 C4.36325774,4.06579969 4.06579969,4.36325774 3.8569852,4.75370688 C3.59290159,5.24750032 3.5,5.72858421 3.5,7.1277704 L3.50017541,16.9754617 L3.501658,17.176942 C3.5151767,18.3449184 3.61305534,18.7901839 3.8569852,19.2462931 C4.06579969,19.6367423 4.36325774,19.9342003 4.75370688,20.1430148 C5.22281064,20.3938942 5.68044405,20.4902819 6.92466189,20.4992935 L7.1277704,20.5 L16.8722296,20.5 C18.2714158,20.5 18.7524997,20.4070984 19.2462931,20.1430148 C19.6367423,19.9342003 19.9342003,19.6367423 20.1430148,19.2462931 C20.3938942,18.7771894 20.4902819,18.319556 20.4992935,17.0753381 L20.5,16.8722296 L20.5,7.1277704 C20.5,5.72858421 20.4070984,5.24750032 20.1430148,4.75370688 C19.9342003,4.36325774 19.6367423,4.06579969 19.2462931,3.8569852 C18.8738839,3.65781857 18.5087037,3.55601818 17.7514636,3.5180042 Z M17,15 C17.4142136,15 17.75,15.3357864 17.75,15.75 C17.75,16.1494202 17.43777,16.4759152 17.0440682,16.4987268 L17,16.5 L7,16.5 C6.58578644,16.5 6.25,16.1642136 6.25,15.75 C6.25,15.3505798 6.56222999,15.0240848 6.9559318,15.0012732 L7,15 L17,15 Z M16.25,3.5 L7.75,3.5 L7.75,7.25 C7.75,7.92218868 8.28057668,8.47045453 8.94577759,8.49884512 L8.94577759,8.49884512 L9,8.5 L15,8.5 C15.6903559,8.5 16.25,7.94035594 16.25,7.25 L16.25,7.25 L16.25,3.5 Z" id="path-1"></path>
    </defs>
    <g id="Public/ic_public_save" stroke="none" stroke-width="1" fill="none" fill-rule="evenodd">
        <mask id="mask-2" fill="white">
            <use xlink:href="#path-1"></use>
        </mask>
        <use id="形状结合" fill="#000000" fill-rule="nonzero" xlink:href="#path-1"></use>
    </g>
</svg>