<?xml version="1.0" encoding="UTF-8"?>
<svg xmlns="http://www.w3.org/2000/svg" xmlns:xlink="http://www.w3.org/1999/xlink" width="24" height="24" viewBox="0 0 24 24" version="1.1">
    <title>Public/ic_public_navigation</title>
    <defs>
        <path d="M10.3980312,3.04167375 L3.15007157,19.5249368 C2.94375689,19.9941363 2.95351219,20.530198 3.17676167,20.9915802 C3.59773057,21.8615826 4.64426959,22.2255962 5.51427198,21.8046273 L12,18.6663718 L18.485728,21.8046273 C18.9471103,22.0278768 19.4831719,22.0376321 19.9523714,21.8313174 C20.8371144,21.4422815 21.2389643,20.4096797 20.8499284,19.5249368 L13.6019688,3.04167375 C13.4256553,2.64070274 13.1053828,2.32043026 12.7044118,2.14411677 C11.8196689,1.75508087 10.7870671,2.15693082 10.3980312,3.04167375 Z M12.1006303,3.51723287 C12.1579118,3.54242051 12.203665,3.58817373 12.2288527,3.6454553 L19.4768123,20.1287184 C19.5323889,20.2551102 19.4749817,20.4026247 19.3485899,20.4582013 C19.2815614,20.4876748 19.2049812,20.4862812 19.1390694,20.4543884 L12.6533414,17.3161329 C12.2406663,17.1164514 11.7593337,17.1164514 11.3466586,17.3161329 L4.86093059,20.4543884 C4.73664453,20.5145268 4.58713896,20.4625249 4.52700055,20.3382388 C4.49510776,20.2723271 4.49371415,20.1957469 4.52318767,20.1287184 L11.7711473,3.6454553 C11.8267239,3.51906345 11.9742384,3.46165632 12.1006303,3.51723287 Z" id="_path-1"/>
    </defs>
    <g id="_Public/ic_public_navigation" stroke="none" stroke-width="1" fill="none" fill-rule="evenodd">
        <mask id="_mask-2" fill="white">
            <use xlink:href="#_path-1"/>
        </mask>
        <use id="_三角形" fill="#000000" fill-rule="nonzero" xlink:href="#_path-1"/>
    </g>
</svg>