<?xml version="1.0" encoding="UTF-8"?>
<svg xmlns="http://www.w3.org/2000/svg" xmlns:xlink="http://www.w3.org/1999/xlink" width="24" height="24" viewBox="0 0 24 24" version="1.1">
    <title>Public/ic_public_close</title>
    <defs>
        <path d="M12,1 C18.0751322,1 23,5.92486775 23,12 C23,18.0751322 18.0751322,23 12,23 C5.92486775,23 1,18.0751322 1,12 C1,5.92486775 5.92486775,1 12,1 Z M12,2.5 C6.75329488,2.5 2.5,6.75329488 2.5,12 C2.5,17.2467051 6.75329488,21.5 12,21.5 C17.2467051,21.5 21.5,17.2467051 21.5,12 C21.5,6.75329488 17.2467051,2.5 12,2.5 Z M8.81801948,7.75735931 L12.0007071,10.9386327 L15.1819805,7.75735931 C15.4748737,7.46446609 15.9497475,7.46446609 16.2426407,7.75735931 C16.5355339,8.05025253 16.5355339,8.52512627 16.2426407,8.81801948 L8.81801948,16.2426407 C8.52512627,16.5355339 8.05025253,16.5355339 7.75735931,16.2426407 C7.46446609,15.9497475 7.46446609,15.4748737 7.75735931,15.1819805 L10.9400469,11.9992929 L7.75735931,8.81801948 C7.46446609,8.52512627 7.46446609,8.05025253 7.75735931,7.75735931 C8.05025253,7.46446609 8.52512627,7.46446609 8.81801948,7.75735931 Z M13.767767,12.7071068 L16.2426407,15.1819805 C16.5355339,15.4748737 16.5355339,15.9497475 16.2426407,16.2426407 C15.9497475,16.5355339 15.4748737,16.5355339 15.1819805,16.2426407 L12.7071068,13.767767 L13.767767,12.7071068 Z" id="_path-1"/>
    </defs>
    <g id="_Public/ic_public_close" stroke="none" stroke-width="1" fill="none" fill-rule="evenodd">
        <mask id="_mask-2" fill="white">
            <use xlink:href="#_path-1"/>
        </mask>
        <use id="_形状结合" fill="#000000" fill-rule="nonzero" xlink:href="#_path-1"/>
    </g>
</svg>