<?xml version="1.0" encoding="UTF-8"?>
<svg xmlns="http://www.w3.org/2000/svg" xmlns:xlink="http://www.w3.org/1999/xlink" width="24" height="24" viewBox="0 0 24 24" version="1.1">
    <title>Public/ic_public_brightness</title>
    <defs>
        <path d="M12,20 C12.4142136,20 12.75,20.3357864 12.75,20.75 L12.75,21.75 C12.75,22.1642136 12.4142136,22.5 12,22.5 C11.5857864,22.5 11.25,22.1642136 11.25,21.75 L11.25,20.75 C11.25,20.3357864 11.5857864,20 12,20 Z M18.7175144,17.6568542 L19.6013979,18.5407377 C19.8942911,18.8336309 19.8942911,19.3085047 19.6013979,19.6013979 C19.3085047,19.8942911 18.8336309,19.8942911 18.5407377,19.6013979 L17.6568542,18.7175144 C17.363961,18.4246212 17.363961,17.9497475 17.6568542,17.6568542 C17.9497475,17.363961 18.4246212,17.363961 18.7175144,17.6568542 Z M6.34314575,17.6568542 C6.63603897,17.9497475 6.63603897,18.4246212 6.34314575,18.7175144 L5.45926227,19.6013979 C5.16636906,19.8942911 4.69149532,19.8942911 4.3986021,19.6013979 C4.10570888,19.3085047 4.10570888,18.8336309 4.3986021,18.5407377 L5.28248558,17.6568542 C5.5753788,17.363961 6.05025253,17.363961 6.34314575,17.6568542 Z M12,5 C15.8659932,5 19,8.13400675 19,12 C19,15.8659932 15.8659932,19 12,19 C8.13400675,19 5,15.8659932 5,12 C5,8.13400675 8.13400675,5 12,5 Z M12,6.5 C8.96243388,6.5 6.5,8.96243388 6.5,12 C6.5,15.0375661 8.96243388,17.5 12,17.5 C15.0375661,17.5 17.5,15.0375661 17.5,12 C17.5,8.96243388 15.0375661,6.5 12,6.5 Z M3.25,11.25 C3.66421356,11.25 4,11.5857864 4,12 C4,12.4142136 3.66421356,12.75 3.25,12.75 L2,12.75 C1.58578644,12.75 1.25,12.4142136 1.25,12 C1.25,11.5857864 1.58578644,11.25 2,11.25 L3.25,11.25 Z M22,11.25 C22.4142136,11.25 22.75,11.5857864 22.75,12 C22.75,12.4142136 22.4142136,12.75 22,12.75 L20.75,12.75 C20.3357864,12.75 20,12.4142136 20,12 C20,11.5857864 20.3357864,11.25 20.75,11.25 L22,11.25 Z M5.45926227,4.3986021 L6.34314575,5.28248558 C6.63603897,5.5753788 6.63603897,6.05025253 6.34314575,6.34314575 C6.05025253,6.63603897 5.5753788,6.63603897 5.28248558,6.34314575 L4.3986021,5.45926227 C4.10570888,5.16636906 4.10570888,4.69149532 4.3986021,4.3986021 C4.69149532,4.10570888 5.16636906,4.10570888 5.45926227,4.3986021 Z M19.6013979,4.3986021 C19.8942911,4.69149532 19.8942911,5.16636906 19.6013979,5.45926227 L18.7175144,6.34314575 C18.4246212,6.63603897 17.9497475,6.63603897 17.6568542,6.34314575 C17.363961,6.05025253 17.363961,5.5753788 17.6568542,5.28248558 L18.5407377,4.3986021 C18.8336309,4.10570888 19.3085047,4.10570888 19.6013979,4.3986021 Z M12,1.5 C12.4142136,1.5 12.75,1.83578644 12.75,2.25 L12.75,3.25 C12.75,3.66421356 12.4142136,4 12,4 C11.5857864,4 11.25,3.66421356 11.25,3.25 L11.25,2.25 C11.25,1.83578644 11.5857864,1.5 12,1.5 Z" id="_path-1"/>
    </defs>
    <g id="_Public/ic_public_brightness" stroke="none" stroke-width="1" fill="none" fill-rule="evenodd">
        <mask id="_mask-2" fill="white">
            <use xlink:href="#_path-1"/>
        </mask>
        <use id="_合并形状" fill="#000000" fill-rule="nonzero" xlink:href="#_path-1"/>
    </g>
</svg>