<?xml version="1.0" encoding="UTF-8"?>
<svg xmlns="http://www.w3.org/2000/svg" xmlns:xlink="http://www.w3.org/1999/xlink" width="24" height="24" viewBox="0 0 24 24" version="1.1">
    <title>Public/ic_public_edit</title>
    <defs>
        <path d="M16.8722296,2 C17.8721999,2 18.5147251,2.05839169 19.0012003,2.17117304 L17.6599443,3.51379911 C17.4862664,3.50652642 17.2928183,3.5022817 17.0753381,3.50070655 L7.02453833,3.50017541 L6.82305804,3.501658 C5.6550816,3.5151767 5.20981608,3.61305534 4.75370688,3.8569852 C4.36325774,4.06579969 4.06579969,4.36325774 3.8569852,4.75370688 C3.59290159,5.24750032 3.5,5.72858421 3.5,7.1277704 L3.50017541,16.9754617 L3.501658,17.176942 C3.5151767,18.3449184 3.61305534,18.7901839 3.8569852,19.2462931 C4.06579969,19.6367423 4.36325774,19.9342003 4.75370688,20.1430148 C5.22281064,20.3938942 5.68044405,20.4902819 6.92466189,20.4992935 L16.8722296,20.5 C18.2714158,20.5 18.7524997,20.4070984 19.2462931,20.1430148 C19.6367423,19.9342003 19.9342003,19.6367423 20.1430148,19.2462931 C20.3938942,18.7771894 20.4902819,18.319556 20.4992935,17.0753381 L20.5,16.8722296 L20.5,7.1277704 C20.5,6.82616011 20.4956832,6.56721095 20.4862654,6.34159954 L21.8289375,4.9992768 C21.9416465,5.48569497 22,6.12812696 22,7.1277704 L22,16.8722296 L21.9989932,17.0937657 C21.9842401,18.674381 21.8076257,19.3015622 21.487765,19.91208 L21.4657346,19.9536914 C21.1337211,20.5745027 20.6538954,21.0680807 20.0458564,21.4148264 L19.9536914,21.4657346 C19.3018396,21.8143488 18.6552671,22 16.8722296,22 L7.1277704,22 L6.90623426,21.9989932 C5.32561899,21.9842401 4.69843783,21.8076257 4.08791999,21.487765 L4.04630859,21.4657346 C3.42549731,21.1337211 2.93191931,20.6538954 2.58517358,20.0458564 L2.53426541,19.9536914 C2.18565122,19.3018396 2,18.6552671 2,16.8722296 L2,7.1277704 C2,5.38266989 2.17783521,4.72618864 2.51223497,4.08791999 L2.53426541,4.04630859 C2.86627892,3.42549731 3.34610464,2.93191931 3.9541436,2.58517358 L4.04630859,2.53426541 C4.69816044,2.18565122 5.34473292,2 7.1277704,2 L16.8722296,2 Z M22.2300776,1.76992245 C22.6206018,2.16044674 22.6206018,2.79361172 22.2300776,3.18413601 L12.684136,12.7300776 C12.2936117,13.1206018 11.6604467,13.1206018 11.2699224,12.7300776 C10.8793982,12.3395533 10.8793982,11.7063883 11.2699224,11.315864 L20.815864,1.76992245 C21.2063883,1.37939815 21.8395533,1.37939815 22.2300776,1.76992245 Z" id="_path-1"/>
    </defs>
    <g id="_Public/ic_public_edit" stroke="none" stroke-width="1" fill="none" fill-rule="evenodd">
        <mask id="_mask-2" fill="white">
            <use xlink:href="#_path-1"/>
        </mask>
        <use id="_形状结合" fill="#000000" fill-rule="nonzero" xlink:href="#_path-1"/>
    </g>
</svg>