<?xml version="1.0" encoding="UTF-8"?>
<svg xmlns="http://www.w3.org/2000/svg" xmlns:xlink="http://www.w3.org/1999/xlink" width="24" height="24" viewBox="0 0 24 24" version="1.1">
    <title>Public/ic_public_printer</title>
    <defs>
        <path d="M15,14.5 C16.6568542,14.5 18,15.8431458 18,17.5 L18,17.5 L18,19.5 C18,21.1568542 16.6568542,22.5 15,22.5 L15,22.5 L9,22.5 C7.34314575,22.5 6,21.1568542 6,19.5 L6,19.5 L6,17.5 C6,15.8431458 7.34314575,14.5 9,14.5 L9,14.5 Z M15,16 L9,16 C8.17157288,16 7.5,16.6715729 7.5,17.5 L7.5,17.5 L7.5,19.5 C7.5,20.3284271 8.17157288,21 9,21 L9,21 L15,21 C15.8284271,21 16.5,20.3284271 16.5,19.5 L16.5,19.5 L16.5,17.5 C16.5,16.6715729 15.8284271,16 15,16 L15,16 Z M15.75,1.75 C17.3813642,1.75 18.7085982,3.05213609 18.74905,4.6737563 L18.75,4.75 L18.75,6.5 C20.959139,6.5 22.75,8.290861 22.75,10.5 L22.75,16 C22.75,18.1248648 21.0931683,19.8627558 19.0009202,19.9922577 L19.0008994,18.4875667 C20.2409952,18.3639916 21.2142949,17.3342085 21.2490396,16.0699762 L21.25,16 L21.25,10.5 C21.25,9.14269002 20.1683323,8.03801707 18.8199762,8.00096045 L5.25,8 C3.89269002,8 2.78801707,9.0816677 2.75096045,10.4300238 L2.75,16 C2.75,17.2964887 3.7369003,18.3624746 5.00044359,18.4877002 L5.0000836,19.9923197 C2.90736171,19.8633117 1.25,18.1252046 1.25,16 L1.25,10.5 C1.25,8.290861 3.040861,6.5 5.25,6.5 L5.25,4.75 C5.25,3.11863582 6.55213609,1.79140181 8.1737563,1.75094996 L15.75,1.75 Z M18.5,9.5 C19.1903559,9.5 19.75,10.0596441 19.75,10.75 C19.75,11.4403559 19.1903559,12 18.5,12 C17.8096441,12 17.25,11.4403559 17.25,10.75 C17.25,10.0596441 17.8096441,9.5 18.5,9.5 Z M15.75,3.25 L8.25,3.25 C7.44040076,3.25 6.78060706,3.89139372 6.75103462,4.69376543 L6.75,4.75 L6.75,6.5 L17.25,6.5 L17.25,4.75 C17.25,3.94040076 16.6086063,3.28060706 15.8062346,3.25103462 L15.75,3.25 Z" id="_path-1"/>
    </defs>
    <g id="_Public/ic_public_printer" stroke="none" stroke-width="1" fill="none" fill-rule="evenodd">
        <mask id="_mask-2" fill="white">
            <use xlink:href="#_path-1"/>
        </mask>
        <use id="_蒙版" fill="#000000" fill-rule="nonzero" xlink:href="#_path-1"/>
    </g>
</svg>