<?xml version="1.0" encoding="UTF-8"?>
<svg width="24px" height="24px" viewBox="0 0 24 24" version="1.1" xmlns="http://www.w3.org/2000/svg" xmlns:xlink="http://www.w3.org/1999/xlink">
    <title>Public/ic_public_reduce</title>
    <defs>
        <path d="M2.96680416,4.02746433 C2.68362252,3.7442827 2.69149532,3.27728176 2.98438854,2.98438854 C3.27728176,2.69149532 3.7442827,2.68362252 4.02746433,2.96680416 L10.7801475,9.71948734 C11.0633291,10.002669 11.0554564,10.4696699 10.7625631,10.7625631 C10.4696699,11.0554564 10.002669,11.0633291 9.71948734,10.7801475 L2.96680416,4.02746433 Z M19.75,12.5 L19.7940682,12.5012732 C19.9384255,12.5096374 20.0718294,12.5588302 20.1829044,12.6374761 L20.2618461,12.7018051 L20.2946723,12.7344084 C20.4219425,12.8688111 20.5,13.0502899 20.5,13.25 C20.5,13.6296958 20.2178461,13.943491 19.8517706,13.9931534 L19.75,14 L15.0604628,13.9994628 L21.0331756,19.9725154 C21.3163684,20.2557082 21.3085047,20.7227182 21.0156115,21.0156115 C20.7227182,21.3085047 20.2557082,21.3163684 19.9725154,21.0331756 L13.9994628,15.0604628 L13.9987268,19.7940682 C13.9759152,20.18777 13.6494202,20.5 13.25,20.5 C13.090942,20.5 12.9434485,20.4504863 12.8220921,20.3660313 L12.7362032,20.2963663 L12.7036337,20.2637968 L12.6731019,20.2292885 C12.586627,20.1253173 12.5277267,19.9975979 12.5076256,19.857355 L12.5,19.75 L12.5,14.25 L12.5010148,14.1898376 C12.5310564,13.300598 13.2245361,12.5795925 14.1021145,12.5061604 L14.25,12.5 L19.75,12.5 Z M10.75,3.5 C10.909058,3.5 11.0565515,3.54951372 11.1779079,3.63396869 L11.2637968,3.7036337 L11.2963663,3.73620318 L11.3268981,3.77071147 C11.413373,3.87468274 11.4722733,4.0024021 11.4923744,4.14264502 L11.5,4.25 L11.4989852,9.81016244 C11.4689436,10.699402 10.7754639,11.4204075 9.89788549,11.4938396 L9.75,11.5 L4.2059318,11.4987268 C4.06157447,11.4903626 3.92817057,11.4411698 3.81709563,11.3625239 L3.73815385,11.2981949 L3.70532772,11.2655916 C3.5780575,11.1311889 3.5,10.9497101 3.5,10.75 C3.5,10.3703042 3.78215388,10.056509 4.14822944,10.0068466 L4.25,10 L9.2940682,9.99872683 C9.65496152,9.97781619 9.94739589,9.70172714 9.99362875,9.34820224 L10,9.25 L10,4.25 L10.0012732,4.2059318 C10.0240848,3.81222999 10.3505798,3.5 10.75,3.5 Z" id="path-1"></path>
    </defs>
    <g id="Public/ic_public_reduce" stroke="none" stroke-width="1" fill="none" fill-rule="evenodd">
        <mask id="mask-2" fill="white">
            <use xlink:href="#path-1"></use>
        </mask>
        <use id="形状" fill="#000000" fill-rule="nonzero" xlink:href="#path-1"></use>
    </g>
</svg>