<?xml version="1.0" encoding="UTF-8"?>
<svg width="24px" height="24px" viewBox="0 0 24 24" version="1.1" xmlns="http://www.w3.org/2000/svg" xmlns:xlink="http://www.w3.org/1999/xlink">
    <title>Public/ic_public_folder</title>
    <defs>
        <path d="M7.37867966,3 C7.77650439,3 8.15803526,3.15803526 8.43933983,3.43933983 L11.7071068,6.70710678 C11.8946432,6.89464316 12.1489971,7 12.4142136,7 L19,7 C19.149679,7 19.2974379,7.00822125 19.4428497,7.02423682 C19.2349828,6.16929644 18.4757047,5.5288976 17.5622948,5.50095171 L17.5,5.5 L11.957,5.49986632 L10.45675,3.99986632 L17.5,4 C19.4329966,4 21,5.56700338 21,7.5 L21.0001204,7.53519846 C22.1956568,8.22683444 23,9.51948501 23,11 L23,17 C23,19.209139 21.209139,21 19,21 L5,21 C2.790861,21 1,19.209139 1,17 L1,7 C1,4.790861 2.790861,3 5,3 L7.37867966,3 Z M7.37867966,4.5 L5,4.5 C3.64269002,4.5 2.53801707,5.5816677 2.50096045,6.93002379 L2.5,17 C2.5,18.35731 3.5816677,19.4619829 4.93002379,19.4990396 L5,19.5 L19,19.5 C20.35731,19.5 21.4619829,18.4183323 21.4990396,17.0699762 L21.5,17 L21.5,11 C21.5,9.64269002 20.4183323,8.53801707 19.0699762,8.50096045 L12.4142136,8.5 C11.7787991,8.5 11.1683251,8.25809996 10.7059116,7.82529783 L10.6464466,7.76776695 L7.37867966,4.5 Z" id="path-1"></path>
    </defs>
    <g id="Public/ic_public_folder" stroke="none" stroke-width="1" fill="none" fill-rule="evenodd">
        <mask id="mask-2" fill="white">
            <use xlink:href="#path-1"></use>
        </mask>
        <use id="形状结合" fill="#000000" fill-rule="nonzero" xlink:href="#path-1"></use>
    </g>
</svg>