<?xml version="1.0" encoding="UTF-8"?>
<svg width="24px" height="24px" viewBox="0 0 24 24" version="1.1" xmlns="http://www.w3.org/2000/svg" xmlns:xlink="http://www.w3.org/1999/xlink">
    <title>Public/ic_public_back</title>
    <defs>
        <path d="M5.31079777,13.7499686 L11.2803301,19.7196699 L11.3140714,19.7556673 C11.5727547,20.0502619 11.5615076,20.4991526 11.2803301,20.7803301 C10.9991526,21.0615076 10.5502619,21.0727547 10.2556673,20.8140714 L10.2196699,20.7803301 L3.18929777,13.7499686 L5.31079777,13.7499686 Z M11.2803301,3.21966991 C11.5615076,3.5008474 11.5727547,3.94973814 11.3140714,4.24433269 L11.2803301,4.28033009 L4.3105,11.25 L21,11.25 C21.3994202,11.25 21.7259152,11.56223 21.7487268,11.9559318 L21.75,12 C21.75,12.3994202 21.43777,12.7259152 21.0440682,12.7487268 L21,12.75 L3.10355339,12.75 C2.8383369,12.75 2.58398299,12.6446432 2.39644661,12.4571068 C2.01893979,12.0796 2.00635623,11.4753589 2.35869593,11.0827365 L2.39644661,11.0428932 L10.2196699,3.21966991 C10.5125631,2.9267767 10.9874369,2.9267767 11.2803301,3.21966991 Z" id="path-1"></path>
    </defs>
    <g id="Public/ic_public_back" stroke="none" stroke-width="1" fill="none" fill-rule="evenodd">
        <mask id="mask-2" fill="white">
            <use xlink:href="#path-1"></use>
        </mask>
        <use id="形状结合" fill="#000000" fill-rule="nonzero" xlink:href="#path-1"></use>
    </g>
</svg>