<?xml version="1.0" encoding="UTF-8"?>
<svg width="24px" height="24px" viewBox="0 0 24 24" version="1.1" xmlns="http://www.w3.org/2000/svg" xmlns:xlink="http://www.w3.org/1999/xlink">
    <title>Public/ic_public_fail</title>
    <defs>
        <path d="M12,0.999983593 L12.1815564,1.00145453 C18.0835105,1.09714557 22.8442179,5.83597302 22.9962538,11.7184846 L23,12.0086951 L22.9985643,12.1815573 C22.9028731,18.083502 18.1640381,22.8442018 12.281517,22.9962374 L11.9913061,22.9999836 L11.8184436,22.9985479 C5.91648945,22.9028568 1.15578206,18.1640294 1.00374622,12.2815178 L1,11.9913073 L1.00143573,11.8184451 C1.09712692,5.91650039 5.83596195,1.15576653 11.710203,1.00372984 L12,0.999983593 Z M11.994,2.499 L11.7279371,2.50380847 C6.7569636,2.64374211 2.72991179,6.60611289 2.50960807,11.5597393 L2.50138399,11.8309031 L2.5,11.9913073 C2.5,17.0940492 6.51492881,21.2660064 11.5596789,21.4903735 L11.8309016,21.4985996 L11.9913061,21.4999836 C17.0940585,21.4999836 21.2660225,17.4850612 21.4903899,12.4403214 L21.498616,12.1690993 L21.5,12.0086951 C21.5,6.90595322 17.4850712,2.73399601 12.4406109,2.50963127 L12.169404,2.50140531 L11.994,2.499 Z M12,15.5 C12.6903125,15.5 13.25,16.0596875 13.25,16.75 C13.25,17.4403125 12.6903125,18 12,18 C11.3096875,18 10.75,17.4403125 10.75,16.75 C10.75,16.0596875 11.3096875,15.5 12,15.5 Z M12,6 C12.6414582,6 13.1614628,6.5200046 13.1614628,7.16146279 C13.1614628,7.18988207 13.1604197,7.21829177 13.1583357,7.24663453 L12.6708322,13.8766827 C12.6449936,14.2280877 12.3523536,14.5 12,14.5 C11.6476464,14.5 11.3550064,14.2280877 11.3291678,13.8766827 L10.8416643,7.24663453 C10.7946252,6.60690339 11.2750971,6.05016615 11.9148283,6.00312709 C11.943171,6.00104307 11.9715807,6 12,6 Z" id="path-1"></path>
    </defs>
    <g id="Public/ic_public_fail" stroke="none" stroke-width="1" fill="none" fill-rule="evenodd">
        <mask id="mask-2" fill="white">
            <use xlink:href="#path-1"></use>
        </mask>
        <use id="形状结合" fill="#000000" fill-rule="nonzero" xlink:href="#path-1"></use>
    </g>
</svg>