<?xml version="1.0" encoding="UTF-8"?>
<svg xmlns="http://www.w3.org/2000/svg" xmlns:xlink="http://www.w3.org/1999/xlink" width="24" height="24" viewBox="0 0 24 24" version="1.1">
    <title>Public/ic_public_message</title>
    <defs>
        <path d="M15.75,3 C19.7140238,3 22.9350055,6.18134145 22.9990287,10.130108 L23,10.25 L23,10.5 C23,14.4640238 19.8186586,17.6850055 15.869892,17.7490287 L15.75,17.75 L13.8105,17.75 L9.78033009,21.7803301 C9.4991526,22.0615076 9.05026186,22.0727547 8.75566731,21.8140714 L8.71966991,21.7803301 C8.43849242,21.4991526 8.42724532,21.0502619 8.68592862,20.7556673 L8.71966991,20.7196699 L12.9696699,16.4696699 C13.0986012,16.3407387 13.2696414,16.2635976 13.4504659,16.2516361 L13.5,16.25 L15.75,16.25 C18.8938809,16.25 21.4484526,13.7268671 21.4992297,10.5950868 L21.5,10.5 L21.5,10.25 C21.5,7.10611906 18.9768671,4.55154738 15.8450868,4.50077034 L15.75,4.5 L8.25,4.5 C5.10611906,4.5 2.55154738,7.02313287 2.50077034,10.1549132 L2.5,10.25 L2.5,10.5 C2.5,13.6438809 5.02313287,16.1984526 8.15491324,16.2492297 L8.25,16.25 L9.25,16.25 C9.66421356,16.25 10,16.5857864 10,17 C10,17.3994202 9.68777001,17.7259152 9.2940682,17.7487268 L9.25,17.75 L8.25,17.75 C4.28597621,17.75 1.06499452,14.5686586 1.00097129,10.619892 L1,10.5 L1,10.25 C1,6.28597621 4.18134145,3.06499452 8.13010799,3.00097129 L8.25,3 L15.75,3 Z" id="_path-1"/>
    </defs>
    <g id="_Public/ic_public_message" stroke="none" stroke-width="1" fill="none" fill-rule="evenodd">
        <mask id="_mask-2" fill="white">
            <use xlink:href="#_path-1"/>
        </mask>
        <use id="_路径" fill="#000000" fill-rule="nonzero" xlink:href="#_path-1"/>
    </g>
</svg>