<?xml version="1.0" encoding="UTF-8"?>
<svg width="12px" height="24px" viewBox="0 0 12 24" version="1.1" xmlns="http://www.w3.org/2000/svg" xmlns:xlink="http://www.w3.org/1999/xlink">
    <!-- Generator: Sketch 63.1 (92452) - https://sketch.com -->
    <title>Public/ic_public_arrow_right</title>
    <desc>Created with Sketch.</desc>
    <defs>
        <path d="M4.2482689,5.78255501 L4.28033009,5.81281566 L9.23007755,10.7625631 C9.8992572,11.4317428 9.91319844,12.5080354 9.27190128,13.1941781 L9.23007755,13.2374369 L4.28033009,18.1871843 C4.15145707,18.3160574 3.98735263,18.3882262 3.81902041,18.403691 L3.7730301,18.4065028 L3.7269699,18.4065028 C3.54277571,18.4008792 3.36025866,18.3277731 3.21966991,18.1871843 C2.93723717,17.9047516 2.92715028,17.4531048 3.18940926,17.1585854 L3.21966991,17.1265242 L7.81586399,12.5303301 C8.09829674,12.2478973 8.10838362,11.7962506 7.84612464,11.5017311 L7.81586399,11.4696699 L3.21966991,6.87347584 C2.9267767,6.58058262 2.9267767,6.10570888 3.21966991,5.81281566 C3.36088629,5.67159929 3.54440617,5.59846938 3.72943689,5.59342594 L3.77570243,5.59358355 C3.94528507,5.59936249 4.11328081,5.66235298 4.2482689,5.78255501 Z" id="path-1"></path>
    </defs>
    <g id="Public/ic_public_arrow_right" stroke="none" stroke-width="1" fill="none" fill-rule="evenodd">
        <mask id="mask-2" fill="white">
            <use xlink:href="#path-1"></use>
        </mask>
        <use id="路径" fill="#000000" fill-rule="nonzero" xlink:href="#path-1"></use>
    </g>
</svg>