<?xml version="1.0" encoding="UTF-8"?>
<svg width="24px" height="24px" viewBox="0 0 24 24" version="1.1" xmlns="http://www.w3.org/2000/svg" xmlns:xlink="http://www.w3.org/1999/xlink">
    <title>Public/ic_public_todo</title>
    <defs>
        <path d="M12,1 C18.0751322,1 23,5.92486775 23,12 C23,18.0751322 18.0751322,23 12,23 C5.92486775,23 1,18.0751322 1,12 C1,5.92486775 5.92486775,1 12,1 Z M12,2.5 C6.75329488,2.5 2.5,6.75329488 2.5,12 C2.5,17.2467051 6.75329488,21.5 12,21.5 C17.2467051,21.5 21.5,17.2467051 21.5,12 C21.5,6.75329488 17.2467051,2.5 12,2.5 Z M18.1871843,8.71966991 C18.4696171,9.00210266 18.479704,9.45374943 18.217445,9.7482689 L18.1871843,9.78033009 L12.2374369,15.7300776 C11.5682572,16.3992572 10.4919646,16.4131984 9.80582194,15.7719013 L9.76256313,15.7300776 L6.31281566,12.2803301 C6.20630904,12.1738235 6.1385321,12.0432533 6.10948484,11.9061203 L6.0949612,11.8023136 L6.0949612,11.6976864 C6.10706423,11.5235358 6.17968238,11.3528032 6.31281566,11.2196699 C6.59524841,10.9372372 7.04689518,10.9271503 7.34141465,11.1894093 L7.37347584,11.2196699 L10.4696699,14.315864 C10.7521027,14.5982967 11.2037494,14.6083836 11.4982689,14.3461246 L11.5303301,14.315864 L17.1265242,8.71966991 C17.4194174,8.4267767 17.8942911,8.4267767 18.1871843,8.71966991 Z" id="path-1"></path>
    </defs>
    <g id="Public/ic_public_todo" stroke="none" stroke-width="1" fill="none" fill-rule="evenodd">
        <mask id="mask-2" fill="white">
            <use xlink:href="#path-1"></use>
        </mask>
        <use id="形状结合" fill="#000000" fill-rule="nonzero" xlink:href="#path-1"></use>
    </g>
</svg>