<?xml version="1.0" encoding="UTF-8"?>
<svg width="24px" height="24px" viewBox="0 0 24 24" version="1.1" xmlns="http://www.w3.org/2000/svg" xmlns:xlink="http://www.w3.org/1999/xlink">
    <title>Public/ic_public_text</title>
    <defs>
        <path d="M16.8722296,2 C18.6552671,2 19.3018396,2.18565122 19.9536914,2.53426541 C20.6055433,2.88287959 21.1171204,3.39445674 21.4657346,4.04630859 C21.8143488,4.69816044 22,5.34473292 22,7.1277704 L22,16.8722296 C22,18.6552671 21.8143488,19.3018396 21.4657346,19.9536914 C21.1171204,20.6055433 20.6055433,21.1171204 19.9536914,21.4657346 C19.3018396,21.8143488 18.6552671,22 16.8722296,22 L7.1277704,22 C5.34473292,22 4.69816044,21.8143488 4.04630859,21.4657346 C3.39445674,21.1171204 2.88287959,20.6055433 2.53426541,19.9536914 C2.18565122,19.3018396 2,18.6552671 2,16.8722296 L2,7.1277704 C2,5.34473292 2.18565122,4.69816044 2.53426541,4.04630859 C2.88287959,3.39445674 3.39445674,2.88287959 4.04630859,2.53426541 C4.69816044,2.18565122 5.34473292,2 7.1277704,2 L16.8722296,2 Z M16.8722296,3.5 L7.1277704,3.5 L6.64429363,3.50450765 C5.60811465,3.52590012 5.18577614,3.62591204 4.75370688,3.8569852 C4.36325774,4.06579969 4.06579969,4.36325774 3.8569852,4.75370688 C3.62591204,5.18577614 3.52590012,5.60811465 3.50450765,6.64429363 L3.5,7.1277704 L3.5,16.8722296 C3.5,18.2714158 3.59290159,18.7524997 3.8569852,19.2462931 C4.06579969,19.6367423 4.36325774,19.9342003 4.75370688,20.1430148 C5.18577614,20.374088 5.60811465,20.4740999 6.64429363,20.4954923 L7.1277704,20.5 L16.8722296,20.5 L17.3557064,20.4954923 C18.3918853,20.4740999 18.8142239,20.374088 19.2462931,20.1430148 C19.6367423,19.9342003 19.9342003,19.6367423 20.1430148,19.2462931 C20.374088,18.8142239 20.4740999,18.3918853 20.4954923,17.3557064 L20.5,16.8722296 L20.5,7.1277704 L20.4954923,6.64429363 C20.4740999,5.60811465 20.374088,5.18577614 20.1430148,4.75370688 C19.9342003,4.36325774 19.6367423,4.06579969 19.2462931,3.8569852 C18.8142239,3.62591204 18.3918853,3.52590012 17.3557064,3.50450765 L16.8722296,3.5 Z M16.1071429,8.5 L19.7261905,17.25 L18.2380952,17.25 L17.3095238,14.9166667 L15.918,14.916 L15.421,13.714 L16.8452381,13.7142857 L15.5,10.2738095 L14.78,12.164 L14.142,10.622 L14.9880952,8.5 L16.1071429,8.5 Z M10.942,5.5 L15.806,17.25 L13.806,17.25 L12.558,14.124 L7.742,14.124 L6.558,17.25 L4.75,17.25 L9.438,5.5 L10.942,5.5 Z M10.126,7.884 L8.366,12.508 L11.934,12.508 L10.126,7.884 Z" id="path-1"></path>
    </defs>
    <g id="Public/ic_public_text" stroke="none" stroke-width="1" fill="none" fill-rule="evenodd">
        <mask id="mask-2" fill="white">
            <use xlink:href="#path-1"></use>
        </mask>
        <use id="形状结合" fill="#000000" fill-rule="nonzero" xlink:href="#path-1"></use>
    </g>
</svg>