<?xml version="1.0" encoding="UTF-8"?>
<svg width="24px" height="12px" viewBox="0 0 24 12" version="1.1" xmlns="http://www.w3.org/2000/svg" xmlns:xlink="http://www.w3.org/1999/xlink">
    <!-- Generator: Sketch 63.1 (92452) - https://sketch.com -->
    <title>画板</title>
    <desc>Created with Sketch.</desc>
    <defs>
        <path d="M18.6239478,4.2482689 L13.6439396,9.23007755 C12.97476,9.8992572 11.8984674,9.91319844 11.2123247,9.27190128 L6.21931844,4.28033009 C6.09044543,4.15145707 6.01827654,3.98735263 6.00281177,3.81902041 L6,3.7269699 C6.00562355,3.54277571 6.0787297,3.36025866 6.21931844,3.21966991 C6.50175119,2.93723717 6.95339796,2.92715028 7.24791742,3.18940926 L11.8761727,7.81586399 C12.1586054,8.09829674 12.6102522,8.10838362 12.9047717,7.84612464 L17.5330269,3.21966991 C17.8259202,2.9267767 18.3007939,2.9267767 18.5936871,3.21966991 C18.7349035,3.36088629 18.8080334,3.54440617 18.8130768,3.72943689 L18.8129192,3.77570243 C18.8071403,3.94528507 18.7441498,4.11328081 18.6239478,4.2482689 Z" id="path-1"></path>
    </defs>
    <g id="画板" stroke="none" stroke-width="1" fill="none" fill-rule="evenodd">
        <mask id="mask-2" fill="white">
            <use xlink:href="#path-1"></use>
        </mask>
        <use id="路径" fill="#000000" fill-rule="nonzero" xlink:href="#path-1"></use>
    </g>
</svg>