<?xml version="1.0" encoding="UTF-8"?>
<svg xmlns="http://www.w3.org/2000/svg" xmlns:xlink="http://www.w3.org/1999/xlink" width="24" height="24" viewBox="0 0 24 24" version="1.1">
    <title>Public/ic_public_ring_off</title>
    <defs>
        <path d="M14.9582748,20.2514642 C14.7196327,21.6696004 13.4859868,22.75 12,22.75 C10.5140132,22.75 9.28036729,21.6696004 9.04172524,20.2514642 L14.9582748,20.2514642 Z M3.24433269,2.18592862 L3.28033009,2.21966991 L3.509,2.448 L3.51471863,2.45405845 L21.5459415,20.4852814 C21.5478012,20.487141 21.5496718,20.4889829 21.5515533,20.4908072 L21.7803301,20.7196699 C22.0732233,21.0125631 22.0732233,21.4874369 21.7803301,21.7803301 C21.4991526,22.0615076 21.0502619,22.0727547 20.7556673,21.8140714 L20.7196699,21.7803301 L18.189,19.25 L2.75,19.25 C2.33578644,19.25 2,18.9142136 2,18.5 C2,18.0857864 2.33578644,17.75 2.75,17.75 L3.94,17.75 L5.1022623,8.5788123 C5.18692169,7.91073462 5.36458625,7.27481474 5.62125794,6.68338878 L2.21966991,3.28033009 C1.9267767,2.98743687 1.9267767,2.51256313 2.21966991,2.21966991 C2.5008474,1.93849242 2.94973814,1.92724532 3.24433269,2.18592862 Z M20.225,17.75 L21.25,17.75 C21.6642136,17.75 22,18.0857864 22,18.5 C22,18.7777294 21.8490413,19.0202005 21.6247007,19.1498364 L20.225,17.75 Z M6.60245717,8.67780869 L6.5903618,8.76738558 L5.452,17.75 L16.689,17.75 L6.78760933,7.84925958 C6.70553933,8.11671588 6.64322693,8.39342329 6.60245717,8.67780869 Z M12,1.25 C13.0131341,1.25 13.8698705,1.91961797 14.1517769,2.84042162 C16.6183008,3.6423029 18.5030828,5.79126653 18.8837774,8.47484779 L18.8977377,8.5788123 L20.036,17.561 L18.304,15.829 L17.4096382,8.76738558 C17.0681542,6.07261228 14.7972087,4.04497622 12.0903868,4.0007382 L12,4 C10.4866196,4 9.10338759,4.6202027 8.10860691,5.63297173 L7.0473274,4.57284949 C7.82237101,3.7867437 8.78135115,3.18708132 9.84955386,2.83970599 C10.1301295,1.91961797 10.9868659,1.25 12,1.25 Z" id="_path-1"/>
    </defs>
    <g id="_Public/ic_public_ring_off" stroke="none" stroke-width="1" fill="none" fill-rule="evenodd">
        <mask id="_mask-2" fill="white">
            <use xlink:href="#_path-1"/>
        </mask>
        <use id="_形状结合" fill="#000000" fill-rule="nonzero" xlink:href="#_path-1"/>
    </g>
</svg>