<?xml version="1.0" encoding="UTF-8"?>
<svg width="24px" height="24px" viewBox="0 0 24 24" version="1.1" xmlns="http://www.w3.org/2000/svg" xmlns:xlink="http://www.w3.org/1999/xlink">
    <title>Public/ic_public_settings</title>
    <defs>
        <path d="M13.4894964,1.25 C14.1901033,1.25 14.8231865,1.66785112 15.0986042,2.31205231 L15.0986042,2.31205231 L15.92125,4.23625 L16.77175,4.72725 L18.8556101,4.47607817 C19.5285537,4.39491431 20.1856012,4.70961774 20.5451004,5.27951678 L20.5451004,5.27951678 L20.5800481,5.33735213 L22.0680131,7.91013134 C22.4194652,8.51781272 22.3737758,9.27669833 21.9519545,9.83782407 L21.9519545,9.83782407 L20.69375,11.51125 L20.69375,12.4885 L21.9519801,14.16219 C22.3597241,14.70461 22.4160026,15.4318142 22.1018413,16.0285992 L22.1018413,16.0285992 L22.0680196,16.0898574 L20.5800481,18.6626479 C20.2293867,19.2689622 19.5509852,19.6077912 18.8556101,19.5239218 L18.8556101,19.5239218 L16.77175,19.2725 L15.92125,19.7635 L15.0986042,21.6879477 C14.832071,22.3113682 14.2305752,22.7228063 13.5570765,22.748702 L13.5570765,22.748702 L13.4894964,22.75 L10.5105451,22.75 C9.80990141,22.75 9.17679241,22.3321056 8.90139751,21.6878548 L8.90139751,21.6878548 L8.0785,19.7635 L7.228,19.2725 L5.14438986,19.5239218 C4.47144629,19.6050857 3.81439883,19.2903823 3.45489956,18.7204832 L3.45489956,18.7204832 L3.41995189,18.6626479 L1.9319804,16.0898574 C1.58053408,15.482186 1.62621577,14.7233142 2.04801988,14.16219 L2.04801988,14.16219 L3.306,12.4885 L3.306,11.51125 L2.04804545,9.83782407 C1.64028496,9.29540252 1.58399872,8.56818536 1.89816473,7.97139057 L1.89816473,7.97139057 L1.93198692,7.91013134 L3.41995189,5.33735213 C3.77061333,4.73103782 4.44901483,4.39220884 5.14438986,4.47607817 L5.14438986,4.47607817 L7.228,4.72725 L8.0785,4.23625 L8.90139751,2.31214525 C9.1679087,1.68867667 9.7694279,1.27719647 10.4429614,1.25129813 L10.4429614,1.25129813 L10.5105451,1.25 Z M13.4894964,2.75 L10.5105451,2.75 C10.4104531,2.75 10.320009,2.8096992 10.2806668,2.90173504 L10.2806668,2.90173504 L9.42547944,4.90233575 C9.31921851,5.1509195 9.13523096,5.35835416 8.90110986,5.49353025 L8.90110986,5.49353025 L7.90597116,6.06810022 C7.67169142,6.20336791 7.39985123,6.25898058 7.13127161,6.22658714 L7.13127161,6.22658714 L4.96477622,5.96528566 C4.86543693,5.95330433 4.76852243,6.00170847 4.71842794,6.0883248 L4.71842794,6.0883248 L3.23046296,8.66110401 C3.18025552,8.74791564 3.18678258,8.85632787 3.24704275,8.93648869 L3.24704275,8.93648869 L4.55532037,10.6768191 C4.71812619,10.8933908 4.80615731,11.1569971 4.80615595,11.4279382 L4.80615595,11.4279382 L4.80615019,12.5719965 C4.80614882,12.8429255 4.71812287,13.1065199 4.55532821,13.3230849 L4.55532821,13.3230849 L3.24703351,15.0635037 C3.18677578,15.1436643 3.18024983,15.2520745 3.23045644,15.3388847 L3.23045644,15.3388847 L4.71842794,17.9116752 C4.76852243,17.9982915 4.86543693,18.0466957 4.96477622,18.0347143 L4.96477622,18.0347143 L7.13127161,17.7734129 C7.39985123,17.7410194 7.67169142,17.7966321 7.90597116,17.9318998 L7.90597116,17.9318998 L8.90110986,18.5064697 C9.13523096,18.6416458 9.31921851,18.8490805 9.42547944,19.0976643 L9.42547944,19.0976643 L10.2806668,21.098265 C10.320009,21.1903008 10.4104531,21.25 10.5105451,21.25 L10.5105451,21.25 L13.4894964,21.25 C13.5895831,21.25 13.6800236,21.190307 13.7193689,21.0982782 L13.7193689,21.0982782 L14.5747715,19.097494 C14.6810343,18.8489455 14.8650036,18.6415401 15.0990951,18.506376 L15.0990951,18.506376 L16.0940158,17.9319104 C16.3282993,17.7966355 16.6001464,17.7410191 16.8687329,17.7734134 L16.8687329,17.7734134 L19.0352238,18.0347143 C19.1345631,18.0466957 19.2314776,17.9982915 19.2815721,17.9116752 L19.2815721,17.9116752 L20.7695436,15.3388847 C20.8197502,15.2520745 20.8132242,15.1436643 20.7529665,15.0635037 L20.7529665,15.0635037 L19.4446718,13.3230849 C19.2818771,13.1065199 19.1938512,12.8429255 19.1938498,12.5719965 L19.1938498,12.5719965 L19.1938441,11.4279382 C19.1938427,11.1569971 19.2818738,10.8933908 19.4446796,10.6768191 L19.4446796,10.6768191 L20.7529572,8.93648869 C20.8132174,8.85632787 20.8197445,8.74791564 20.769537,8.66110401 L20.769537,8.66110401 L19.2815721,6.0883248 C19.2314776,6.00170847 19.1345631,5.95330433 19.0352238,5.96528566 L19.0352238,5.96528566 L16.8687329,6.2265866 C16.6001464,6.25898087 16.3282993,6.2033645 16.0940158,6.06808955 L16.0940158,6.06808955 L15.0990951,5.49362397 C14.8650036,5.3584599 14.6810343,5.15105452 14.5747715,4.90250599 L14.5747715,4.90250599 L13.7193689,2.90172176 C13.6800236,2.80969302 13.5895831,2.75 13.4894964,2.75 L13.4894964,2.75 Z M12,7.5 C14.4852814,7.5 16.5,9.51471863 16.5,12 C16.5,14.4852814 14.4852814,16.5 12,16.5 C9.51471863,16.5 7.5,14.4852814 7.5,12 C7.5,9.51471863 9.51471863,7.5 12,7.5 Z M12,9 C10.3431458,9 9,10.3431458 9,12 C9,13.6568542 10.3431458,15 12,15 C13.6568542,15 15,13.6568542 15,12 C15,10.3431458 13.6568542,9 12,9 Z" id="path-1"></path>
    </defs>
    <g id="Public/ic_public_settings" stroke="none" stroke-width="1" fill="none" fill-rule="evenodd">
        <mask id="mask-2" fill="white">
            <use xlink:href="#path-1"></use>
        </mask>
        <use id="形状结合" fill="#000000" fill-rule="nonzero" xlink:href="#path-1"></use>
    </g>
</svg>