<?xml version="1.0" encoding="UTF-8"?>
<svg xmlns="http://www.w3.org/2000/svg" xmlns:xlink="http://www.w3.org/1999/xlink" width="24" height="24" viewBox="0 0 24 24" version="1.1">
    <title>Public/ic_public_themes</title>
    <defs>
        <path d="M19.25,10.75 C19.8022847,10.75 20.25,11.1977153 20.25,11.75 L20.25,12.55 C20.25,14.2068542 18.9068542,15.55 17.25,15.55 L15.8216549,15.55 C14.8551566,15.55 14.0716549,16.3335017 14.0716549,17.3 C14.0716549,17.3729597 14.0762176,17.4458479 14.0853162,17.518238 L14.5383484,21.1226387 C14.7145502,22.5245298 13.7209326,23.8038268 12.3190415,23.9800286 C12.2132147,23.9933299 12.1066595,24 12,24 C10.587079,24 9.44168023,22.8546012 9.44168023,21.4416802 C9.44168023,21.3350207 9.44835038,21.2284656 9.46165162,21.1226387 L9.91468381,17.518238 C10.0352134,16.5592846 9.35553653,15.6841908 8.39658313,15.5636613 C8.32419302,15.5545627 8.25130476,15.55 8.17834509,15.55 L6.75,15.55 C5.09314575,15.55 3.75,14.2068542 3.75,12.55 L3.75,11.75 C3.75,11.1977153 4.19771525,10.75 4.75,10.75 L19.25,10.75 Z M18.75,12.25 L5.25,12.25 L5.25,12.55 C5.25,13.3784271 5.92157288,14.05 6.75,14.05 L8.17834509,14.05 C8.31384162,14.05 8.44920554,14.0584735 8.58364432,14.0753709 C10.3645578,14.2992115 11.6268147,15.9243858 11.4029741,17.7052992 L10.9499419,21.3096999 C10.9444395,21.3534781 10.9416802,21.3975576 10.9416802,21.4416802 C10.9416802,22.0261741 11.4155061,22.5 12,22.5 C12.0441227,22.5 12.0882021,22.4972407 12.1319804,22.4917383 C12.7119114,22.4188475 13.1229488,21.8896309 13.0500581,21.3096999 L12.5970259,17.7052992 C12.5801284,17.5708604 12.5716549,17.4354965 12.5716549,17.3 C12.5716549,15.5050746 14.0267295,14.05 15.8216549,14.05 L17.25,14.05 C18.0784271,14.05 18.75,13.3784271 18.75,12.55 L18.75,12.25 Z M17.4568375,2 C18.8375493,2 19.9568375,3.11928813 19.9568375,4.5 C19.9568375,4.59223788 19.9517328,4.68440508 19.9415468,4.77607882 L19.2410905,9.75 L17.6990905,9.75 L18.4507212,4.61043153 C18.4527584,4.59209678 18.4542875,4.57371269 18.4553072,4.55530039 L18.4568375,4.5 C18.4568375,3.96445115 18.0358453,3.52723028 17.5067475,3.50122383 L17.4568375,3.5 L4.37059049,3.5 L4.4452507,3.62727229 C4.62405182,3.93637238 4.7976977,4.2546068 4.96621449,4.58195753 L5.09164079,4.82917961 C5.83144606,6.30879015 6.45917325,7.95439253 6.49763762,9.75011624 L4.99309049,9.75 L4.99125364,9.64540816 C4.9162415,8.11989796 4.36904762,6.73809524 3.75,5.5 C3.40141816,4.80283633 3.03005333,4.15123864 2.63590551,3.54520694 C2.33479741,3.08222646 2.46601827,2.46280972 2.92899748,2.16169965 C3.09125475,2.05617159 3.28065033,2 3.47420548,2 L17.4568375,2 Z" id="_path-1"/>
    </defs>
    <g id="_Public/ic_public_themes" stroke="none" stroke-width="1" fill="none" fill-rule="evenodd">
        <mask id="_mask-2" fill="white">
            <use xlink:href="#_path-1"/>
        </mask>
        <use id="_Combined-Shape" fill="#000000" fill-rule="nonzero" xlink:href="#_path-1"/>
    </g>
</svg>