<?xml version="1.0" encoding="UTF-8"?>
<svg xmlns="http://www.w3.org/2000/svg" xmlns:xlink="http://www.w3.org/1999/xlink" width="24" height="24" viewBox="0 0 24 24" version="1.1">
    <title>Public/ic_public_ring</title>
    <defs>
        <path d="M14.9582748,20.2514642 C14.7196327,21.6696004 13.4859868,22.75 12,22.75 C10.5140132,22.75 9.28036729,21.6696004 9.04172524,20.2514642 L14.9582748,20.2514642 Z M12,1.25 C13.0131341,1.25 13.8698705,1.91961797 14.1517769,2.84042162 C16.5760914,3.62851632 18.4385407,5.71822154 18.8629658,8.33785645 L18.8977377,8.5788123 L20.06,17.75 L21.25,17.75 C21.6642136,17.75 22,18.0857864 22,18.5 C22,18.9142136 21.6642136,19.25 21.25,19.25 L2.75,19.25 C2.33578644,19.25 2,18.9142136 2,18.5 C2,18.0857864 2.33578644,17.75 2.75,17.75 L3.94,17.75 L5.1022623,8.5788123 C5.44846558,5.84679782 7.3499867,3.65255543 9.84955386,2.83970599 C10.1301295,1.91961797 10.9868659,1.25 12,1.25 Z M12,4 C9.33196649,4 7.06843888,5.92761382 6.62475187,8.53554061 L6.5903618,8.76738558 L5.452,17.75 L18.547,17.75 L17.4096382,8.76738558 C17.074225,6.12051936 14.8773437,4.11728079 12.234329,4.00497072 L12,4 Z" id="_path-1"/>
    </defs>
    <g id="_Public/ic_public_ring" stroke="none" stroke-width="1" fill="none" fill-rule="evenodd">
        <mask id="_mask-2" fill="white">
            <use xlink:href="#_path-1"/>
        </mask>
        <use id="_形状结合" fill="#000000" fill-rule="nonzero" xlink:href="#_path-1"/>
    </g>
</svg>