<?xml version="1.0" encoding="UTF-8"?>
<svg width="24px" height="24px" viewBox="0 0 24 24" version="1.1" xmlns="http://www.w3.org/2000/svg" xmlns:xlink="http://www.w3.org/1999/xlink">
    <title>Public/ic_public_send</title>
    <defs>
        <path d="M12,1 C18.0751322,1 23,5.92486775 23,12 C23,18.0751322 18.0751322,23 12,23 C5.92486775,23 1,18.0751322 1,12 C1,5.92486775 5.92486775,1 12,1 Z M12,2.5 C6.75329488,2.5 2.5,6.75329488 2.5,12 C2.5,17.2467051 6.75329488,21.5 12,21.5 C17.2467051,21.5 21.5,17.2467051 21.5,12 C21.5,6.75329488 17.2467051,2.5 12,2.5 Z M10.8058219,6.47061314 C11.4919646,5.82931598 12.5682572,5.84325722 13.2374369,6.51243687 L13.2374369,6.51243687 L17.7803301,11.0553301 L17.8105907,11.0873913 C18.0728497,11.3819107 18.0627628,11.8335575 17.7803301,12.1159903 C17.4874369,12.4088835 17.0125631,12.4088835 16.7196699,12.1159903 L16.7196699,12.1159903 L12.75,8.148 L12.75,17.25 C12.75,17.6642136 12.4142136,18 12,18 C11.5857864,18 11.25,17.6642136 11.25,17.25 L11.25,17.25 L11.25,8.147 L7.28033009,12.1159903 L7.2482689,12.1462509 C6.95374943,12.4085099 6.50210266,12.398423 6.21966991,12.1159903 C5.9267767,11.823097 5.9267767,11.3482233 6.21966991,11.0553301 L6.21966991,11.0553301 L10.7625631,6.51243687 Z" id="path-1"></path>
    </defs>
    <g id="Public/ic_public_send" stroke="none" stroke-width="1" fill="none" fill-rule="evenodd">
        <mask id="mask-2" fill="white">
            <use xlink:href="#path-1"></use>
        </mask>
        <use id="形状结合" fill="#000000" fill-rule="nonzero" xlink:href="#path-1"></use>
    </g>
</svg>