<?xml version="1.0" encoding="UTF-8"?>
<svg width="24px" height="24px" viewBox="0 0 24 24" version="1.1" xmlns="http://www.w3.org/2000/svg" xmlns:xlink="http://www.w3.org/1999/xlink">
    <title>Public/ic_public_security</title>
    <defs>
        <path d="M10.6911795,1.30107415 C11.5177131,0.900330583 12.4822869,0.900330583 13.3088205,1.30107415 L13.3088205,1.30107415 L19.7316154,4.41515652 C20.5073719,4.79128086 21,5.57760856 21,6.43973826 L21,6.43973826 L21,11.25 C21,16.5158971 17.6459225,21.1101108 12.7508862,22.7973636 C12.7379871,22.8018097 12.7161694,22.8089491 12.685433,22.8187818 C12.2393172,22.9614959 11.759784,22.9614277 11.3137088,22.8185866 L11.3137088,22.8185866 L11.2767569,22.806645 L11.2767569,22.806645 L11.2519921,22.7983767 C6.35549222,21.1121681 3,16.5172142 3,11.25 L3,11.25 L3,6.43973826 C3,5.57760856 3.49262814,4.79128086 4.26838461,4.41515652 L4.26838461,4.41515652 Z M12.6544103,2.65079531 C12.2411435,2.45042353 11.7588565,2.45042353 11.3455897,2.65079531 L11.3455897,2.65079531 L4.92279487,5.76487768 C4.66420938,5.89025246 4.5,6.15236169 4.5,6.43973826 L4.5,6.43973826 L4.5,11.25 C4.5,15.8744307 7.44826353,19.9075659 11.7523646,21.3842288 C11.7540267,21.384799 11.7557242,21.38538 11.7574571,21.385972 C11.9129108,21.4390691 12.081498,21.4396589 12.2373194,21.3876508 L12.2373194,21.3876508 L12.2455137,21.384915 C16.5098224,19.9199393 19.4399024,15.954552 19.4990866,11.3909195 L19.4990866,11.3909195 L19.5,11.25 L19.5,6.43973826 C19.5,6.15236169 19.3357906,5.89025246 19.0772051,5.76487768 L19.0772051,5.76487768 Z M17.7559659,8.19530573 C18.0383986,8.47773848 18.0484855,8.92938525 17.7862266,9.22390471 L17.7559659,9.2559659 L12,15.0119318 C11.3308204,15.6811114 10.2545278,15.6950527 9.56838507,15.0537555 L9.52512627,15.0119318 L6.75659723,12.2434028 C6.46370401,11.9505096 6.46370401,11.4756358 6.75659723,11.1827426 C7.03902998,10.9003099 7.49067675,10.890223 7.78519621,11.1524819 L7.8172574,11.1827426 L10.5857864,13.9512716 C10.6764439,14.0419291 10.8194052,14.0484046 10.9175346,13.9706982 L10.9393398,13.9512716 L16.6953057,8.19530573 C16.9881989,7.90241251 17.4630727,7.90241251 17.7559659,8.19530573 Z" id="path-1"></path>
    </defs>
    <g id="Public/ic_public_security" stroke="none" stroke-width="1" fill="none" fill-rule="evenodd">
        <mask id="mask-2" fill="white">
            <use xlink:href="#path-1"></use>
        </mask>
        <use id="形状结合" fill="#000000" fill-rule="nonzero" xlink:href="#path-1"></use>
    </g>
</svg>