<?xml version="1.0" encoding="UTF-8"?>
<svg width="24px" height="24px" viewBox="0 0 24 24" version="1.1" xmlns="http://www.w3.org/2000/svg" xmlns:xlink="http://www.w3.org/1999/xlink">
    <title>Public/ic_public_home</title>
    <defs>
        <path d="M5.75,22 C4.25532461,22 3.03915871,20.8075591 3.00092685,19.3221019 L3.00096837,12.1952851 C3.0082636,12.1900706 3.01545239,12.1846355 3.0225257,12.1789796 L3.05506762,12.1505962 L4.49994625,10.778 L4.5,19.25 C4.5,19.9221887 5.03057668,20.4704545 5.69577759,20.4988451 L5.75,20.5 L8.24996165,20.4998454 L8.25,16.25 C8.25,14.2457408 9.82236105,12.6087263 11.8008414,12.505198 L12,12.5 C14.0710678,12.5 15.75,14.1789322 15.75,16.25 L15.75,16.25 L15.7499616,20.4998454 L18.25,20.5 C18.9221887,20.5 19.4704545,19.9694233 19.4988451,19.3042224 L19.5,19.25 L19.4999462,10.778 L20.9056253,12.1124997 L20.9381672,12.1408831 C20.9578487,12.1566208 20.9784244,12.1706485 20.9996993,12.1829711 L21,19.25 C21,20.7446754 19.8075591,21.9608413 18.3221019,21.9990731 L18.25,22 L5.75,22 Z M12,14 C10.7573593,14 9.75,15.0073593 9.75,16.25 L9.75,16.25 L9.75,20.5 L14.25,20.5 L14.25,16.25 C14.25,15.059136 13.3248384,14.0843551 12.1540488,14.0051908 L12.1540488,14.0051908 Z M9.56457387,2.53618058 C11.015001,1.29562247 13.183648,1.33992812 14.5827737,2.66909752 L14.5827737,2.66909752 L22.5165253,10.2061616 L22.5855933,10.2812198 C22.8167929,10.5693593 22.805228,10.991194 22.5437128,11.2664732 C22.2584234,11.5667778 21.7837057,11.5789501 21.4834011,11.2936607 L21.4834011,11.2936607 L13.5496495,3.75659668 L13.4336561,3.65366641 C12.5636801,2.93315453 11.2809422,2.96746462 10.4502769,3.75659668 L10.4502769,3.75659668 L2.51652529,11.2936607 L2.43802609,11.3587913 C2.13841655,11.5749204 1.71772887,11.5417524 1.45621362,11.2664732 C1.17092425,10.9661686 1.1830965,10.4914509 1.48340109,10.2061616 L1.48340109,10.2061616 L9.41715271,2.66909752 Z" id="path-1"></path>
    </defs>
    <g id="Public/ic_public_home" stroke="none" stroke-width="1" fill="none" fill-rule="evenodd">
        <mask id="mask-2" fill="white">
            <use xlink:href="#path-1"></use>
        </mask>
        <use id="形状结合" fill="#000000" fill-rule="nonzero" xlink:href="#path-1"></use>
    </g>
</svg>