<?xml version="1.0" encoding="UTF-8"?>
<svg xmlns="http://www.w3.org/2000/svg" xmlns:xlink="http://www.w3.org/1999/xlink" width="24" height="24" viewBox="0 0 24 24" version="1.1">
    <title>Public/ic_public_rotate</title>
    <defs>
        <path d="M2.39750685,6.63013031 L2.50192415,6.44781271 L2.50192415,6.44781271 L2.75879471,6.03099057 L2.75879471,6.03099057 L2.93582692,5.76598523 L2.93582692,5.76598523 L3.20161885,5.39677347 L3.20161885,5.39677347 L3.32729579,5.23279923 C3.56820965,4.92448685 3.82520554,4.6293504 4.09702191,4.34865144 L4.23449755,4.21246212 C4.28704102,4.16205416 4.34630275,4.10663467 4.41228273,4.04620367 C4.50448222,3.96175825 4.62497291,3.91491828 4.75,3.91491828 C4.99546627,3.91491828 5.19962006,4.09179804 5.24194799,4.32505331 L5.25,4.41493128 L5.25,8.25 C5.24977585,8.49537238 5.07299717,8.6994789 4.83984142,8.74208148 L4.75000006,8.7502521 L3.06976635,8.75098544 C2.69634318,9.7776504 2.5,10.873597 2.5,12 C2.5,17.2467051 6.75329488,21.5 12,21.5 C12.6894829,21.5 13.3689606,21.4266727 14.030681,21.2826369 C14.4354174,21.1945384 14.8349389,21.4512242 14.9230374,21.8559606 C15.0111358,22.260697 14.7544501,22.6602185 14.3497137,22.748317 C13.5833478,22.9151309 12.796919,23 12,23 C5.92486775,23 1,18.0751322 1,12 C1,10.8823315 1.16734646,9.78974217 1.48779359,8.7512185 C1.54897475,8.55245876 1.6160444,8.35544228 1.68845502,8.16102607 L1.76852684,7.95267927 L1.76852684,7.95267927 L1.86665996,7.71305503 L1.86665996,7.71305503 L2.00833447,7.39286049 L2.00833447,7.39286049 L2.20778051,6.98366251 L2.20778051,6.98366251 L2.39750685,6.63013031 L2.39750685,6.63013031 Z M12,1 C18.0751322,1 23,5.92486775 23,12 C23,13.1176685 22.8326535,14.2102578 22.5122064,15.2487815 C22.4697854,15.3867535 22.4243278,15.5242336 22.3762625,15.6604833 L22.2706279,15.9469375 L22.2706279,15.9469375 L22.1590479,16.2257326 L22.1590479,16.2257326 L22.016018,16.5540224 L22.016018,16.5540224 L21.8692412,16.8634509 L21.8692412,16.8634509 L21.6331374,17.3148349 L21.6331374,17.3148349 L21.4980759,17.5521873 L21.4980759,17.5521873 L21.2870619,17.8975954 L21.2870619,17.8975954 L21.0208478,18.2964497 L21.0208478,18.2964497 L20.7983811,18.6032265 L20.7983811,18.6032265 L20.6727042,18.7672008 C20.4317903,19.0755132 20.1747945,19.3706496 19.9029781,19.6513486 L19.7655024,19.7875379 C19.712959,19.8379458 19.6536973,19.8933653 19.5877173,19.9537963 C19.4955178,20.0382417 19.3750271,20.0850817 19.25,20.0850817 C19.0045337,20.0850817 18.8003799,19.908202 18.758052,19.6749467 L18.75,19.5850687 L18.75,15.75 C18.7502241,15.5046276 18.9270028,15.3005211 19.1601586,15.2579185 L19.2499999,15.2497479 L20.9302337,15.2490146 C21.3036568,14.2223496 21.5,13.126403 21.5,12 C21.5,6.75329488 17.2467051,2.5 12,2.5 C11.3105171,2.5 10.6310394,2.57332727 9.96931902,2.7173631 C9.56458264,2.80546156 9.16506107,2.5487758 9.07696262,2.14403942 C8.98886417,1.73930304 9.24554992,1.33978147 9.65028631,1.25168301 C10.4166522,1.08486912 11.203081,1 12,1 Z" id="_path-1"/>
    </defs>
    <g id="_Public/ic_public_rotate" stroke="none" stroke-width="1" fill="none" fill-rule="evenodd">
        <mask id="_mask-2" fill="white">
            <use xlink:href="#_path-1"/>
        </mask>
        <use id="_形状" fill="#000000" fill-rule="nonzero" xlink:href="#_path-1"/>
    </g>
</svg>