<?xml version="1.0" encoding="UTF-8"?>
<svg width="24px" height="24px" viewBox="0 0 24 24" version="1.1" xmlns="http://www.w3.org/2000/svg" xmlns:xlink="http://www.w3.org/1999/xlink">
    <title>Public/ic_public_cloud_download</title>
    <defs>
        <path d="M12,11.25 C12.414,11.25 12.75,11.5691301 12.75,11.9623439 L12.75,11.9623439 L12.75,19.853 L15.4696699,17.1338835 L15.5537883,17.0612653 C15.8473998,16.8434109 16.2640635,16.8676169 16.5303301,17.1338835 C16.8127628,17.4163162 16.8228497,17.867963 16.5605907,18.1624825 L16.5605907,18.1624825 L16.5303301,18.1945436 L13.2374369,21.4874369 L13.1152825,21.5987256 C12.4429846,22.1559894 11.4516033,22.1328344 10.8058219,21.5292606 L10.8058219,21.5292606 L10.7625631,21.4874369 L7.46966991,18.1945436 L7.39705176,18.1104252 C7.1791973,17.8168137 7.20340335,17.40015 7.46966991,17.1338835 C7.75210266,16.8514507 8.20374943,16.8413638 8.4982689,17.1036228 L8.4982689,17.1036228 L8.53033009,17.1338835 L11.25,19.854 L11.25,11.9623439 C11.25,11.5691301 11.586,11.25 12,11.25 Z M11.75,2.75 C14.3110274,2.75 16.6045627,4.18963065 17.7474745,6.39958542 L17.80175,6.50725 L17.8945017,6.51276243 C20.9917115,6.7137911 23.4483522,9.26487247 23.4991962,12.400779 L23.5,12.5 C23.5,15.3877596 21.4453897,17.8503967 18.6425924,18.391197 C18.2358806,18.4696722 17.8425588,18.2035838 17.7640837,17.7968719 C17.6856085,17.3901601 17.9516969,16.9968383 18.3584088,16.9183632 C20.4585779,16.5131351 22,14.6656005 22,12.5 C22,10.0147186 19.9852814,8 17.5,8 C17.4466555,8 17.3939544,8.00092489 17.3418727,8.00277976 C17.0266017,8.014008 16.7380067,7.82674806 16.6198096,7.53425654 C15.8243357,5.56576957 13.9094675,4.25 11.75,4.25 C8.92960252,4.25 6.61583848,6.4788429 6.50433581,9.28727318 C6.48827226,9.69186759 6.15493718,10.0077333 5.7552979,10.0075437 L5.71063343,10.0062104 C5.64075201,10.0020762 5.57052342,10 5.5,10 C3.56700338,10 2,11.5670034 2,13.5 C2,15.4329966 3.56700338,17 5.5,17 C5.91421356,17 6.25,17.3357864 6.25,17.75 C6.25,18.1642136 5.91421356,18.5 5.5,18.5 C2.73857625,18.5 0.5,16.2614237 0.5,13.5 C0.5,10.9111652 2.46749866,8.7818644 4.98877905,8.52581444 L5.071,8.518 L5.07650591,8.48088548 C5.56328657,5.26330332 8.31727779,2.80338693 11.6414047,2.75085752 L11.75,2.75 Z" id="path-1"></path>
    </defs>
    <g id="Public/ic_public_cloud_download" stroke="none" stroke-width="1" fill="none" fill-rule="evenodd">
        <mask id="mask-2" fill="white">
            <use xlink:href="#path-1"></use>
        </mask>
        <use id="蒙版" fill="#000000" fill-rule="nonzero" xlink:href="#path-1"></use>
    </g>
</svg>