<?xml version="1.0" encoding="UTF-8"?>
<svg xmlns="http://www.w3.org/2000/svg" xmlns:xlink="http://www.w3.org/1999/xlink" width="24" height="24" viewBox="0 0 24 24" version="1.1">
    <title>Public/ic_public_collect</title>
    <defs>
        <path d="M13.1382247,1.63492692 C13.4833468,1.80525484 13.7626949,2.084603 13.9330228,2.42972506 L15.9516683,6.51994748 C16.0973303,6.81509095 16.3788959,7.01966033 16.704606,7.06698879 L21.2184345,7.72288645 C22.174888,7.86186728 22.8375805,8.74989227 22.6985997,9.70634578 C22.6432568,10.0872106 22.4639042,10.4392098 22.1883079,10.7078499 L18.9220709,13.891644 C18.6863849,14.1213812 18.5788364,14.4523814 18.6344743,14.7767754 L19.4055283,19.2723649 C19.56891,20.2249537 18.9291313,21.1296265 17.9765426,21.2930083 C17.5972167,21.3580678 17.2070226,21.2962671 16.8663667,21.1171737 L13.7741812,19.4922374 C14.2496954,19.1811107 14.7200919,18.8635936 15.1853663,18.5396878 L17.5643784,19.7894766 C17.6130435,19.8150614 17.6687856,19.82389 17.722975,19.8145958 C17.8493388,19.7929227 17.9371713,19.679939 17.9303866,19.5549525 L17.9271158,19.5259325 L17.1828081,15.1896117 C16.5943981,15.6534073 16.0121091,16.0961739 15.4359412,16.5179114 L14.5560371,17.1492968 L14.5560371,17.1492968 L13.6844132,17.7504514 C13.0804528,18.1588606 12.4677827,18.5564752 11.8464031,18.9432952 L10.9078016,19.5154293 L10.9078016,19.5154293 L7.8611027,21.1171737 C7.6359769,21.2355294 7.39681929,21.2999613 7.15840907,21.3150637 L7.01557087,21.3182423 C6.39801865,21.3066835 5.80550039,20.9678678 5.49777574,20.3825407 C5.31868237,20.0418849 5.25688169,19.6516907 5.32194116,19.2723649 L6.09299511,14.7767754 C6.14863305,14.4523814 6.04108456,14.1213812 5.80539848,13.891644 L2.53916154,10.7078499 C1.84706528,10.0332227 1.83290374,8.92527453 2.50753086,8.23317827 C2.77617092,7.95758191 3.12817014,7.77822934 3.50903494,7.72288645 L8.02286338,7.06698879 C8.34857354,7.01966033 8.63013912,6.81509095 8.77580114,6.51994748 L10.7944466,2.42972506 C11.2221856,1.56303116 12.2715308,1.20718791 13.1382247,1.63492692 Z M12.3198269,2.95808449 L12.2902119,2.96527007 C12.2793457,2.96861565 12.2687103,2.97269676 12.2583861,2.97748605 L12.2902119,2.96527007 C12.2714966,2.97103233 12.2534657,2.97897647 12.2365308,2.9889629 L12.2583861,2.97748605 C12.2413468,2.98539044 12.2251553,2.99522387 12.210174,3.00686353 L12.2365308,2.9889629 C12.2171613,3.00038505 12.1992255,3.01447891 12.1833396,3.03103562 L12.210174,3.00686353 C12.1956184,3.01817235 12.1822051,3.03118618 12.1702664,3.04579235 L12.1395507,3.09357363 L10.1209053,7.18379605 C10.0184557,7.39138155 9.8891144,7.58104483 9.73798951,7.74907464 C9.72757688,7.76065179 9.71707851,7.77210731 9.70647875,7.78345927 C9.68222387,7.8094362 9.65740841,7.83489994 9.63208072,7.8598056 C9.61286179,7.8787174 9.59272003,7.89788572 9.57227364,7.9167049 C9.55151545,7.93581237 9.5303783,7.9546158 9.50893536,7.97304979 C9.48390793,7.9945665 9.45840986,8.01562276 9.43250968,8.03616184 C9.41116892,8.05308223 9.38973108,8.06952117 9.36803353,8.08560821 C9.34138956,8.10536464 9.31425278,8.12465932 9.28673801,8.14340738 C9.26560288,8.15781133 9.24405019,8.17201666 9.2222781,8.18588799 C9.19145373,8.20552392 9.16032733,8.22441091 9.12878668,8.24261854 C9.10386369,8.25700696 9.07861557,8.27100654 9.05311817,8.28457189 C9.02759033,8.29815315 9.00183229,8.31128953 8.97583553,8.32398347 C8.94971953,8.33673475 8.9234259,8.34901131 8.89690336,8.36083563 C8.86403238,8.37549408 8.8305812,8.3895481 8.79679457,8.40288263 C8.77499612,8.41148634 8.7530082,8.41980861 8.73088571,8.4278259 C8.69848989,8.43956293 8.66602601,8.45057618 8.63329498,8.46093143 C8.60215544,8.47078718 8.57049234,8.48012444 8.53859854,8.48884419 C8.51232354,8.49602683 8.48597244,8.50277116 8.45947431,8.50909269 C8.44359003,8.51288347 8.42745894,8.51656457 8.41127563,8.52008864 L8.35135851,8.53237085 C8.33993308,8.53456774 8.32848318,8.53668672 8.31700947,8.5387273 L8.23856085,8.55139931 L3.72473242,9.20729697 C3.67032316,9.2152031 3.62003756,9.24082489 3.58166041,9.2801958 L3.53958116,9.33787805 C3.53650925,9.34368602 3.53368264,9.3495886 3.53110115,9.35557062 C3.52517733,9.36931413 3.5205711,9.3833711 3.51723738,9.39766093 L3.53110115,9.35557062 C3.52107995,9.37879248 3.51475247,9.40321145 3.51210738,9.42794046 L3.51723738,9.39766093 C3.51174014,9.42122457 3.50970299,9.44542138 3.51111562,9.46944495 L3.51210738,9.42794046 C3.50988906,9.44867962 3.51026074,9.46963685 3.51321572,9.4902889 L3.51111562,9.46944495 C3.51245982,9.49230479 3.51692769,9.51500776 3.52451033,9.53685903 L3.51321572,9.4902889 C3.5167719,9.51514267 3.52406949,9.53955445 3.53509683,9.56261222 L3.52451033,9.53685903 C3.53184297,9.55798986 3.54208839,9.57832422 3.55523855,9.59723378 L3.58617908,9.63372032 L6.85241601,12.8175145 C7.02932311,12.9899563 7.17735273,13.185219 7.29413335,13.3960039 C7.3060094,13.4174491 7.31734845,13.4386412 7.32837391,13.4599807 C7.34544959,13.4930124 7.36200114,13.5268904 7.37776993,13.5611038 C7.38700246,13.5811337 7.39599952,13.6013551 7.4047244,13.6216867 C7.42054882,13.6585657 7.43544807,13.6957275 7.44944464,13.7332162 C7.4561134,13.7510694 7.46270561,13.7693658 7.46908335,13.7877355 C7.48096949,13.8219746 7.49208817,13.8563938 7.50245682,13.8910418 C7.51355223,13.9281173 7.52379354,13.9654736 7.53316523,14.0030615 C7.53864691,14.0250458 7.54383993,14.0471494 7.54873239,14.0693263 C7.55544824,14.0997675 7.56160032,14.1303611 7.56718038,14.1610769 C7.57371686,14.1970365 7.57950398,14.2334175 7.58448758,14.2699424 C7.58575039,14.2791953 7.58697135,14.2885353 7.58813973,14.2978842 C7.59419108,14.3463257 7.59882194,14.3948735 7.60202936,14.4436002 C7.60300281,14.4583669 7.60385715,14.4733923 7.60457587,14.4884329 C7.60662339,14.5312853 7.60757009,14.5742497 7.60740331,14.617297 C7.60728116,14.6501739 7.60649237,14.6834943 7.60503234,14.7168455 C7.60370515,14.7470889 7.60184731,14.7770913 7.59944271,14.8071049 C7.59849238,14.8189758 7.59744233,14.8309985 7.59630429,14.8430222 L7.59184385,14.8861574 C7.58948636,14.9071733 7.58685906,14.9281889 7.58396044,14.9491994 L7.57140759,15.030343 L6.80035365,19.5259325 C6.79105944,19.5801219 6.7998881,19.6358639 6.82547287,19.684529 C6.84027761,19.7126893 6.85969665,19.7368556 6.88231261,19.7565872 C6.89134389,19.7644774 6.9010247,19.7717488 6.91113625,19.7782636 L6.88231261,19.7565872 C6.89781452,19.7701121 6.91481843,19.7815534 6.93286789,19.7907694 L6.91113625,19.7782636 C6.92778545,19.7889905 6.94560245,19.7976658 6.96416679,19.8041589 L6.93286789,19.7907694 C6.95404634,19.801583 6.97666428,19.8093327 6.99998434,19.8137894 L6.96416679,19.8041589 C7.00380331,19.8180221 7.04684661,19.8219373 7.0892042,19.8146321 L7.05703112,19.818041 C7.07727622,19.8172224 7.09760057,19.813924 7.11756002,19.8080077 L7.16309101,19.7894766 L7.4596811,19.6328248 L10.1656811,18.2098248 L11.0464698,17.6743663 C12.2478825,16.926714 13.4156912,16.1377745 14.5499693,15.3075173 C15.7678295,14.4160804 17.016095,13.426464 18.2550213,12.3749785 L18.8735221,11.844248 L21.1412903,9.63372032 C21.1806613,9.59534317 21.2062831,9.54505756 21.2141892,9.4906483 L21.2147165,9.42209317 C21.2136407,9.41387917 21.21216,9.40576962 21.2102925,9.39778877 C21.2074772,9.38572088 21.203717,9.37379532 21.1991141,9.36225854 L21.2102925,9.39778877 C21.2050044,9.3751889 21.1966149,9.35362108 21.1855352,9.33363618 L21.1991141,9.36225854 C21.1917276,9.34374458 21.1821711,9.3262318 21.1707134,9.31008052 L21.1855352,9.33363618 C21.1745736,9.31386434 21.1609789,9.29564184 21.145149,9.27950211 L21.1707134,9.31008052 C21.1593045,9.29399801 21.1460107,9.27926542 21.1310973,9.26623846 L21.145149,9.27950211 C21.1319531,9.26604789 21.117204,9.254041 21.1011323,9.24379044 L21.1310973,9.26623846 C21.1138534,9.25117575 21.0944442,9.23839341 21.0732802,9.22844136 L21.1011323,9.24379044 C21.0838438,9.23276376 21.0650248,9.22376945 21.0449624,9.21719216 L21.002737,9.20729697 L16.4889086,8.55139931 C16.3849258,8.53628973 16.2827428,8.51476975 16.1828371,8.48718644 C16.1648466,8.48221869 16.1470124,8.47707911 16.1292541,8.47174673 C16.1034603,8.46400398 16.077617,8.45578397 16.051945,8.44715676 C16.0158533,8.43502433 15.9803084,8.42216767 15.945122,8.4085327 C15.9251317,8.40078994 15.9048929,8.39264392 15.8847786,8.38424068 C15.8508902,8.37007802 15.8176345,8.35531648 15.7847478,8.33985247 C15.7539313,8.32536777 15.7230946,8.31008688 15.6926074,8.29418824 C15.6701902,8.28249662 15.6480666,8.27052969 15.6261373,8.25823707 C15.5948831,8.24071867 15.5639516,8.22249429 15.5334373,8.20362031 C15.5121765,8.19047184 15.4909805,8.17691705 15.4699969,8.16304793 C15.4418176,8.14441718 15.4143076,8.12542572 15.3871894,8.10589129 C15.3646617,8.08966876 15.3421084,8.07284299 15.3198428,8.05563969 C15.2983527,8.03903453 15.2771893,8.02212616 15.2563014,8.00487455 C15.226629,7.98036443 15.1976362,7.9552738 15.1692198,7.9295148 C15.1525488,7.9144102 15.1356414,7.89865958 15.1189486,7.88267054 C15.0932222,7.85802801 15.0680384,7.83285363 15.0433827,7.80712907 C15.0269869,7.79001878 15.0110039,7.77286306 14.9952551,7.75547361 C14.9686227,7.72606654 14.9426653,7.69599769 14.9174049,7.66528078 C14.905244,7.65049305 14.8932458,7.63555652 14.8814121,7.62047206 C14.8532632,7.58459162 14.8260221,7.54784068 14.7997554,7.51028147 C14.7912387,7.49809936 14.7830445,7.48615879 14.7749487,7.4741386 C14.7503184,7.43757254 14.7265407,7.40017205 14.7037161,7.36205794 C14.6989674,7.35412737 14.6943205,7.34626964 14.6897142,7.33838204 L14.6667157,7.29814983 C14.658628,7.28369237 14.6506748,7.26913839 14.6428579,7.25448926 L14.6065642,7.18379605 L12.5879187,3.09357363 C12.5635862,3.04427048 12.5236793,3.0043636 12.4743761,2.98003104 L12.4366811,2.96682475 L12.4144429,2.95934967 C12.403114,2.95699545 12.3917235,2.95545502 12.3803488,2.9547021 C12.3596873,2.95337037 12.3395126,2.95455654 12.3198269,2.95808449 Z" id="_path-1"/>
    </defs>
    <g id="_Public/ic_public_collect" stroke="none" stroke-width="1" fill="none" fill-rule="evenodd">
        <mask id="_mask-2" fill="white">
            <use xlink:href="#_path-1"/>
        </mask>
        <use id="_形状结合" fill="#000000" fill-rule="nonzero" xlink:href="#_path-1"/>
    </g>
</svg>