<?xml version="1.0" encoding="UTF-8"?>
<svg xmlns="http://www.w3.org/2000/svg" xmlns:xlink="http://www.w3.org/1999/xlink" width="24" height="24" viewBox="0 0 24 24" version="1.1">
    <title>Public/ic_public_enlarge</title>
    <defs>
        <path d="M3.28033009,3.28033009 C3.5732233,2.98743687 4.04809704,2.98743687 4.34099026,3.28033009 L10.3513979,9.29073773 C10.6442911,9.58363094 10.6442911,10.0585047 10.3513979,10.3513979 C10.0585047,10.6442911 9.58363094,10.6442911 9.29073773,10.3513979 L3.28033009,4.34099026 C2.98743687,4.04809704 2.98743687,3.5732233 3.28033009,3.28033009 Z M14.5983496,13.5376894 L20.25,19.189 L20.2512732,14.4559318 C20.2740848,14.06223 20.6005798,13.75 21,13.75 C21.159058,13.75 21.3065515,13.7995137 21.4279079,13.8839687 L21.5137968,13.9536337 L21.5463663,13.9862032 L21.5768981,14.0207115 C21.663373,14.1246827 21.7222733,14.2524021 21.7423744,14.392645 L21.75,14.5 L21.75,20 L21.7489852,20.0601624 C21.7189436,20.949402 21.0254639,21.6704075 20.1478855,21.7438396 L20,21.75 L14.5,21.75 L14.4559318,21.7487268 C14.3115745,21.7403626 14.1781706,21.6911698 14.0670956,21.6125239 L13.9881539,21.5481949 L13.9553277,21.5155916 C13.8280575,21.3811889 13.75,21.1997101 13.75,21 C13.75,20.6203042 14.0321539,20.306509 14.3982294,20.2568466 L14.5,20.25 L19.189,20.25 L13.5376894,14.5983496 C13.2447962,14.3054564 13.2447962,13.8305826 13.5376894,13.5376894 C13.8305826,13.2447962 14.3054564,13.2447962 14.5983496,13.5376894 Z M4.25,2.5 L9.7940682,2.50127317 C9.93842553,2.50963743 10.0718294,2.55883023 10.1829044,2.63747605 L10.2618461,2.70180512 L10.2946723,2.73440836 C10.4219425,2.86881108 10.5,3.05028989 10.5,3.25 C10.5,3.62969577 10.2178461,3.94349096 9.85177056,3.99315338 L9.75,4 L4.7059318,4.00127317 C4.34503848,4.02218381 4.05260411,4.29827286 4.00637125,4.65179776 L4,4.75 L4,9.75 L3.99872683,9.7940682 C3.97591522,10.18777 3.64942022,10.5 3.25,10.5 C3.09094199,10.5 2.94344853,10.4504863 2.82209211,10.3660313 L2.73620318,10.2963663 L2.7036337,10.2637968 L2.67310187,10.2292885 C2.58662698,10.1253173 2.52772672,9.9975979 2.50762561,9.85735498 L2.5,9.75 L2.50101475,4.18983756 C2.53105635,3.30059804 3.22453611,2.57959249 4.10211451,2.50616043 L4.25,2.5 Z" id="_path-1"/>
    </defs>
    <g id="_Public/ic_public_enlarge" stroke="none" stroke-width="1" fill="none" fill-rule="evenodd">
        <mask id="_mask-2" fill="white">
            <use xlink:href="#_path-1"/>
        </mask>
        <use id="_形状" fill="#000000" fill-rule="nonzero" xlink:href="#_path-1"/>
    </g>
</svg>