<?xml version="1.0" encoding="UTF-8"?>
<svg xmlns="http://www.w3.org/2000/svg" xmlns:xlink="http://www.w3.org/1999/xlink" width="24" height="24" viewBox="0 0 24 24" version="1.1">
    <title>Public/ic_public_sift</title>
    <defs>
        <path d="M4.91676415,2.25 L4.75808035,2.25485026 C2.77345665,2.37699507 1.76507474,4.77836295 3.11720971,6.30280272 L9.451,13.448 L9.45165191,19.3317225 C9.45165191,19.5528715 9.5492531,19.7627476 9.71836704,19.9052517 L12.1359634,21.9424413 L12.2359982,22.0194003 C13.0842855,22.6123412 14.2786193,22.0055246 14.2786193,20.9382593 L14.278,13.729 L20.8805098,6.30549709 C22.2713775,4.74140593 21.1737033,2.25 19.0832687,2.25 L4.91676415,2.25 Z M4.91676415,3.75 L19.0832687,3.75 C19.87284,3.75 20.2945459,4.70715168 19.7596123,5.3087078 L12.9681784,12.9454877 L12.9015756,13.0324072 C12.8217893,13.1539895 12.7786193,13.2968945 12.7786193,13.4438912 L12.778,20.522 L10.951,18.983 L10.9516519,13.1635183 C10.9516519,12.9801751 10.8844936,12.8031824 10.7628688,12.6659887 L4.23951739,5.30760152 C3.70586995,4.70595046 4.1279648,3.75 4.91676415,3.75 Z" id="_path-1"/>
    </defs>
    <g id="_Public/ic_public_sift" stroke="none" stroke-width="1" fill="none" fill-rule="evenodd">
        <mask id="_mask-2" fill="white">
            <use xlink:href="#_path-1"/>
        </mask>
        <use id="_Stroke-1" fill="#000000" fill-rule="nonzero" xlink:href="#_path-1"/>
    </g>
</svg>