<?xml version="1.0" encoding="UTF-8"?>
<svg width="24px" height="24px" viewBox="0 0 24 24" version="1.1" xmlns="http://www.w3.org/2000/svg" xmlns:xlink="http://www.w3.org/1999/xlink">
    <title>Public/ic_public_lock</title>
    <defs>
        <path d="M12,2 C14.3202308,2 16.206199,3.85929891 16.249248,6.16924008 L16.25,6.25 L16.25,9 L16.5,9 C18.1568542,9 19.5,10.3431458 19.5,12 L19.5,18.5 C19.5,20.1568542 18.1568542,21.5 16.5,21.5 L7.5,21.5 C5.84314575,21.5 4.5,20.1568542 4.5,18.5 L4.5,12 C4.5,10.3431458 5.84314575,9 7.5,9 L7.75,9 L7.75,6.25 C7.75,3.90278981 9.65278981,2 12,2 Z M16.5,10.5 L7.5,10.5 C6.69040076,10.5 6.03060706,11.1413937 6.00103462,11.9437654 L6,12 L6,18.5 C6,19.3095992 6.64139372,19.9693929 7.44376543,19.9989654 L7.5,20 L16.5,20 C17.3095992,20 17.9693929,19.3586063 17.9989654,18.5562346 L18,18.5 L18,12 C18,11.1904008 17.3586063,10.5306071 16.5562346,10.5010346 L16.5,10.5 Z M12,13.25 C13.1045695,13.25 14,14.1454305 14,15.25 C14,16.3545695 13.1045695,17.25 12,17.25 C10.8954305,17.25 10,16.3545695 10,15.25 C10,14.1454305 10.8954305,13.25 12,13.25 Z M12,3.5 C10.5053246,3.5 9.28915871,4.69244089 9.25092685,6.17789813 L9.25,9 L14.75,9 L14.75,6.25 C14.75,4.73121694 13.5187831,3.5 12,3.5 Z" id="path-1"></path>
    </defs>
    <g id="Public/ic_public_lock" stroke="none" stroke-width="1" fill="none" fill-rule="evenodd">
        <mask id="mask-2" fill="white">
            <use xlink:href="#path-1"></use>
        </mask>
        <use id="形状结合" fill="#000000" fill-rule="nonzero" xlink:href="#path-1"></use>
    </g>
</svg>