<?xml version="1.0" encoding="UTF-8"?>
<svg width="24px" height="24px" viewBox="0 0 24 24" version="1.1" xmlns="http://www.w3.org/2000/svg" xmlns:xlink="http://www.w3.org/1999/xlink">
    <title>Public/ic_public_download</title>
    <defs>
        <path d="M21.25,15.5 C21.6494202,15.5 21.9759152,15.81223 21.9987268,16.2059318 L22,16.25 L22,18 C22,20.1828397 20.2515247,21.9573012 18.0787177,21.9992409 L18,22 L6,22 C3.81716027,22 2.04269883,20.2515247 2.0007591,18.0787177 L2,16.25 C2,15.8357864 2.33578644,15.5 2.75,15.5 C3.14942022,15.5 3.47591522,15.81223 3.49872683,16.2059318 L3.5,16.25 L3.5,18 C3.5,19.35731 4.5816677,20.4619829 5.93002379,20.4990396 L6,20.5 L18,20.5 C19.35731,20.5 20.4619829,19.4183323 20.4990396,18.0699762 L20.5,18 L20.5,16.25 C20.5,15.8357864 20.8357864,15.5 21.25,15.5 Z M11.9984143,2 C12.4126279,2 12.7484143,2.33578644 12.7484143,2.75 L12.748,15.44 L16.7196699,11.4696699 C17.0125631,11.1767767 17.4874369,11.1767767 17.7803301,11.4696699 C18.0627628,11.7521027 18.0728497,12.2037494 17.8105907,12.4982689 L17.7803301,12.5303301 L13.2374369,17.0732233 C12.5682572,17.742403 11.4919646,17.7563442 10.8058219,17.115047 L10.7625631,17.0732233 L6.21966991,12.5303301 C5.9267767,12.2374369 5.9267767,11.7625631 6.21966991,11.4696699 C6.50210266,11.1872372 6.95374943,11.1771503 7.2482689,11.4394093 L7.28033009,11.4696699 L11.248,15.437 L11.2484143,2.75 C11.2484143,2.33578644 11.5842008,2 11.9984143,2 Z" id="path-1"></path>
    </defs>
    <g id="Public/ic_public_download" stroke="none" stroke-width="1" fill="none" fill-rule="evenodd">
        <mask id="mask-2" fill="white">
            <use xlink:href="#path-1"></use>
        </mask>
        <use id="合并形状" fill="#000000" fill-rule="nonzero" xlink:href="#path-1"></use>
    </g>
</svg>