<?xml version="1.0" encoding="UTF-8"?>
<svg xmlns="http://www.w3.org/2000/svg" xmlns:xlink="http://www.w3.org/1999/xlink" width="24" height="24" viewBox="0 0 24 24" version="1.1">
    <title>Public/ic_public_thumbsup</title>
    <defs>
        <path d="M15.9050936,2.45338801 C16.6447884,3.00255534 16.9749702,3.94717086 16.7384601,4.83756184 L15.5083454,9.46858193 C15.5048008,9.48192631 15.5127451,9.49561753 15.5260895,9.49916213 L15.5325076,9.5 L20.0446188,9.5 C21.7014731,9.5 23.0446188,10.8431458 23.0446188,12.5 C23.0446188,12.7734334 23.0072367,13.0455832 22.9335109,13.3088898 L21.3180145,19.0785197 C20.8343603,20.8058562 19.259929,22 17.4661584,22 L4,22 C2.34314575,22 1,20.6568542 1,19 L1,13 C1,11.3431458 2.34314575,10 4,10 L7.5,10 L12.7573206,2.91871096 C13.4980588,1.92098208 14.9073647,1.7126499 15.9050936,2.45338801 Z M6.75,11.499795 L4,11.5 C3.19040076,11.5 2.53060706,12.1413937 2.50103462,12.9437654 L2.5,13 L2.5,19 C2.5,19.8095992 3.14139372,20.4693929 3.94376543,20.4989654 L4,20.5 L6.75,20.499795 L6.75,11.499795 Z M13.9911444,3.77565755 L13.961686,3.81286096 L8.25456757,11.5 L8.25,11.499795 L8.25,20.499795 L17.4661584,20.5 C18.5634117,20.5 19.5293493,19.7850814 19.8533531,18.742528 L19.8735685,18.6740748 L21.4890648,12.9044449 C21.5259277,12.7727916 21.5446188,12.6367167 21.5446188,12.5 C21.5446188,11.6904008 20.9032251,11.0306071 20.1008534,11.0010346 L20.0446188,11 L15.5325076,11 L15.3972186,10.9932081 C15.35145,10.9899937 15.3185638,10.9857004 15.273504,10.9770573 L15.1410056,10.9488898 C14.3454989,10.7375833 13.8645946,9.9351472 14.044957,9.13902376 L14.0586177,9.08349802 L15.2887324,4.45247792 C15.3675691,4.15568093 15.2575085,3.84080909 15.0109436,3.65775331 C14.6911587,3.42033725 14.2445318,3.4754108 13.9911444,3.77565755 Z M4.75,16.5 C5.16421356,16.5 5.5,16.8357864 5.5,17.25 L5.5,18.75 C5.5,19.1642136 5.16421356,19.5 4.75,19.5 C4.33578644,19.5 4,19.1642136 4,18.75 L4,17.25 C4,16.8357864 4.33578644,16.5 4.75,16.5 Z" id="_path-1"/>
    </defs>
    <g id="_Public/ic_public_thumbsup" stroke="none" stroke-width="1" fill="none" fill-rule="evenodd">
        <mask id="_mask-2" fill="white">
            <use xlink:href="#_path-1"/>
        </mask>
        <use id="_形状结合" fill="#000000" fill-rule="nonzero" xlink:href="#_path-1"/>
    </g>
</svg>