<?xml version="1.0" encoding="UTF-8"?>
<svg xmlns="http://www.w3.org/2000/svg" width="24" height="24" version="1.1" viewBox="0 0 24 24">
  <path fill="#000" fill-rule="nonzero" stroke="none" stroke-width="1" d="M9.07691299,2.27560876 L1.68654053,8.8517588 C1.62338275,8.90795827 1.56344263,8.96767271 1.50700532,9.03061805 C0.677457708,9.95582431 0.755004365,11.3783334 1.68021063,12.207881 L9.07198973,18.8354115 C9.39303211,19.1232608 9.80904369,19.2824516 10.2402344,19.2824516 L10.3003968,19.2814369 C11.2390385,19.2497263 11.9902344,18.4788145 11.9902344,17.5324516 L11.9905,13.98475 L12.2549999,13.9918268 C12.3293041,13.9941141 12.4009805,13.996639 12.470024,13.9994007 C16.3138125,14.1531523 19.2183645,16.0331606 21.2584169,19.7074784 C21.4280563,20.0130143 21.754772,20.1975402 22.1040199,20.1850671 C22.6169096,20.1667496 23.0178396,19.7361211 22.9995221,19.2232314 L22.9897954,19.0070072 C22.8134853,15.7771552 21.3313212,12.9291627 18.9100017,10.7664292 L18.789315,10.659905 C16.8481044,8.96672299 14.4199383,7.8128521 12.054826,7.4087037 L11.99025,7.398 L11.9902344,3.58295681 C11.9902344,3.15405063 11.8327155,2.74007098 11.5475918,2.41964476 C10.9051071,1.69761122 9.79894654,1.6331241 9.07691299,2.27560876 Z M10.4269997,3.41677738 C10.4677317,3.46255256 10.4902344,3.52169251 10.4902344,3.58296615 L10.4902985,8.72853363 L11.1621774,8.79889255 C13.4854724,9.04218716 15.9828614,10.1631332 17.9107618,11.8851426 L18.0186245,11.9826311 C19.4409394,13.2834554 20.4765598,14.8444472 21.034644,16.5882072 L21.09,16.768 L21.0323738,16.6967829 C18.8619131,14.0501653 16.01523,12.6400094 12.529976,12.5005993 L12.3034358,12.4926076 C12.030191,12.4841738 11.725607,12.4788515 11.3894606,12.4766105 L10.4905549,12.4728696 L10.4902344,17.5324041 C10.4902344,17.6705228 10.3783056,17.7824516 10.2402344,17.7824516 C10.1786357,17.7824516 10.1192055,17.7597101 10.0733423,17.7185887 L2.68156318,11.0910583 C2.37316109,10.8145424 2.34731221,10.3403727 2.62382808,10.0319706 C2.64264052,10.0109888 2.66262056,9.99108401 2.68367315,9.97235085 L10.0740456,3.39620081 C10.1692588,3.31147756 10.3112297,3.31281004 10.4046982,3.39464478 L10.4269997,3.41677738 Z"/>
</svg>