<?xml version="1.0" encoding="UTF-8"?>
<svg width="24px" height="24px" viewBox="0 0 24 24" version="1.1" xmlns="http://www.w3.org/2000/svg" xmlns:xlink="http://www.w3.org/1999/xlink">
    <title>ic_search_things</title>
    <g id="ic_search_things" stroke="none" stroke-width="1" fill="none" fill-rule="evenodd">
        <path d="M14,1.65470054 L19.9592921,5.09529946 C21.1968965,5.80983064 21.9592921,7.13033872 21.9592921,8.55940108 L21.9592921,15.4405989 C21.9592921,16.8696613 21.1968965,18.1901694 19.9592921,18.9047005 L14,22.3452995 C12.7623957,23.0598306 11.2376043,23.0598306 10,22.3452995 L4.04070786,18.9047005 C2.80310355,18.1901694 2.04070786,16.8696613 2.04070786,15.4405989 L2.04070786,8.55940108 C2.04070786,7.13033872 2.80310355,5.80983064 4.04070786,5.09529946 L10,1.65470054 C11.2376043,0.940169359 12.7623957,0.940169359 14,1.65470054 Z M10.9183671,2.86487794 L10.75,2.95373864 L4.79070786,6.39433757 C4.06877201,6.81114742 3.60556085,7.55787803 3.54700797,8.38176502 L3.54070786,8.55940108 L3.54070786,15.4405989 C3.54070786,16.2742186 3.95578996,17.0487366 4.64002057,17.5113883 L4.79070786,17.6056624 L10.75,21.0462614 C11.4682525,21.4609446 12.341271,21.4905649 13.0816329,21.1351221 L13.25,21.0462614 L19.2092921,17.6056624 C19.931228,17.1888526 20.3944391,16.442122 20.452992,15.618235 L20.4592921,15.4405989 L20.4592921,8.55940108 C20.4592921,7.72578137 20.04421,6.95126343 19.3599794,6.48861166 L19.2092921,6.39433757 L13.25,2.95373864 C12.5317475,2.53905537 11.658729,2.50943514 10.9183671,2.86487794 Z M17.6418243,8.61412818 C17.8371762,8.93971462 17.7566775,9.35395875 17.4683214,9.58488825 L17.3845764,9.64311969 L12.7477079,12.4248022 L12.7487046,17 C12.7487046,17.4142136 12.4129182,17.75 11.9987046,17.75 C11.6190089,17.75 11.3052137,17.4678461 11.2555512,17.1017706 L11.2487046,17 L11.2477079,12.4238022 L6.6128328,9.64311969 L6.52908782,9.58488825 C6.24073173,9.35395875 6.16023307,8.93971462 6.35558492,8.61412818 C6.56869604,8.25894298 7.02939124,8.14376919 7.38457644,8.35688031 L7.38457644,8.35688031 L11.9987079,11.1258022 L16.6128328,8.35688031 C16.968018,8.14376919 17.4287132,8.25894298 17.6418243,8.61412818 Z" id="形状结合" fill="#000000" fill-rule="nonzero"></path>
    </g>
</svg>